<svg id="Layer_1" data-name="Layer 1" xmlns="http://www.w3.org/2000/svg" viewBox="0 0 1024 768"><defs><style>.cls-1{fill:#242a43;}.cls-2{fill:#29abe2;}.cls-3{fill:#a0a99e;}.cls-4{fill:#5f665b;}.cls-5{fill:#436b80;}.cls-6{fill:#e6ba8d;}.cls-7{fill:#9f7f6e;}.cls-8{fill:#745a4b;}.cls-9{fill:none;}.cls-10{fill:#bcbcad;}.cls-11{fill:#80a6a3;}.cls-12{fill:#ff7e5d;}.cls-13{fill:#6e8988;}.cls-14{fill:#b2ddcf;}.cls-15{fill:#2e535b;}.cls-16{fill:#cca180;}.cls-17{fill:#ffcf8f;}.cls-18{fill:#5e4940;}</style></defs><rect class="cls-1" y="722" width="1024" height="46"/><rect class="cls-2" x="211" y="716" width="601" height="52"/><polygon class="cls-3" points="820.8 695.23 828.66 695.23 828.89 677.82 821.98 678.09 820.8 695.23"/><path class="cls-4" d="M826.46,675.75c54,0,107.55-37.9,107.55-37.9l.77,2.31s-57.36,38.66-108.28,38.66c-45.87,0-120.39-72-129.91-95.13,0,0-.91-9.16-.13-7.46C715.33,617.37,790.36,675.75,826.46,675.75Z"/><path class="cls-4" d="M826.46,684.73c70.42,0,105.63-44.83,105.63-44.83l.77,2.31s-34.44,45.57-106.66,45.57c-73,0-120.09-75.28-129.61-98.45,0,0-.91-9.17-.13-7.47C715.33,623,761.16,684.73,826.46,684.73Z"/><polygon class="cls-4" points="721.35 628.05 721.07 690.25 718.4 690.68 718.76 624.81 721.35 628.05"/><polygon class="cls-4" points="744.22 651.47 743.92 692.6 741.81 692.79 741.23 649.78 744.22 651.47"/><path class="cls-4" d="M763.34,668.13l2.45.64-.25,23.35a4.54,4.54,0,0,0-1.79,0Z"/><polygon class="cls-4" points="904.6 663.84 904.9 692.85 907.01 692.99 907.59 662.65 904.6 663.84"/><path class="cls-4" d="M885.48,674.34l-2.45.48.25,17.49a6.11,6.11,0,0,1,1.79,0Z"/><path class="cls-4" d="M800.6,683.82l2.3,1v9.6h-2.3S800.21,684.2,800.6,683.82Z"/><path class="cls-4" d="M866.44,681.17l-2.3,1.07v10h2.3S866.83,681.57,866.44,681.17Z"/><path class="cls-4" d="M848.22,684l-2.3,1v9.6h2.3S848.6,684.39,848.22,684Z"/><path class="cls-3" d="M929.87,689.32l-293.17.8q0,2.91.09,5.82l293.31-.6Z"/><path class="cls-4" d="M930,694.49l-295.87.25.09,1.81,296-.19Z"/><path class="cls-4" d="M782.37,676.56l2.31,1.49v14h-2.31S782,677.12,782.37,676.56Z"/><path class="cls-5" d="M945.18,592.84c0,1.27,12.55,50,12.55,50l-28.32-.57Z"/><polygon class="cls-6" points="955.45 715.57 929.41 715.57 928.17 642.88 957.74 642.81 955.45 715.57"/><polygon class="cls-7" points="926.93 644.25 959.3 644.72 959.62 641.69 926.93 641.52 926.93 644.25"/><path class="cls-5" d="M944.83,593.48a2.52,2.52,0,0,0-2.41,2.67,2.64,2.64,0,0,0,2.94,2.21,2.51,2.51,0,0,0,2.41-2.68A2.63,2.63,0,0,0,944.83,593.48Z"/><polygon class="cls-5" points="944.09 578.57 945.79 579.21 945.84 596.89 944.13 596.98 944.09 578.57"/><polygon class="cls-5" points="941.41 583.16 948.1 582.99 948.24 584.74 941.32 584.5 941.41 583.16"/><polygon class="cls-6" points="927.86 669.57 957.4 669.29 957.4 662.39 927.86 661.97 927.86 669.57"/><polygon class="cls-7" points="927.44 663.03 957.91 663.08 958.14 660.9 926.77 660.96 927.44 663.03"/><polygon class="cls-7" points="927.03 670.18 958.14 670.44 958.21 668.71 927.47 668.92 927.03 670.18"/><path class="cls-8" d="M943.17,676c7.57-.15,4.86,14.59,4.86,14.59l-11.26.52S935.6,676.19,943.17,676Z"/><polygon class="cls-9" points="947.18 644.39 947.13 646.88 939.66 646.37 939.64 645.14 947.18 644.39"/><polygon class="cls-8" points="952.2 647.23 952.03 659.21 948.16 659.21 948.34 646.97 952.2 647.23"/><polygon class="cls-8" points="934.14 659.21 934.7 646.03 938.17 646.27 938.11 659.21 934.14 659.21"/><polygon class="cls-8" points="947.13 646.88 946.89 659.21 939.87 659.21 939.66 646.37 947.13 646.88"/><polygon class="cls-10" points="919.76 726.89 961.09 727.06 962.77 690.03 920.54 689.19 919.76 726.89"/><polygon class="cls-3" points="962.47 722.88 962.17 728.01 918.87 728.47 918.9 722.88 962.47 722.88"/><polygon class="cls-3" points="197.55 695.23 189.68 695.23 189.46 677.82 196.37 678.09 197.55 695.23"/><path class="cls-4" d="M191.89,675.75c-54,0-107.55-37.9-107.55-37.9l-.77,2.31s57.36,38.66,108.28,38.66c45.87,0,120.39-72,129.91-95.13,0,0,.9-9.16.13-7.46C303,617.37,228,675.75,191.89,675.75Z"/><path class="cls-4" d="M191.89,684.73c-70.42,0-105.63-44.83-105.63-44.83l-.77,2.31s34.44,45.57,106.65,45.57c73,0,120.1-75.28,129.62-98.45,0,0,.9-9.17.13-7.47C303,623,257.18,684.73,191.89,684.73Z"/><polygon class="cls-4" points="297 628.05 297.28 690.25 299.95 690.68 299.58 624.81 297 628.05"/><polygon class="cls-4" points="274.13 651.47 274.43 692.6 276.54 692.79 277.12 649.78 274.13 651.47"/><path class="cls-4" d="M255,668.13l-2.45.64.25,23.35a4.54,4.54,0,0,1,1.79,0Z"/><polygon class="cls-4" points="113.75 663.84 113.45 692.85 111.34 692.99 110.76 662.65 113.75 663.84"/><path class="cls-4" d="M132.87,674.34l2.45.48-.25,17.49a6.11,6.11,0,0,0-1.79,0Z"/><path class="cls-4" d="M217.75,683.82l-2.3,1v9.6h2.3S218.13,684.2,217.75,683.82Z"/><path class="cls-4" d="M151.91,681.17l2.3,1.07v10h-2.3S151.52,681.57,151.91,681.17Z"/><path class="cls-4" d="M170.13,684l2.3,1v9.6h-2.3S169.74,684.39,170.13,684Z"/><polygon class="cls-11" points="399.8 706.6 398.29 706.38 401.37 694.08 414.91 703.72 420.34 694.36 430.08 702.85 435.38 694 446.31 700.84 451.27 693.79 462.31 699.53 467.33 693.18 477.37 699.2 485.22 693.73 494.98 697.69 501.93 693.32 508.68 696.72 514.93 694.13 515.66 695.17 508.6 698.1 502.03 694.79 495.16 699.1 485.46 695.17 477.44 700.75 467.75 694.93 462.79 701.21 451.81 695.5 446.78 702.66 435.95 695.88 430.49 705 420.77 696.52 415.44 705.71 402.36 696.39 399.8 706.6"/><polygon class="cls-11" points="635.58 707.06 633.02 696.86 620.54 708.4 614.61 696.98 604.89 705.46 599.43 696.34 588.6 703.12 583.57 695.96 572.59 701.67 567.63 695.39 557.94 701.21 549.92 695.63 540.22 699.56 533.34 695.25 526.77 698.56 519.71 695.63 520.44 694.59 526.7 697.18 533.44 693.78 540.4 698.15 550.15 694.19 558.01 699.66 568.04 693.64 573.07 699.99 584.11 694.25 589.07 701.3 600 694.46 605.3 703.31 615.04 694.82 621.23 706.49 634.01 694.54 637.09 706.84 635.58 707.06"/><polygon class="cls-3" points="88.48 689.32 88.25 695.34 653.9 696.49 654.47 690.86 88.48 689.32"/><path class="cls-11" d="M384.19,708.07l-.12,2.66s99.14-11.35,139.68-11.35c52.24,0,106.65,14.91,106.65,14.91l2.43-4S563.44,696,521.44,696C487.67,696,384.19,708.07,384.19,708.07Z"/><polygon class="cls-4" points="88.31 694.49 88.07 696.36 653.72 696.72 654.29 694.97 88.31 694.49"/><path class="cls-4" d="M236,676.56l-2.3,1.49v14H236S236.36,677.12,236,676.56Z"/><path class="cls-12" d="M479.69,548c1.13.38,2.49.36,3.43.91a3.4,3.4,0,0,1,.72.61c.42.42,0,2.82,0,2.82a.05.05,0,0,1-.07,0,5.92,5.92,0,0,0-1.56-1.3,4.28,4.28,0,0,0-2.32-.39,4.17,4.17,0,0,1-2.31-.39c-.35-.21-.41-.79-.52-1.06a11.74,11.74,0,0,1,.17-2.63C477.71,546.62,479,547.76,479.69,548Z"/><polygon class="cls-3" points="476.61 570.21 477.32 569.06 477.38 546.14 476.54 546.32 476.61 570.21"/><polygon class="cls-13" points="675.08 580.88 380.61 580.88 380.61 561.79 676.11 563.88 675.08 580.88"/><path class="cls-12" d="M557.16,548c1.13.38,2.49.36,3.44.91a4,4,0,0,1,.72.61c.41.42,0,2.82,0,2.82a.05.05,0,0,1-.07,0c-.13-.35-1.13-1-1.56-1.3a4.28,4.28,0,0,0-2.32-.39,4.17,4.17,0,0,1-2.31-.39c-.34-.21-.4-.79-.52-1.06a11.74,11.74,0,0,1,.17-2.63C555.18,546.62,556.51,547.76,557.16,548Z"/><polygon class="cls-3" points="554.09 570.21 554.79 569.06 554.85 546.14 554.02 546.32 554.09 570.21"/><polygon class="cls-11" points="412.7 579.88 402.81 565.24 393.28 578.84 381.09 564.91 382.05 564.07 393.16 576.77 402.83 562.98 412.66 577.52 421.06 564.03 431.97 577.38 441.44 563.43 452.71 576.88 461.95 563.66 472.34 577.37 482.16 563.97 492.96 576.54 499.31 564.45 500.44 565.04 493.21 578.81 482.24 566.03 472.35 579.52 461.99 565.83 452.8 578.98 441.54 565.55 432.06 579.51 421.2 566.23 412.7 579.88"/><polygon class="cls-11" points="422.88 579.88 412.99 565.24 403.45 578.84 391.27 564.91 392.23 564.07 403.34 576.77 413.01 562.98 422.84 577.52 431.24 564.03 442.14 577.38 451.61 563.43 462.89 576.88 472.13 563.66 482.51 577.37 492.34 563.97 503.13 576.54 509.48 564.45 510.62 565.04 503.39 578.81 492.42 566.03 482.53 579.52 472.17 565.83 462.98 578.98 451.72 565.55 442.24 579.51 431.38 566.23 422.88 579.88"/><polygon class="cls-11" points="503.19 564.62 501.6 565.25 507.24 570.76 508.51 569.91 503.19 564.62"/><polygon class="cls-5" points="456.48 581.13 449 580.62 448.8 562.53 456.09 562.4 456.48 581.13"/><polygon class="cls-11" points="618.61 579.88 628.5 565.24 638.04 578.84 650.23 564.91 649.27 564.07 638.15 576.77 628.48 562.98 618.66 577.52 610.26 564.03 599.35 577.38 589.88 563.43 578.61 576.88 569.36 563.66 558.98 577.37 549.15 563.97 538.36 576.54 532.01 564.45 530.88 565.04 538.1 578.81 549.07 566.03 558.96 579.52 569.32 565.83 578.51 578.98 589.77 565.55 599.25 579.51 610.12 566.23 618.61 579.88"/><polygon class="cls-11" points="608.43 579.88 618.33 565.24 627.86 578.84 640.05 564.91 639.09 564.07 627.97 576.77 618.31 562.98 608.48 577.52 600.08 564.03 589.17 577.38 579.7 563.43 568.43 576.88 559.18 563.66 548.8 577.37 538.98 563.97 528.18 576.54 521.83 564.45 520.7 565.04 527.92 578.81 538.9 566.03 548.79 579.52 559.14 565.83 568.34 578.98 579.6 565.55 589.08 579.51 599.94 566.23 608.43 579.88"/><polygon class="cls-11" points="528.12 564.62 529.72 565.25 524.08 570.76 522.8 569.91 528.12 564.62"/><polygon class="cls-5" points="574.84 581.13 582.32 580.62 582.52 562.53 575.23 562.4 574.84 581.13"/><polygon class="cls-5" points="675.66 565.77 381.19 565.77 380.61 561.79 676.11 562.23 675.66 565.77"/><polygon class="cls-13" points="523.66 563.29 507.45 563.34 507.45 578.96 523.92 578.98 523.66 563.29"/><polygon class="cls-6" points="516.31 559.25 514.57 559.14 514.45 559.42 516.32 559.55 516.31 559.25"/><path class="cls-6" d="M515.74,557.17a.69.69,0,0,0-.4-.1.24.24,0,0,0-.25.2l0,6,.54.18Z"/><path class="cls-6" d="M517.76,561.87c-.16-.88-1.87-.27-2.21-.33-.55-.08-2.18-.6-2.52-.08-.77,1.14.74,3.8.74,3.8l2,1.83S518.17,564,517.76,561.87Z"/><path class="cls-14" d="M523.19,567.37c0-1.74-3.78-1.29-5.67-2.2-1.43-.69-2.22-3.07-2.22-3.07-.58,3.13-2.45,3.49-5.35,3.77s-2.87,2.24-2.87,2.24l.22,9.68,15.83-.19S523.1,572.64,523.19,567.37Z"/><path class="cls-11" d="M523.19,569.16c0-1.74-3.78-1.29-5.67-2.2a4.78,4.78,0,0,1-2-2.68c-.6,2.17-2.66,3.1-5.56,3.38s-2.87,2.24-2.87,2.24l.22,9.68,15.83-.19S523.1,574.43,523.19,569.16Z"/><polygon class="cls-14" points="507.95 579.79 505.73 578.61 505.61 561.29 507.87 561.15 507.95 579.79"/><polygon class="cls-14" points="524.99 579.98 522.83 580.38 522.55 561.25 524.82 561.33 524.99 579.98"/><polygon class="cls-5" points="675.66 577.1 381.19 577.1 381.19 580.61 676.68 580.22 675.66 577.1"/><polygon class="cls-3" points="675.85 582.5 381.38 582.5 381.38 579.26 676.88 579.62 675.85 582.5"/><rect class="cls-15" x="332.6" y="520.99" width="51.21" height="37.9"/><polygon class="cls-5" points="357.56 469.59 335.88 541.5 378.7 538.62 357.56 469.59"/><polygon class="cls-16" points="379.86 697.05 332.94 698.35 333.49 537 378.7 536.51 379.86 697.05"/><path class="cls-5" d="M329.16,503.86c0,.77-6.91,30.34-6.91,30.34l15.6-.34Z"/><path class="cls-5" d="M385.17,503.67c0,.77,6.92,30.34,6.92,30.34l-15.61-.34Z"/><polygon class="cls-6" points="393.11 697.82 379.86 697.05 375.8 534.18 392.08 534.01 393.11 697.82"/><polygon class="cls-7" points="375.4 536.42 392.73 535.39 393.84 532.66 374.55 532.66 375.4 536.42"/><path class="cls-5" d="M357.39,468.89a1.75,1.75,0,0,0,.34,3.48,1.75,1.75,0,0,0-.34-3.48Z"/><polygon class="cls-5" points="357.9 451.15 357.15 451.79 357.12 471.33 358.22 471.38 357.9 451.15"/><polygon class="cls-5" points="359.26 452.75 355.47 452.64 355.59 453.59 359.31 453.66 359.26 452.75"/><path class="cls-5" d="M385,504.05a1.49,1.49,0,1,0,1.62,1.34A1.49,1.49,0,0,0,385,504.05Z"/><polygon class="cls-5" points="385.71 497.65 384.78 497.94 384.75 506.14 385.69 506.18 385.71 497.65"/><polygon class="cls-5" points="386.8 499.37 383.68 499.27 383.78 500.17 386.84 500.23 386.8 499.37"/><polygon class="cls-6" points="323.51 698.76 337.85 698.76 338.53 534.37 322.25 534.2 323.51 698.76"/><polygon class="cls-7" points="339.21 535.65 321.38 536.12 319.49 533 339.21 532.92 339.21 535.65"/><ellipse class="cls-5" cx="329.21" cy="505.73" rx="1.49" ry="1.48" transform="translate(-206.19 784.11) rotate(-84.41)"/><polygon class="cls-5" points="329.76 497.84 328.82 498.13 328.8 506.33 329.74 506.38 329.76 497.84"/><polygon class="cls-5" points="331.24 499.96 327.55 499.89 327.48 500.7 331.29 500.59 331.24 499.96"/><polygon class="cls-6" points="392.72 587.38 322.19 587.1 322.19 580.2 392.72 579.78 392.72 587.38"/><polygon class="cls-7" points="393.41 580.55 321.76 580.76 321.89 578.76 393.37 578.37 393.41 580.55"/><polygon class="cls-7" points="393.41 587.89 321.84 588.1 321.76 586.22 393.32 586.44 393.41 587.89"/><polygon class="cls-17" points="322.48 617.72 322.87 627.58 326.45 619.77 330.42 627.71 332.98 619.9 338.36 629.24 338.1 616.82 322.48 617.72"/><rect class="cls-17" x="337.42" y="617.74" width="40.33" height="4.22"/><polygon class="cls-6" points="392.81 648.28 322.82 648.19 322.74 641.71 392.84 641.34 392.81 648.28"/><polygon class="cls-7" points="393.07 642.01 322.14 642.35 321.93 640.25 393.03 640.57 393.07 642.01"/><polygon class="cls-7" points="393.37 649 321.88 649.26 322.4 647.08 393.16 647.41 393.37 649"/><polygon class="cls-8" points="342.6 594.5 343.22 607.48 370.45 607.95 370.64 596.23 342.6 594.5"/><polygon class="cls-8" points="341.06 554.75 342.02 571.08 372.18 570.69 372.67 554.6 341.06 554.75"/><polygon class="cls-16" points="365.65 550.91 348.98 552.04 348.75 568.77 350.99 569.11 350.26 553.06 363.34 552.83 363.73 569.92 366.03 570.5 365.65 550.91"/><polygon class="cls-16" points="348.56 592.58 349.71 609.68 353.98 609.01 353.72 593.39 359.61 593.52 359.74 608.5 366.22 609.1 365.07 589.9 348.56 592.58"/><path class="cls-17" d="M339.72,566.66c0,.87.77,7,.77,7l33,.52.58-7.49Z"/><path class="cls-18" d="M372,651.89l-28-.16c-.2.49.57,22.28.57,22.28h28.81Z"/><polygon class="cls-7" points="379.75 676.23 376.77 676.06 376.77 694.83 340.15 694.7 338.87 676.23 336.22 676.74 336.39 692.45 336.91 697.49 379.86 697.05 379.75 676.23"/><polygon class="cls-16" points="368.53 676.31 368.33 649.24 349.54 649.77 349.51 676.12 352.53 676.83 351.24 650.77 366.03 650.77 365.65 676.89 368.53 676.31"/><path class="cls-8" d="M358.84,679.31c-7.57-.15-4.86,14.59-4.86,14.59l11.26.51S366.41,679.45,358.84,679.31Z"/><polygon class="cls-10" points="398.53 726.16 319.15 726.11 317.36 692.69 399.3 692.49 398.53 726.16"/><polygon class="cls-8" points="342.97 627.32 343.22 637.57 371.52 637.57 370.62 626.3 342.97 627.32"/><polygon class="cls-16" points="348.98 624.25 349.37 638.46 351.42 639.23 350.9 624.89 362.81 625.53 362.43 638.72 365.25 638.85 365.12 622.59 348.98 624.25"/><polygon class="cls-16" points="372.75 534.78 369.5 534.56 368.33 521.91 363.37 521.91 356.71 506.38 349.8 521.91 346.06 521.91 345.6 533.11 341.45 533.24 341.06 547.46 372.94 548.03 372.75 534.78"/><polygon class="cls-18" points="348.77 527.88 349.45 542.91 366.01 543.36 366.01 527.8 348.77 527.88"/><polygon class="cls-16" points="361.57 543.85 360.63 524.64 352.78 524.13 353.55 545.04 354.89 544.96 354.51 526.33 359.61 526.18 359.95 542.74 361.57 543.85"/><polygon class="cls-17" points="376.43 540.09 338.18 539.58 338.38 547.84 376.21 548.22 376.43 540.09"/><polygon class="cls-3" points="316.42 724.84 316.85 728.09 401.09 728.47 400.84 724.84 316.42 724.84"/><polygon class="cls-17" points="335.03 674.52 335.29 678.11 382.35 677.47 382.35 673.63 335.03 674.52"/><polygon class="cls-17" points="393.16 617.72 392.77 627.58 389.19 619.77 385.22 627.71 382.66 619.9 377.28 629.24 377.54 616.82 393.16 617.72"/><rect class="cls-6" x="322.2" y="610.99" width="71.2" height="6.24"/><polygon class="cls-7" points="393.64 611.32 321.72 611.11 321.55 610.04 393.84 609.21 393.64 611.32"/><polygon class="cls-7" points="393.64 618.3 321.46 618.02 321.29 615.97 393.64 616.38 393.64 618.3"/><polygon class="cls-7" points="321.88 547.09 322.05 549.57 392.53 550.53 392.53 548.03 321.88 547.09"/><rect class="cls-15" x="639.92" y="520.38" width="51.21" height="37.9"/><polygon class="cls-5" points="664.88 468.98 643.2 540.89 686.03 538.01 664.88 468.98"/><polygon class="cls-16" points="691.34 702.73 639.87 705.04 640.81 536.39 686.03 535.9 691.34 702.73"/><path class="cls-5" d="M636.48,503.25c0,.77-6.91,30.34-6.91,30.34l15.6-.34Z"/><path class="cls-5" d="M692.49,503.06c0,.77,6.92,30.34,6.92,30.34l-15.6-.34Z"/><polygon class="cls-6" points="700.43 697.21 687.18 696.44 683.12 533.57 699.41 533.4 700.43 697.21"/><polygon class="cls-7" points="682.72 535.81 700.05 534.79 701.16 532.05 681.87 532.05 682.72 535.81"/><path class="cls-5" d="M664.71,468.28a1.75,1.75,0,1,0,1.9,1.57A1.74,1.74,0,0,0,664.71,468.28Z"/><polygon class="cls-5" points="665.23 450.54 664.47 451.18 664.44 470.72 665.54 470.77 665.23 450.54"/><polygon class="cls-5" points="666.58 452.15 662.79 452.03 662.91 452.99 666.63 453.05 666.58 452.15"/><path class="cls-5" d="M692.3,503.44a1.49,1.49,0,1,0,1.62,1.35A1.49,1.49,0,0,0,692.3,503.44Z"/><polygon class="cls-5" points="693.03 497.04 692.1 497.33 692.07 505.53 693.01 505.57 693.03 497.04"/><polygon class="cls-5" points="694.12 498.76 691 498.66 691.1 499.56 694.16 499.62 694.12 498.76"/><polygon class="cls-6" points="630.83 698.16 645.17 698.16 645.85 533.76 629.57 533.6 630.83 698.16"/><polygon class="cls-7" points="646.53 535.04 628.71 535.51 626.82 532.4 646.53 532.31 646.53 535.04"/><path class="cls-5" d="M636.67,503.64a1.49,1.49,0,1,1-1.62,1.34A1.48,1.48,0,0,1,636.67,503.64Z"/><polygon class="cls-5" points="637.08 497.23 636.14 497.53 636.12 505.72 637.06 505.76 637.08 497.23"/><polygon class="cls-5" points="638.56 499.36 634.87 499.28 634.8 500.09 638.61 499.98 638.56 499.36"/><polygon class="cls-6" points="700.04 586.77 629.51 586.49 629.51 579.59 700.04 579.17 700.04 586.77"/><polygon class="cls-7" points="700.73 579.94 629.08 580.15 629.21 578.15 700.69 577.76 700.73 579.94"/><polygon class="cls-7" points="700.73 587.28 629.16 587.49 629.08 585.62 700.65 585.83 700.73 587.28"/><polygon class="cls-17" points="629.8 617.11 630.19 626.97 633.77 619.16 637.74 627.1 640.3 619.29 645.68 628.63 645.42 616.22 629.8 617.11"/><rect class="cls-17" x="644.74" y="617.13" width="40.33" height="4.22"/><polygon class="cls-6" points="700.14 647.67 630.14 647.58 630.06 641.1 700.16 640.73 700.14 647.67"/><polygon class="cls-7" points="700.39 641.4 629.46 641.74 629.25 639.64 700.35 639.97 700.39 641.4"/><polygon class="cls-7" points="700.69 648.39 629.21 648.65 629.72 646.47 700.48 646.8 700.69 648.39"/><polygon class="cls-8" points="649.92 593.89 650.54 606.87 677.77 607.34 677.96 595.62 649.92 593.89"/><polygon class="cls-18" points="648.39 554.14 649.35 570.47 679.5 570.08 679.99 553.99 648.39 554.14"/><polygon class="cls-16" points="672.97 550.3 656.31 551.43 656.07 568.16 658.31 568.5 657.59 552.45 670.66 552.22 671.05 569.31 673.35 569.89 672.97 550.3"/><polygon class="cls-16" points="655.88 591.98 657.03 609.07 661.3 608.4 661.04 592.78 666.93 592.91 667.06 607.89 673.54 608.49 672.39 589.29 655.88 591.98"/><path class="cls-17" d="M647,566.05c0,.87.77,7,.77,7l33,.52.58-7.49Z"/><path class="cls-18" d="M679.3,651.29l-28-.17c-.2.49.57,22.28.57,22.28h28.81Z"/><polygon class="cls-7" points="687.08 675.62 684.09 675.45 683.02 693.8 648.71 693.03 646.19 675.62 643.54 676.13 643.72 691.84 644.23 696.88 687.18 696.44 687.08 675.62"/><polygon class="cls-16" points="675.85 675.7 675.66 648.63 656.86 649.16 656.84 675.51 659.85 676.22 658.57 650.16 673.35 650.16 672.97 676.28 675.85 675.7"/><path class="cls-8" d="M666.16,678.7c-7.57-.15-4.86,14.59-4.86,14.59l11.27.51S673.74,678.84,666.16,678.7Z"/><polygon class="cls-10" points="708.16 727.4 626.47 727.56 625.53 690.22 706.62 691.24 708.16 727.4"/><polygon class="cls-8" points="650.29 626.71 650.54 636.96 678.84 636.96 677.94 625.69 650.29 626.71"/><polygon class="cls-16" points="656.31 623.64 656.69 637.85 658.74 638.62 658.23 624.28 670.13 624.92 669.75 638.11 672.57 638.24 672.44 621.98 656.31 623.64"/><polygon class="cls-16" points="680.07 534.17 676.82 533.95 675.66 521.3 670.69 521.3 664.03 505.76 657.12 521.3 653.38 521.3 652.93 532.5 648.77 532.63 648.39 546.85 680.26 547.42 680.07 534.17"/><polygon class="cls-8" points="656.09 527.27 656.77 542.3 673.33 542.75 673.33 527.19 656.09 527.27"/><polygon class="cls-16" points="668.9 543.24 667.96 524.03 660.1 523.52 660.87 544.43 662.21 544.35 661.83 525.72 666.93 525.57 667.27 542.13 668.9 543.24"/><polygon class="cls-17" points="683.75 539.48 645.51 538.97 645.7 547.23 683.53 547.61 683.75 539.48"/><polygon class="cls-3" points="623.74 723.55 624.34 728.47 709.4 727.4 709.87 723.55 623.74 723.55"/><polygon class="cls-17" points="642.35 673.91 642.61 677.5 689.67 676.86 689.67 673.01 642.35 673.91"/><polygon class="cls-17" points="700.48 617.11 700.09 626.97 696.51 619.16 692.54 627.1 689.98 619.29 684.6 628.63 684.86 616.22 700.48 617.11"/><rect class="cls-6" x="629.52" y="610.38" width="71.2" height="6.24"/><polygon class="cls-7" points="700.97 610.71 629.04 610.5 628.87 609.43 701.16 608.6 700.97 610.71"/><polygon class="cls-7" points="700.97 617.69 628.78 617.41 628.61 615.36 700.97 615.77 700.97 617.69"/><polygon class="cls-7" points="629.21 546.48 629.38 548.96 699.85 549.92 699.85 547.42 629.21 546.48"/><path class="cls-5" d="M73.17,592.84c0,1.27-12.56,50-12.56,50l28.33-.57Z"/><polygon class="cls-6" points="62.9 715.57 88.94 715.57 90.18 642.88 60.61 642.81 62.9 715.57"/><polygon class="cls-7" points="91.42 644.25 59.05 644.72 58.73 641.69 91.42 641.52 91.42 644.25"/><path class="cls-5" d="M73.51,593.48a2.53,2.53,0,0,1,2.42,2.67A2.64,2.64,0,0,1,73,598.36a2.51,2.51,0,0,1-2.41-2.68A2.63,2.63,0,0,1,73.51,593.48Z"/><polygon class="cls-5" points="74.26 578.57 72.56 579.21 72.51 596.89 74.22 596.98 74.26 578.57"/><polygon class="cls-5" points="76.94 583.16 70.25 582.99 70.11 584.74 77.03 584.5 76.94 583.16"/><polygon class="cls-6" points="90.49 669.57 60.95 669.29 60.95 662.39 90.49 661.97 90.49 669.57"/><polygon class="cls-7" points="90.91 663.03 60.44 663.08 60.21 660.9 91.58 660.96 90.91 663.03"/><polygon class="cls-7" points="91.32 670.18 60.21 670.44 60.14 668.71 90.88 668.92 91.32 670.18"/><path class="cls-8" d="M75.18,676c-7.57-.15-4.86,14.59-4.86,14.59l11.26.52S82.75,676.19,75.18,676Z"/><polygon class="cls-9" points="71.17 644.39 71.22 646.88 78.69 646.37 78.7 645.14 71.17 644.39"/><polygon class="cls-8" points="66.15 647.23 66.31 659.21 70.19 659.21 70.01 646.97 66.15 647.23"/><polygon class="cls-8" points="84.21 659.21 83.65 646.03 80.18 646.27 80.24 659.21 84.21 659.21"/><polygon class="cls-8" points="71.22 646.88 71.46 659.21 78.48 659.21 78.69 646.37 71.22 646.88"/><polygon class="cls-10" points="98.58 726.89 57.26 727.06 55.58 690.03 97.81 689.19 98.58 726.89"/><polygon class="cls-3" points="55.88 722.88 56.18 728.01 99.48 728.47 99.45 722.88 55.88 722.88"/></svg>