<svg xmlns="http://www.w3.org/2000/svg" viewBox="0 0 1024 322.46"><defs><style>.cls-1{fill:#242a43;}.cls-2{fill:#29abe2;}.cls-3{fill:#a0a99e;}.cls-4{fill:#5f665b;}.cls-5{fill:#436b80;}.cls-6{fill:#e6ba8d;}.cls-7{fill:#9f7f6e;}.cls-8{fill:#745a4b;}.cls-9{fill:none;}.cls-10{fill:#bcbcad;}.cls-11{fill:#80a6a3;}.cls-12{fill:#ff7e5d;}.cls-13{fill:#6e8988;}.cls-14{fill:#b2ddcf;}.cls-15{fill:#2e535b;}.cls-16{fill:#cca180;}.cls-17{fill:#ffcf8f;}.cls-18{fill:#5e4940;}</style></defs><g id="Layer_2" data-name="Layer 2"><g id="Layer_1-2" data-name="Layer 1"><rect class="cls-1" y="276.46" width="1024" height="46"/><rect class="cls-2" x="211" y="268.46" width="601" height="52"/><polygon class="cls-3" points="820.8 244.69 828.66 244.69 828.89 227.28 821.98 227.55 820.8 244.69"/><path class="cls-4" d="M826.46,225.21c54,0,107.55-37.9,107.55-37.9l.77,2.31s-57.36,38.66-108.28,38.66c-45.87,0-120.39-71.95-129.91-95.13,0,0-.91-9.16-.13-7.46C715.33,166.83,790.36,225.21,826.46,225.21Z"/><path class="cls-4" d="M826.46,234.19c70.42,0,105.63-44.83,105.63-44.83l.77,2.3s-34.44,45.58-106.66,45.58c-73,0-120.09-75.28-129.61-98.45,0,0-.91-9.17-.13-7.47C715.33,172.46,761.16,234.19,826.46,234.19Z"/><polygon class="cls-4" points="721.35 177.51 721.07 239.7 718.4 240.14 718.76 174.27 721.35 177.51"/><polygon class="cls-4" points="744.22 200.93 743.92 242.06 741.81 242.25 741.23 199.24 744.22 200.93"/><path class="cls-4" d="M763.34,217.59l2.45.64-.25,23.35a4.54,4.54,0,0,0-1.79,0Z"/><polygon class="cls-4" points="904.6 213.3 904.9 242.31 907.01 242.45 907.59 212.11 904.6 213.3"/><path class="cls-4" d="M885.48,223.8l-2.45.48.25,17.49a6.11,6.11,0,0,1,1.79,0Z"/><path class="cls-4" d="M800.6,233.28l2.3,1v9.6h-2.3S800.21,233.66,800.6,233.28Z"/><path class="cls-4" d="M866.44,230.63l-2.3,1.07v10h2.3S866.83,231,866.44,230.63Z"/><path class="cls-4" d="M848.22,233.47l-2.3,1v9.6h2.3S848.6,233.85,848.22,233.47Z"/><path class="cls-3" d="M929.87,238.78l-293.17.8q0,2.91.09,5.82l293.31-.6Z"/><path class="cls-4" d="M930,244l-295.87.25.09,1.81,296-.19Z"/><path class="cls-4" d="M782.37,226l2.31,1.49v14h-2.31S782,226.58,782.37,226Z"/><path class="cls-5" d="M945.18,142.3c0,1.27,12.55,50,12.55,50l-28.32-.57Z"/><polygon class="cls-6" points="955.45 265.03 929.41 265.03 928.17 192.34 957.74 192.27 955.45 265.03"/><polygon class="cls-7" points="926.93 193.71 959.3 194.18 959.62 191.15 926.93 190.98 926.93 193.71"/><path class="cls-5" d="M944.83,142.94a2.51,2.51,0,0,0-2.41,2.67,2.64,2.64,0,0,0,2.94,2.21,2.51,2.51,0,0,0,2.41-2.68A2.63,2.63,0,0,0,944.83,142.94Z"/><polygon class="cls-5" points="944.09 128.03 945.79 128.67 945.84 146.35 944.13 146.44 944.09 128.03"/><polygon class="cls-5" points="941.41 132.62 948.1 132.45 948.24 134.2 941.32 133.96 941.41 132.62"/><polygon class="cls-6" points="927.86 219.03 957.4 218.75 957.4 211.85 927.86 211.43 927.86 219.03"/><polygon class="cls-7" points="927.44 212.49 957.91 212.53 958.14 210.36 926.77 210.42 927.44 212.49"/><polygon class="cls-7" points="927.03 219.64 958.14 219.9 958.21 218.17 927.47 218.38 927.03 219.64"/><path class="cls-8" d="M943.17,225.5c7.57-.15,4.86,14.59,4.86,14.59l-11.26.52S935.6,225.64,943.17,225.5Z"/><polygon class="cls-9" points="947.18 193.85 947.13 196.34 939.66 195.83 939.64 194.6 947.18 193.85"/><polygon class="cls-8" points="952.2 196.69 952.03 208.67 948.16 208.67 948.34 196.43 952.2 196.69"/><polygon class="cls-8" points="934.14 208.67 934.7 195.49 938.17 195.73 938.11 208.67 934.14 208.67"/><polygon class="cls-8" points="947.13 196.34 946.89 208.67 939.87 208.67 939.66 195.83 947.13 196.34"/><polygon class="cls-10" points="919.76 276.35 961.09 276.52 962.77 239.49 920.54 238.65 919.76 276.35"/><polygon class="cls-3" points="962.47 272.34 962.17 277.47 918.87 277.93 918.9 272.34 962.47 272.34"/><polygon class="cls-3" points="197.55 244.69 189.68 244.69 189.46 227.28 196.37 227.55 197.55 244.69"/><path class="cls-4" d="M191.89,225.21c-54,0-107.55-37.9-107.55-37.9l-.77,2.31s57.36,38.66,108.28,38.66c45.87,0,120.39-71.95,129.91-95.13,0,0,.9-9.16.13-7.46C303,166.83,228,225.21,191.89,225.21Z"/><path class="cls-4" d="M191.89,234.19c-70.42,0-105.63-44.83-105.63-44.83l-.77,2.3s34.44,45.58,106.65,45.58c73,0,120.1-75.28,129.62-98.45,0,0,.9-9.17.13-7.47C303,172.46,257.18,234.19,191.89,234.19Z"/><polygon class="cls-4" points="297 177.51 297.28 239.7 299.95 240.14 299.58 174.27 297 177.51"/><polygon class="cls-4" points="274.13 200.93 274.43 242.06 276.54 242.25 277.12 199.24 274.13 200.93"/><path class="cls-4" d="M255,217.59l-2.45.64.25,23.35a4.54,4.54,0,0,1,1.79,0Z"/><polygon class="cls-4" points="113.75 213.3 113.45 242.31 111.34 242.45 110.76 212.11 113.75 213.3"/><path class="cls-4" d="M132.87,223.8l2.45.48-.25,17.49a6.11,6.11,0,0,0-1.79,0Z"/><path class="cls-4" d="M217.75,233.28l-2.3,1v9.6h2.3S218.13,233.66,217.75,233.28Z"/><path class="cls-4" d="M151.91,230.63l2.3,1.07v10h-2.3S151.52,231,151.91,230.63Z"/><path class="cls-4" d="M170.13,233.47l2.3,1v9.6h-2.3S169.74,233.85,170.13,233.47Z"/><polygon class="cls-11" points="399.8 256.06 398.29 255.84 401.37 243.54 414.91 253.18 420.34 243.81 430.08 252.31 435.38 243.46 446.31 250.3 451.27 243.25 462.31 248.99 467.33 242.64 477.37 248.66 485.22 243.19 494.98 247.15 501.93 242.78 508.68 246.18 514.93 243.59 515.66 244.63 508.6 247.56 502.03 244.25 495.16 248.56 485.46 244.63 477.44 250.21 467.75 244.39 462.79 250.67 451.81 244.96 446.78 252.12 435.95 245.34 430.49 254.46 420.77 245.98 415.44 255.17 402.36 245.85 399.8 256.06"/><polygon class="cls-11" points="635.58 256.52 633.02 246.32 620.54 257.86 614.61 246.44 604.89 254.92 599.43 245.8 588.6 252.58 583.57 245.42 572.59 251.13 567.63 244.85 557.94 250.67 549.92 245.09 540.22 249.02 533.34 244.71 526.77 248.02 519.71 245.09 520.44 244.04 526.7 246.64 533.44 243.24 540.4 247.61 550.15 243.65 558.01 249.12 568.04 243.1 573.07 249.45 584.11 243.71 589.07 250.76 600 243.92 605.3 252.77 615.04 244.28 621.23 255.95 634.01 244 637.09 256.3 635.58 256.52"/><polygon class="cls-3" points="88.48 238.78 88.25 244.8 653.9 245.95 654.47 240.32 88.48 238.78"/><path class="cls-11" d="M384.19,257.53l-.12,2.66s99.14-11.35,139.68-11.35c52.24,0,106.65,14.91,106.65,14.91l2.43-4.05s-69.39-14.21-111.39-14.21C487.67,245.49,384.19,257.53,384.19,257.53Z"/><polygon class="cls-4" points="88.31 243.95 88.07 245.82 653.72 246.18 654.29 244.43 88.31 243.95"/><path class="cls-4" d="M236,226l-2.3,1.49v14H236S236.36,226.58,236,226Z"/><path class="cls-12" d="M479.69,97.44c1.13.38,2.49.35,3.43.91a3.4,3.4,0,0,1,.72.61c.42.42,0,2.82,0,2.82a.05.05,0,0,1-.07,0,5.92,5.92,0,0,0-1.56-1.3,4.28,4.28,0,0,0-2.32-.39,4.17,4.17,0,0,1-2.31-.39c-.35-.21-.41-.79-.52-1.06a11.74,11.74,0,0,1,.17-2.63C477.71,96.08,479,97.22,479.69,97.44Z"/><polygon class="cls-3" points="476.61 119.67 477.32 118.52 477.38 95.6 476.54 95.78 476.61 119.67"/><polygon class="cls-13" points="675.08 130.34 380.61 130.34 380.61 111.25 676.11 113.34 675.08 130.34"/><path class="cls-12" d="M557.16,97.44c1.13.38,2.49.35,3.44.91a4,4,0,0,1,.72.61c.41.42,0,2.82,0,2.82a.05.05,0,0,1-.07,0c-.13-.35-1.13-1-1.56-1.3a4.28,4.28,0,0,0-2.32-.39,4.17,4.17,0,0,1-2.31-.39c-.34-.21-.4-.79-.52-1.06a11.74,11.74,0,0,1,.17-2.63C555.18,96.08,556.51,97.22,557.16,97.44Z"/><polygon class="cls-3" points="554.09 119.67 554.79 118.52 554.85 95.6 554.02 95.78 554.09 119.67"/><polygon class="cls-11" points="412.7 129.34 402.81 114.69 393.28 128.3 381.09 114.37 382.05 113.53 393.16 126.23 402.83 112.44 412.66 126.98 421.06 113.49 431.97 126.83 441.44 112.89 452.71 126.34 461.95 113.12 472.34 126.83 482.16 113.43 492.96 126 499.31 113.91 500.44 114.5 493.21 128.27 482.24 115.49 472.35 128.98 461.99 115.29 452.8 128.44 441.54 115.01 432.06 128.97 421.2 115.69 412.7 129.34"/><polygon class="cls-11" points="422.88 129.34 412.99 114.69 403.45 128.3 391.27 114.37 392.23 113.53 403.34 126.23 413.01 112.44 422.84 126.98 431.24 113.49 442.14 126.83 451.61 112.89 462.89 126.34 472.13 113.12 482.51 126.83 492.34 113.43 503.13 126 509.48 113.91 510.62 114.5 503.39 128.27 492.42 115.49 482.53 128.98 472.17 115.29 462.98 128.44 451.72 115.01 442.24 128.97 431.38 115.69 422.88 129.34"/><polygon class="cls-11" points="503.19 114.08 501.6 114.71 507.24 120.22 508.51 119.38 503.19 114.08"/><polygon class="cls-5" points="456.48 130.59 449 130.08 448.8 111.99 456.09 111.86 456.48 130.59"/><polygon class="cls-11" points="618.61 129.34 628.5 114.69 638.04 128.3 650.23 114.37 649.27 113.53 638.15 126.23 628.48 112.44 618.66 126.98 610.26 113.49 599.35 126.83 589.88 112.89 578.61 126.34 569.36 113.12 558.98 126.83 549.15 113.43 538.36 126 532.01 113.91 530.88 114.5 538.1 128.27 549.07 115.49 558.96 128.98 569.32 115.29 578.51 128.44 589.77 115.01 599.25 128.97 610.12 115.69 618.61 129.34"/><polygon class="cls-11" points="608.43 129.34 618.33 114.69 627.86 128.3 640.05 114.37 639.09 113.53 627.97 126.23 618.31 112.44 608.48 126.98 600.08 113.49 589.17 126.83 579.7 112.89 568.43 126.34 559.18 113.12 548.8 126.83 538.98 113.43 528.18 126 521.83 113.91 520.7 114.5 527.92 128.27 538.9 115.49 548.79 128.98 559.14 115.29 568.34 128.44 579.6 115.01 589.08 128.97 599.94 115.69 608.43 129.34"/><polygon class="cls-11" points="528.12 114.08 529.72 114.71 524.08 120.22 522.8 119.38 528.12 114.08"/><polygon class="cls-5" points="574.84 130.59 582.32 130.08 582.52 111.99 575.23 111.86 574.84 130.59"/><polygon class="cls-5" points="675.66 115.23 381.19 115.23 380.61 111.25 676.11 111.69 675.66 115.23"/><polygon class="cls-13" points="523.66 112.75 507.45 112.8 507.45 128.42 523.92 128.44 523.66 112.75"/><polygon class="cls-6" points="516.31 108.71 514.57 108.61 514.45 108.88 516.32 109.01 516.31 108.71"/><path class="cls-6" d="M515.74,106.63a.69.69,0,0,0-.4-.1.24.24,0,0,0-.25.2l0,6,.54.18Z"/><path class="cls-6" d="M517.76,111.33c-.16-.88-1.87-.27-2.21-.33-.55-.08-2.18-.6-2.52-.08-.77,1.14.74,3.8.74,3.8l2,1.83S518.17,113.46,517.76,111.33Z"/><path class="cls-14" d="M523.19,116.83c0-1.74-3.78-1.29-5.67-2.2-1.43-.69-2.22-3.07-2.22-3.07-.58,3.13-2.45,3.49-5.35,3.77s-2.87,2.24-2.87,2.24l.22,9.68,15.83-.19S523.1,122.1,523.19,116.83Z"/><path class="cls-11" d="M523.19,118.62c0-1.74-3.78-1.29-5.67-2.2a4.78,4.78,0,0,1-2-2.68c-.6,2.17-2.66,3.1-5.56,3.38s-2.87,2.24-2.87,2.24l.22,9.68,15.83-.19S523.1,123.89,523.19,118.62Z"/><polygon class="cls-14" points="507.95 129.25 505.73 128.07 505.61 110.75 507.87 110.61 507.95 129.25"/><polygon class="cls-14" points="524.99 129.44 522.83 129.83 522.55 110.71 524.82 110.79 524.99 129.44"/><polygon class="cls-5" points="675.66 126.56 381.19 126.56 381.19 130.07 676.68 129.68 675.66 126.56"/><polygon class="cls-3" points="675.85 131.96 381.38 131.96 381.38 128.72 676.88 129.07 675.85 131.96"/><rect class="cls-15" x="332.6" y="70.45" width="51.21" height="37.9"/><polygon class="cls-5" points="357.56 19.05 335.88 90.96 378.7 88.08 357.56 19.05"/><polygon class="cls-16" points="379.86 246.51 332.94 247.81 333.49 86.46 378.7 85.97 379.86 246.51"/><path class="cls-5" d="M329.16,53.32c0,.77-6.91,30.34-6.91,30.34l15.6-.34Z"/><path class="cls-5" d="M385.17,53.13c0,.77,6.92,30.34,6.92,30.34l-15.61-.34Z"/><polygon class="cls-6" points="393.11 247.28 379.86 246.51 375.8 83.64 392.08 83.47 393.11 247.28"/><polygon class="cls-7" points="375.4 85.88 392.73 84.86 393.84 82.12 374.55 82.12 375.4 85.88"/><path class="cls-5" d="M357.39,18.35a1.75,1.75,0,0,0,.34,3.48,1.75,1.75,0,0,0-.34-3.48Z"/><polygon class="cls-5" points="357.9 0.61 357.15 1.25 357.12 20.79 358.22 20.84 357.9 0.61"/><polygon class="cls-5" points="359.26 2.21 355.47 2.1 355.59 3.05 359.31 3.12 359.26 2.21"/><path class="cls-5" d="M385,53.51a1.49,1.49,0,1,0,1.62,1.34A1.49,1.49,0,0,0,385,53.51Z"/><polygon class="cls-5" points="385.71 47.11 384.78 47.4 384.75 55.6 385.69 55.64 385.71 47.11"/><polygon class="cls-5" points="386.8 48.83 383.68 48.73 383.78 49.63 386.84 49.69 386.8 48.83"/><polygon class="cls-6" points="323.51 248.22 337.85 248.22 338.53 83.83 322.25 83.66 323.51 248.22"/><polygon class="cls-7" points="339.21 85.11 321.38 85.58 319.49 82.47 339.21 82.38 339.21 85.11"/><ellipse class="cls-5" cx="329.21" cy="55.19" rx="1.49" ry="1.48" transform="translate(242.21 377.45) rotate(-84.41)"/><polygon class="cls-5" points="329.76 47.3 328.82 47.59 328.8 55.79 329.74 55.83 329.76 47.3"/><polygon class="cls-5" points="331.24 49.42 327.55 49.35 327.48 50.16 331.29 50.05 331.24 49.42"/><polygon class="cls-6" points="392.72 136.84 322.19 136.56 322.19 129.66 392.72 129.24 392.72 136.84"/><polygon class="cls-7" points="393.41 130.01 321.76 130.22 321.89 128.22 393.37 127.83 393.41 130.01"/><polygon class="cls-7" points="393.41 137.35 321.84 137.56 321.76 135.68 393.32 135.9 393.41 137.35"/><polygon class="cls-17" points="322.48 167.18 322.87 177.04 326.45 169.23 330.42 177.17 332.98 169.36 338.36 178.7 338.1 166.28 322.48 167.18"/><rect class="cls-17" x="337.42" y="167.2" width="40.33" height="4.22"/><polygon class="cls-6" points="392.81 197.74 322.82 197.65 322.74 191.16 392.84 190.8 392.81 197.74"/><polygon class="cls-7" points="393.07 191.47 322.14 191.81 321.93 189.71 393.03 190.03 393.07 191.47"/><polygon class="cls-7" points="393.37 198.46 321.88 198.72 322.4 196.54 393.16 196.87 393.37 198.46"/><polygon class="cls-8" points="342.6 143.96 343.22 156.94 370.45 157.41 370.64 145.69 342.6 143.96"/><polygon class="cls-8" points="341.06 104.21 342.02 120.53 372.18 120.15 372.67 104.06 341.06 104.21"/><polygon class="cls-16" points="365.65 100.37 348.98 101.5 348.75 118.23 350.99 118.57 350.26 102.52 363.34 102.29 363.73 119.38 366.03 119.96 365.65 100.37"/><polygon class="cls-16" points="348.56 142.04 349.71 159.13 353.98 158.47 353.72 142.85 359.61 142.98 359.74 157.96 366.22 158.56 365.07 139.35 348.56 142.04"/><path class="cls-17" d="M339.72,116.12c0,.87.77,7,.77,7l33,.52.58-7.49Z"/><path class="cls-18" d="M372,201.35l-28-.16c-.2.49.57,22.28.57,22.28h28.81Z"/><polygon class="cls-7" points="379.75 225.69 376.77 225.52 376.77 244.29 340.15 244.16 338.87 225.69 336.22 226.2 336.39 241.91 336.91 246.94 379.86 246.51 379.75 225.69"/><polygon class="cls-16" points="368.53 225.77 368.33 198.69 349.54 199.23 349.51 225.58 352.53 226.29 351.24 200.23 366.03 200.23 365.65 226.35 368.53 225.77"/><path class="cls-8" d="M358.84,228.76c-7.57-.14-4.86,14.6-4.86,14.6l11.26.51S366.41,228.91,358.84,228.76Z"/><polygon class="cls-10" points="398.53 275.62 319.15 275.57 317.36 242.15 399.3 241.95 398.53 275.62"/><polygon class="cls-8" points="342.97 176.78 343.22 187.03 371.52 187.03 370.62 175.76 342.97 176.78"/><polygon class="cls-16" points="348.98 173.71 349.37 187.92 351.42 188.69 350.9 174.35 362.81 174.99 362.43 188.18 365.25 188.31 365.12 172.04 348.98 173.71"/><polygon class="cls-16" points="372.75 84.24 369.5 84.02 368.33 71.37 363.37 71.37 356.71 55.83 349.8 71.37 346.06 71.37 345.6 82.57 341.45 82.7 341.06 96.91 372.94 97.49 372.75 84.24"/><polygon class="cls-18" points="348.77 77.34 349.45 92.37 366.01 92.82 366.01 77.26 348.77 77.34"/><polygon class="cls-16" points="361.57 93.31 360.63 74.1 352.78 73.59 353.55 94.5 354.89 94.42 354.51 75.79 359.61 75.64 359.95 92.19 361.57 93.31"/><polygon class="cls-17" points="376.43 89.55 338.18 89.04 338.38 97.3 376.21 97.68 376.43 89.55"/><polygon class="cls-3" points="316.42 274.3 316.85 277.54 401.09 277.93 400.84 274.3 316.42 274.3"/><polygon class="cls-17" points="335.03 223.98 335.29 227.57 382.35 226.93 382.35 223.08 335.03 223.98"/><polygon class="cls-17" points="393.16 167.18 392.77 177.04 389.19 169.23 385.22 177.17 382.66 169.36 377.28 178.7 377.54 166.28 393.16 167.18"/><rect class="cls-6" x="322.2" y="160.45" width="71.2" height="6.24"/><polygon class="cls-7" points="393.64 160.78 321.72 160.56 321.55 159.5 393.84 158.67 393.64 160.78"/><polygon class="cls-7" points="393.64 167.76 321.46 167.48 321.29 165.43 393.64 165.84 393.64 167.76"/><polygon class="cls-7" points="321.88 96.55 322.05 99.03 392.53 99.99 392.53 97.49 321.88 96.55"/><rect class="cls-15" x="639.92" y="69.84" width="51.21" height="37.9"/><polygon class="cls-5" points="664.88 18.44 643.2 90.35 686.03 87.47 664.88 18.44"/><polygon class="cls-16" points="691.34 252.19 639.87 254.5 640.81 85.85 686.03 85.36 691.34 252.19"/><path class="cls-5" d="M636.48,52.71c0,.77-6.91,30.34-6.91,30.34l15.6-.34Z"/><path class="cls-5" d="M692.49,52.52c0,.77,6.92,30.34,6.92,30.34l-15.6-.34Z"/><polygon class="cls-6" points="700.43 246.67 687.18 245.9 683.12 83.03 699.41 82.86 700.43 246.67"/><polygon class="cls-7" points="682.72 85.27 700.05 84.25 701.16 81.51 681.87 81.51 682.72 85.27"/><path class="cls-5" d="M664.71,17.74a1.75,1.75,0,1,0,1.9,1.57A1.74,1.74,0,0,0,664.71,17.74Z"/><polygon class="cls-5" points="665.23 0 664.47 0.64 664.44 20.18 665.54 20.23 665.23 0"/><polygon class="cls-5" points="666.58 1.61 662.79 1.49 662.91 2.44 666.63 2.51 666.58 1.61"/><path class="cls-5" d="M692.3,52.9a1.49,1.49,0,1,0,1.62,1.34A1.49,1.49,0,0,0,692.3,52.9Z"/><polygon class="cls-5" points="693.03 46.5 692.1 46.79 692.07 54.99 693.01 55.03 693.03 46.5"/><polygon class="cls-5" points="694.12 48.22 691 48.12 691.1 49.02 694.16 49.08 694.12 48.22"/><polygon class="cls-6" points="630.83 247.62 645.17 247.62 645.85 83.22 629.57 83.05 630.83 247.62"/><polygon class="cls-7" points="646.53 84.5 628.71 84.97 626.82 81.86 646.53 81.77 646.53 84.5"/><path class="cls-5" d="M636.67,53.1a1.49,1.49,0,1,1-1.62,1.34A1.48,1.48,0,0,1,636.67,53.1Z"/><polygon class="cls-5" points="637.08 46.69 636.14 46.99 636.12 55.18 637.06 55.23 637.08 46.69"/><polygon class="cls-5" points="638.56 48.81 634.87 48.74 634.8 49.55 638.61 49.44 638.56 48.81"/><polygon class="cls-6" points="700.04 136.23 629.51 135.95 629.51 129.05 700.04 128.63 700.04 136.23"/><polygon class="cls-7" points="700.73 129.4 629.08 129.61 629.21 127.61 700.69 127.22 700.73 129.4"/><polygon class="cls-7" points="700.73 136.74 629.16 136.95 629.08 135.07 700.65 135.29 700.73 136.74"/><polygon class="cls-17" points="629.8 166.57 630.19 176.43 633.77 168.62 637.74 176.56 640.3 168.75 645.68 178.09 645.42 165.67 629.8 166.57"/><rect class="cls-17" x="644.74" y="166.59" width="40.33" height="4.22"/><polygon class="cls-6" points="700.14 197.13 630.14 197.04 630.06 190.56 700.16 190.19 700.14 197.13"/><polygon class="cls-7" points="700.39 190.86 629.46 191.19 629.25 189.1 700.35 189.42 700.39 190.86"/><polygon class="cls-7" points="700.69 197.85 629.21 198.11 629.72 195.93 700.48 196.26 700.69 197.85"/><polygon class="cls-8" points="649.92 143.35 650.54 156.33 677.77 156.8 677.96 145.08 649.92 143.35"/><polygon class="cls-18" points="648.39 103.6 649.35 119.93 679.5 119.54 679.99 103.45 648.39 103.6"/><polygon class="cls-16" points="672.97 99.76 656.31 100.89 656.07 117.62 658.31 117.96 657.59 101.91 670.66 101.68 671.05 118.77 673.35 119.35 672.97 99.76"/><polygon class="cls-16" points="655.88 141.43 657.03 158.53 661.3 157.86 661.04 142.24 666.93 142.37 667.06 157.35 673.54 157.95 672.39 138.75 655.88 141.43"/><path class="cls-17" d="M647,115.51c0,.87.77,7,.77,7l33,.52.58-7.49Z"/><path class="cls-18" d="M679.3,200.75l-28-.17c-.2.49.57,22.28.57,22.28h28.81Z"/><polygon class="cls-7" points="687.08 225.08 684.09 224.91 683.02 243.26 648.71 242.49 646.19 225.08 643.54 225.59 643.72 241.3 644.23 246.34 687.18 245.9 687.08 225.08"/><polygon class="cls-16" points="675.85 225.16 675.66 198.09 656.86 198.62 656.84 224.97 659.85 225.68 658.57 199.62 673.35 199.62 672.97 225.74 675.85 225.16"/><path class="cls-8" d="M666.16,228.16c-7.57-.15-4.86,14.59-4.86,14.59l11.27.51S673.74,228.3,666.16,228.16Z"/><polygon class="cls-10" points="708.16 276.86 626.47 277.02 625.53 239.68 706.62 240.7 708.16 276.86"/><polygon class="cls-8" points="650.29 176.17 650.54 186.42 678.84 186.42 677.94 175.15 650.29 176.17"/><polygon class="cls-16" points="656.31 173.1 656.69 187.31 658.74 188.08 658.23 173.74 670.13 174.38 669.75 187.57 672.57 187.7 672.44 171.44 656.31 173.1"/><polygon class="cls-16" points="680.07 83.63 676.82 83.41 675.66 70.76 670.69 70.76 664.03 55.23 657.12 70.76 653.38 70.76 652.93 81.96 648.77 82.09 648.39 96.31 680.26 96.88 680.07 83.63"/><polygon class="cls-8" points="656.09 76.73 656.77 91.76 673.33 92.21 673.33 76.65 656.09 76.73"/><polygon class="cls-16" points="668.9 92.7 667.96 73.49 660.1 72.98 660.87 93.89 662.21 93.81 661.83 75.18 666.93 75.03 667.27 91.59 668.9 92.7"/><polygon class="cls-17" points="683.75 88.94 645.51 88.43 645.7 96.69 683.53 97.07 683.75 88.94"/><polygon class="cls-3" points="623.74 273.01 624.34 277.93 709.4 276.86 709.87 273.01 623.74 273.01"/><polygon class="cls-17" points="642.35 223.37 642.61 226.96 689.67 226.32 689.67 222.47 642.35 223.37"/><polygon class="cls-17" points="700.48 166.57 700.09 176.43 696.51 168.62 692.54 176.56 689.98 168.75 684.6 178.09 684.86 165.67 700.48 166.57"/><rect class="cls-6" x="629.52" y="159.84" width="71.2" height="6.24"/><polygon class="cls-7" points="700.97 160.17 629.04 159.96 628.87 158.89 701.16 158.06 700.97 160.17"/><polygon class="cls-7" points="700.97 167.15 628.78 166.87 628.61 164.82 700.97 165.23 700.97 167.15"/><polygon class="cls-7" points="629.21 95.94 629.38 98.42 699.85 99.38 699.85 96.88 629.21 95.94"/><path class="cls-5" d="M73.17,142.3c0,1.27-12.56,50-12.56,50l28.33-.57Z"/><polygon class="cls-6" points="62.9 265.03 88.94 265.03 90.18 192.34 60.61 192.27 62.9 265.03"/><polygon class="cls-7" points="91.42 193.71 59.05 194.18 58.73 191.15 91.42 190.98 91.42 193.71"/><path class="cls-5" d="M73.51,142.94a2.52,2.52,0,0,1,2.42,2.67A2.64,2.64,0,0,1,73,147.82a2.51,2.51,0,0,1-2.41-2.68A2.63,2.63,0,0,1,73.51,142.94Z"/><polygon class="cls-5" points="74.26 128.03 72.56 128.67 72.51 146.35 74.22 146.44 74.26 128.03"/><polygon class="cls-5" points="76.94 132.62 70.25 132.45 70.11 134.2 77.03 133.96 76.94 132.62"/><polygon class="cls-6" points="90.49 219.03 60.95 218.75 60.95 211.85 90.49 211.43 90.49 219.03"/><polygon class="cls-7" points="90.91 212.49 60.44 212.53 60.21 210.36 91.58 210.42 90.91 212.49"/><polygon class="cls-7" points="91.32 219.64 60.21 219.9 60.14 218.17 90.88 218.38 91.32 219.64"/><path class="cls-8" d="M75.18,225.5c-7.57-.15-4.86,14.59-4.86,14.59l11.26.52S82.75,225.64,75.18,225.5Z"/><polygon class="cls-9" points="71.17 193.85 71.22 196.34 78.69 195.83 78.7 194.6 71.17 193.85"/><polygon class="cls-8" points="66.15 196.69 66.31 208.67 70.19 208.67 70.01 196.43 66.15 196.69"/><polygon class="cls-8" points="84.21 208.67 83.65 195.49 80.18 195.73 80.24 208.67 84.21 208.67"/><polygon class="cls-8" points="71.22 196.34 71.46 208.67 78.48 208.67 78.69 195.83 71.22 196.34"/><polygon class="cls-10" points="98.58 276.35 57.26 276.52 55.58 239.49 97.81 238.65 98.58 276.35"/><polygon class="cls-3" points="55.88 272.34 56.18 277.47 99.48 277.93 99.45 272.34 55.88 272.34"/></g></g></svg>