<svg xmlns="http://www.w3.org/2000/svg" viewBox="0 0 783.19 783.19"><defs><style>.cls-1{fill:gray;}</style></defs><g id="Layer_2" data-name="Layer 2"><g id="Capa_1" data-name="Capa 1"><path class="cls-1" d="M406.47,251.27,166.33,491.41l-11,99.71,99.7-11,240-240ZM250.4,470.05,393.62,326.83l26,26L276.42,496.07ZM406.47,251.27,166.33,491.41l-11,99.71,99.7-11,240-240ZM250.4,470.05,393.62,326.83l26,26L276.42,496.07ZM551.24,252.68l-.06-.05-57.39-57.4a22.07,22.07,0,0,0-31.22,0l-.06,0-29.89,29.89,88.67,88.67,29.89-29.89A22.08,22.08,0,0,0,551.24,252.68Zm0,0-.06-.05-57.39-57.4a22.07,22.07,0,0,0-31.22,0l-.06,0-29.89,29.89,88.67,88.67,29.89-29.89A22.08,22.08,0,0,0,551.24,252.68Zm-144.77-1.41L166.33,491.41l-11,99.71,99.7-11,240-240ZM250.4,470.05,393.62,326.83l26,26L276.42,496.07ZM406.47,251.27,166.33,491.41l-11,99.71,99.7-11,240-240ZM250.4,470.05,393.62,326.83l26,26L276.42,496.07ZM551.24,252.68l-.06-.05-57.39-57.4a22.07,22.07,0,0,0-31.22,0l-.06,0-29.89,29.89,88.67,88.67,29.89-29.89A22.08,22.08,0,0,0,551.24,252.68Zm0,0-.06-.05-57.39-57.4a22.07,22.07,0,0,0-31.22,0l-.06,0-29.89,29.89,88.67,88.67,29.89-29.89A22.08,22.08,0,0,0,551.24,252.68ZM166.33,491.41l-11,99.71,99.7-11,240-240-88.53-88.81Zm110.09,4.66-26-26L393.62,326.83l26,26ZM391.6,0C175.32,0,0,175.32,0,391.59s175.32,391.6,391.6,391.6,391.59-175.33,391.59-391.6S607.87,0,391.6,0ZM265.49,616,136.72,630.12l-2.21.18A18.39,18.39,0,0,1,116,612a19.05,19.05,0,0,1,.11-2.14l14.17-128.77a18.39,18.39,0,0,1,5.33-10.86L392.09,213.77l3.06-3.06,41.42-41.42a58.88,58.88,0,0,1,83.26-.08l.08.08,57.21,57.21a58.89,58.89,0,0,1,.09,83.26l-.09.08L276.34,610.62A18.34,18.34,0,0,1,265.49,616ZM649.6,630.3H355.26a18.4,18.4,0,0,1,0-36.79H649.6a18.4,18.4,0,1,1,0,36.79ZM551.24,252.68l-.06-.05-57.39-57.4a22.07,22.07,0,0,0-31.22,0l-.06,0-29.89,29.89,88.67,88.67,29.89-29.89A22.08,22.08,0,0,0,551.24,252.68ZM166.33,491.41l-11,99.71,99.7-11,240-240-88.53-88.81Zm110.09,4.66-26-26L393.62,326.83l26,26Zm130.05-244.8L166.33,491.41l-11,99.71,99.7-11,240-240ZM250.4,470.05,393.62,326.83l26,26L276.42,496.07ZM551.24,252.68l-.06-.05-57.39-57.4a22.07,22.07,0,0,0-31.22,0l-.06,0-29.89,29.89,88.67,88.67,29.89-29.89A22.08,22.08,0,0,0,551.24,252.68Zm0,0-.06-.05-57.39-57.4a22.07,22.07,0,0,0-31.22,0l-.06,0-29.89,29.89,88.67,88.67,29.89-29.89A22.08,22.08,0,0,0,551.24,252.68Zm-144.77-1.41L166.33,491.41l-11,99.71,99.7-11,240-240ZM250.4,470.05,393.62,326.83l26,26L276.42,496.07ZM406.47,251.27,166.33,491.41l-11,99.71,99.7-11,240-240ZM250.4,470.05,393.62,326.83l26,26L276.42,496.07ZM551.24,252.68l-.06-.05-57.39-57.4a22.07,22.07,0,0,0-31.22,0l-.06,0-29.89,29.89,88.67,88.67,29.89-29.89A22.08,22.08,0,0,0,551.24,252.68Zm-144.77-1.41L166.33,491.41l-11,99.71,99.7-11,240-240ZM250.4,470.05,393.62,326.83l26,26L276.42,496.07Z"/></g></g></svg>