<svg xmlns="http://www.w3.org/2000/svg" xmlns:xlink="http://www.w3.org/1999/xlink" viewBox="0 0 1920 755"><defs><style>.cls-1{fill:none;}.cls-2{fill:#242628;}.cls-3{clip-path:url(#clip-path);}.cls-4{fill:#a9c4c2;}.cls-5{fill:#2e535b;}.cls-6{fill:#80a6a3;}.cls-7{fill:#628195;}.cls-8{fill:#436b80;}.cls-9{clip-path:url(#clip-path-3);}.cls-10{fill:#bcbcad;}.cls-11{fill:#cecfc3;}.cls-12{fill:#f4f0d8;}.cls-13{fill:#48423b;}.cls-14{fill:#b9b3b0;}.cls-15{fill:#c4794d;}.cls-16{fill:#fffce7;}.cls-17{fill:#fff;}.cls-18{fill:#6d6e72;}.cls-19{clip-path:url(#clip-path-5);}.cls-20{fill:#bdb4b1;}.cls-21{fill:#686462;}.cls-22{fill:#eae3e2;}.cls-23{fill:#a6907f;}.cls-24{fill:#5c5655;}.cls-25{fill:#a79b98;}.cls-26{fill:#7d6859;}.cls-27{fill:#866d5d;}.cls-28{fill:#5a4740;}.cls-29{fill:#83807e;}.cls-30{fill:#ffd600;}.cls-31{fill:#ffbe00;}.cls-32{fill:#cc1003;}.cls-33{fill:#0d0406;}.cls-34{fill:#88867f;}.cls-35{clip-path:url(#clip-path-7);}.cls-36{fill:#29292c;}.cls-37{fill:#ec2e26;}.cls-38{fill:#333237;}.cls-39{fill:#3f3e40;}.cls-40{fill:#ff4c3c;}.cls-41{fill:#fc0;}.cls-42{fill:#ff4929;}.cls-43{fill:#0071bc;}</style><clipPath id="clip-path" transform="translate(0 0)"><rect class="cls-1" x="1022" y="139" width="193.12" height="239.41"/></clipPath><clipPath id="clip-path-3" transform="translate(0 0)"><rect class="cls-1" x="1557" y="76" width="145.39" height="304.99"/></clipPath><clipPath id="clip-path-5" transform="translate(0 0)"><rect class="cls-1" x="236.83" width="231.33" height="380.89"/></clipPath><clipPath id="clip-path-7" transform="translate(0 0)"><rect class="cls-1" x="1260" y="329.56" width="72" height="48.02"/></clipPath></defs><g id="Layer_2" data-name="Layer 2"><g id="Layer_2-2" data-name="Layer 2"><rect class="cls-2" y="368" width="1920" height="387"/><g id="London_Eye" data-name="London Eye"><g class="cls-3"><polygon class="cls-4" points="1114.3 372.51 1122.81 372.51 1121.24 236.57 1116.48 235.88 1114.3 372.51"/><g class="cls-3"><path class="cls-5" d="M1128.82,146.63a7.63,7.63,0,1,1-7.63-7.63,7.63,7.63,0,0,1,7.63,7.63" transform="translate(0 0)"/><path class="cls-5" d="M1126.54,327.75a7.64,7.64,0,1,1-7.64-7.64,7.64,7.64,0,0,1,7.64,7.64" transform="translate(0 0)"/><path class="cls-5" d="M1205.14,244.3a7.64,7.64,0,1,1,7.63-7.64,7.63,7.63,0,0,1-7.63,7.64" transform="translate(0 0)"/><path class="cls-5" d="M1029.63,243.82a7.63,7.63,0,1,1,7.64-7.63,7.64,7.64,0,0,1-7.64,7.63" transform="translate(0 0)"/><path class="cls-5" d="M1188.23,182a7.63,7.63,0,1,1,0-10.79,7.62,7.62,0,0,1,0,10.79" transform="translate(0 0)"/><path class="cls-5" d="M1062.94,306a7.64,7.64,0,1,1,0-10.8,7.64,7.64,0,0,1,0,10.8" transform="translate(0 0)"/><path class="cls-5" d="M1178.58,300.69a7.63,7.63,0,1,1,10.79,0,7.64,7.64,0,0,1-10.79,0" transform="translate(0 0)"/><path class="cls-5" d="M1050.87,178.67a7.64,7.64,0,1,1,10.8,0,7.64,7.64,0,0,1-10.8,0" transform="translate(0 0)"/><path class="cls-5" d="M1163.52,159.35a7.63,7.63,0,1,1-4-10,7.64,7.64,0,0,1,4,10" transform="translate(0 0)"/><path class="cls-5" d="M1091.24,322.54a7.63,7.63,0,1,1-4-10.05,7.63,7.63,0,0,1,4,10.05" transform="translate(0 0)"/><path class="cls-5" d="M1196.66,276a7.63,7.63,0,1,1,10-4,7.62,7.62,0,0,1-10,4" transform="translate(0 0)"/><path class="cls-5" d="M1034.84,208a7.63,7.63,0,1,1,10.05-4,7.63,7.63,0,0,1-10.05,4" transform="translate(0 0)"/><path class="cls-5" d="M1203.36,215.29a7.63,7.63,0,1,1,4.31-9.9,7.64,7.64,0,0,1-4.31,9.9" transform="translate(0 0)"/><path class="cls-5" d="M1038.58,277.09a7.63,7.63,0,1,1,4.31-9.9,7.65,7.65,0,0,1-4.31,9.9" transform="translate(0 0)"/><path class="cls-5" d="M1150.28,319.53a7.63,7.63,0,1,1,9.89,4.31,7.62,7.62,0,0,1-9.89-4.31" transform="translate(0 0)"/><path class="cls-5" d="M1081.51,155.61a7.63,7.63,0,1,1,9.9,4.3,7.64,7.64,0,0,1-9.9-4.3" transform="translate(0 0)"/><path class="cls-6" d="M1119.21,321.6l-15.29-18.35-19.42,12.53L1083,295.37l-20.75,4.81.3-24.78-22-4,12.3-20.3L1033.91,238l18.38-16.53-10.44-17.8,23.15-8.06-4.65-21.44,23.15,2.7,5.83-21.45,17,12.38,13-16.93,14.53,18.35,21.2-9.19.41,19.93,23.26-1.51-4.3,21.18,21.21,7.38-12.55,17.45,17.53,13.84-16.87,10.42L1195,265.13l-19.21,6.51,1.84,23.66-21.37-3.36-4.88,20.43-19-9.19Zm-14.75-21.9,14.59,17.5,12.5-17.43,18,8.73,5.14-18.73,20,2.34L1173,269.76l17.84-6L1180,247.89l16-9.89-15.76-13.46,11.17-16.2-20-7,4.07-20-21.71.68-.9-19.12-19.76,9.74-13.38-18.45-12.77,17.18L1090.86,160l-5.37,19.78-21.71-2.54,4.36,20.1-22.31,7.76,9.88,16.87-17.47,15.73,18.16,12.6-11.59,19.13,20.41,3.74-.29,23.62L1085.4,292l1.44,19Z" transform="translate(0 0)"/><path class="cls-5" d="M1117.49,150.55c-46.45,0-84.1,38.54-84.1,86.09s37.65,86.09,84.1,86.09,84.1-38.54,84.1-86.09-37.65-86.09-84.1-86.09m0,164.42c-42.67,0-77.25-35.85-77.25-80.07s34.58-80.07,77.25-80.07,77.25,35.85,77.25,80.07S1160.15,315,1117.49,315" transform="translate(0 0)"/><polygon class="cls-4" points="1163.2 329.86 1167.38 329.56 1166.64 347.04 1175.15 346.74 1175.15 321.79 1178.88 321.19 1179.48 346.88 1189.34 347.33 1190.99 314.02 1193.38 314.32 1193.08 349.28 1162.01 349.28 1163.2 329.86"/><polygon class="cls-4" points="1072.52 329.56 1068.34 329.26 1069.09 346.74 1060.57 346.44 1060.57 321.49 1056.84 320.89 1056.24 346.59 1046.38 347.04 1044.74 313.72 1042.35 314.02 1042.65 348.98 1073.72 348.98 1072.52 329.56"/><path class="cls-6" d="M1117.49,168.29c-36.88,0-66.78,30.6-66.78,68.35s29.9,68.35,66.78,68.35,66.78-30.6,66.78-68.35-29.9-68.35-66.78-68.35M1118.57,301c-34.41,0-62.3-29.14-62.3-65.08s27.89-65.09,62.3-65.09S1180.86,200,1180.86,236,1153,301,1118.57,301" transform="translate(0 0)"/><path class="cls-4" d="M1117.14,223.2c-6.08,0-11,5.75-11,12.86s4.93,12.86,11,12.86,11-5.76,11-12.86-4.93-12.86-11-12.86" transform="translate(0 0)"/><path class="cls-7" d="M1119.5,235.88s11.79,27.92,15.09,40.79c4.46,17.33,23.57,94.56,24,95.91l-8.08-2.39s-20-81.56-23.67-95.91-10.34-37.64-10.34-37.64Z" transform="translate(0 0)"/><path class="cls-6" d="M1047.73,303.27l-9.27,10.15s10.46,7.92,18.68,13.75c4.78,3.39,20.16,11.95,20.16,11.95l3.89-9.86s-9.11-5.53-18.08-12.25c-11-8.23-15.38-13.74-15.38-13.74" transform="translate(0 0)"/><path class="cls-7" d="M1116.48,235.88s-11.74,27.92-15,40.79c-4.46,17.33-23.72,94.86-24.13,96.21l8.19-2.69s20-81.56,23.68-95.91,10.34-37.64,10.34-37.64Z" transform="translate(0 0)"/><path class="cls-6" d="M1117.14,227.61a7.4,7.4,0,1,0,7.24,7.39,7.31,7.31,0,0,0-7.24-7.39" transform="translate(0 0)"/><path class="cls-6" d="M1188.45,301.77s-9.59,7.9-17.48,13.6a93.12,93.12,0,0,1-17.78,10l6.28,11.66s13.28-7.29,21.06-12.4a117.41,117.41,0,0,0,17.33-14Z" transform="translate(0 0)"/><polygon class="cls-8" points="1046.4 377.51 1038.27 377.51 1038.27 351.52 1044.55 351.52 1046.4 377.51"/><polygon class="cls-8" points="1075.02 377.51 1070.15 377.96 1068.74 351.52 1075.02 351.52 1075.02 377.51"/><polygon class="cls-8" points="1108.24 373.92 1100.11 373.93 1100.11 347.93 1106.39 347.93 1108.24 373.92"/><polygon class="cls-8" points="1136.86 373.93 1132 374.37 1130.59 347.93 1136.86 347.93 1136.86 373.93"/><polygon class="cls-8" points="1193.39 373.03 1200.05 373.93 1200.05 347.93 1193.77 347.93 1193.39 373.03"/><polygon class="cls-8" points="1163.3 373.93 1170.31 374.82 1169.57 347.93 1163.3 347.93 1163.3 373.93"/><path class="cls-8" d="M1032.44,368.55c.45,1.34-.6,9.41-.6,9.41l176.3.45,1.34-12.55Z" transform="translate(0 0)"/><polygon class="cls-8" points="1214.68 352.56 1027.13 352.11 1026.46 346.29 1215.12 345.84 1214.68 352.56"/></g></g></g><g id="Random_Building" data-name="Random Building"><g class="cls-9"><polygon class="cls-10" points="1672.32 339.76 1582.62 338.78 1585.96 160.97 1669.08 160.97 1672.32 339.76"/><polygon class="cls-11" points="1683.26 237.56 1572.07 239.91 1569.78 182.16 1684.7 182.16 1683.26 237.56"/><polygon class="cls-12" points="1686.76 186.8 1566.64 186.8 1566.99 177.18 1687.75 178.35 1686.76 186.8"/><polygon class="cls-12" points="1685.72 222.76 1568.99 222.76 1568.6 239.04 1686.63 241 1685.72 222.76"/><polygon class="cls-13" points="1680.59 218.85 1572.89 218.85 1573.83 190.66 1681.16 191.23 1680.59 218.85"/><polygon class="cls-11" points="1632.37 113.99 1622.88 113.83 1622.34 92.84 1632.91 92.84 1632.37 113.99"/><g class="cls-9"><path class="cls-12" d="M1629.05,80.13c0,.89-.68,1.31-1.53,1.31S1626,81,1626,80.13a2.06,2.06,0,0,1,1.58-1.8c.68,0,1.47.91,1.47,1.8" transform="translate(0 0)"/><path class="cls-12" d="M1628.06,77c-.07-.51-.25-1.06-.55-1s-.44,1-.44,1l0,8.78,1.36-.21s-.2-7.64-.33-8.57" transform="translate(0 0)"/><polygon class="cls-12" points="1637.38 120.3 1618.62 120.19 1617.96 112.76 1638.15 112.47 1637.38 120.3"/><polygon class="cls-13" points="1630.32 107.69 1625.28 107.69 1624.85 95.93 1630.7 95.76 1630.32 107.69"/><path class="cls-14" d="M1634.54,93.5H1621.2s.55-9.93,6.35-9.93c6.76,0,7,9.93,7,9.93" transform="translate(0 0)"/><rect class="cls-14" x="1627.36" y="84.81" width="0.49" height="0.24"/><path class="cls-14" d="M1668.52,148.89c0-10.2-8.73-23.61-26.32-31.53-2.6-1.17-8.21-1.43-13.72-1.43a78.53,78.53,0,0,0-12.85.91c-18.81,4.42-28.14,20.15-28.14,29.07v11.71h81Z" transform="translate(0 0)"/><polygon class="cls-13" points="1588.4 166.21 1589.27 172.29 1666.04 172.47 1666.57 168.04 1588.4 166.21"/><rect class="cls-12" x="1584.36" y="157.36" width="87.55" height="6.51"/><polygon class="cls-11" points="1611.72 219.21 1598.65 219.96 1599.99 190.01 1610.57 190.14 1611.72 219.21"/><polygon class="cls-11" points="1657.05 221.12 1645.61 221.58 1644.16 189.23 1657.32 189.45 1657.05 221.12"/><polygon class="cls-11" points="1620.18 218.99 1624.09 218.99 1624.09 188.67 1621.31 188.8 1620.18 218.99"/><polygon class="cls-11" points="1632.69 220 1635.95 218.76 1635.95 189.12 1632.3 189.12 1632.69 220"/><polygon class="cls-11" points="1578.5 221.06 1582.4 221.06 1582.4 187.32 1579.62 187.46 1578.5 221.06"/><polygon class="cls-11" points="1589.7 222.63 1592.96 221.23 1592.96 187.77 1589.31 187.77 1589.7 222.63"/><polygon class="cls-11" points="1664.74 218.99 1668.62 218.99 1668.62 188.67 1665.86 188.8 1664.74 218.99"/><polygon class="cls-11" points="1674.28 220 1677.51 218.76 1677.51 189.12 1673.89 189.12 1674.28 220"/><path class="cls-15" d="M1646.72,190.66c.19.59,1.21,25.71,1.21,25.71l6.52.39.86-26.29Z" transform="translate(0 0)"/><polygon class="cls-12" points="1698.48 235.07 1559.42 235.07 1561.44 304.11 1696.73 306.31 1698.48 235.07"/><polygon class="cls-14" points="1563.6 377.64 1694.93 379.2 1696.6 311.43 1561.66 311.43 1563.6 377.64"/><polygon class="cls-16" points="1699.85 306.37 1696.73 306.31 1561.44 304.11 1558.72 304.06 1559.75 311.43 1561.66 311.43 1696.6 311.43 1698.58 311.43 1699.85 306.37"/><polygon class="cls-15" points="1601.95 190.97 1601.58 216.65 1608.22 216.46 1608.61 191.05 1601.95 190.97"/><rect class="cls-16" x="1592.91" y="252.95" width="10.16" height="125.86"/><polygon class="cls-16" points="1700.83 233.7 1558.3 233.44 1558.3 246.86 1599.99 250.11 1629.96 234.22 1665.28 246.74 1700.18 249.07 1700.83 233.7"/><rect class="cls-13" x="1620.58" y="262.4" width="20.32" height="32.01"/><polygon class="cls-13" points="1571.59 265.75 1572.63 298.58 1587.22 298.84 1587.75 266.01 1571.59 265.75"/><polygon class="cls-16" points="1667.96 378.81 1660.54 377.25 1657.8 252.95 1667.96 252.95 1667.96 378.81"/><path class="cls-13" d="M1571.59,331.55l1.46,28.92,14.26-.78.7-27.55c0-4.29-1.28-12-7.56-12-5.25,0-8.86,4.11-8.86,11.42" transform="translate(0 0)"/><polygon class="cls-13" points="1642.85 374.23 1620.26 374.23 1620.06 324.24 1642.85 323.35 1642.85 374.23"/><polygon class="cls-11" points="1701.48 254.93 1558.17 253.89 1558.89 249.66 1701.87 250.24 1701.48 254.93"/><polygon class="cls-17" points="1612.43 375.57 1607.63 375.32 1605.79 316.34 1612.43 316.34 1612.43 375.57"/><polygon class="cls-17" points="1657.18 375.57 1652.38 375.32 1651.8 316.5 1657.18 316.34 1657.18 375.57"/><polygon class="cls-17" points="1648.72 375.44 1642.87 375.32 1642.29 316.5 1647.67 316.34 1648.72 375.44"/><polygon class="cls-17" points="1622.3 374.64 1615.72 375.29 1615.72 316.01 1622.3 315.4 1622.3 374.64"/><path class="cls-17" d="M1632.3,294.93c-22.83,0-29.74,14.82-29.74,14.82l55.89-.78s-7.13-14-26.15-14" transform="translate(0 0)"/><polygon class="cls-18" points="1702.02 247.13 1665.28 246.74 1630.11 231.88 1599.21 245.94 1557.26 245.16 1557 249.85 1599.99 250.11 1630.11 235.8 1664.35 250.11 1702.39 250.63 1702.02 247.13"/><polygon class="cls-11" points="1602.08 311.61 1602.34 319.68 1661.22 318.12 1661.74 311.35 1602.08 311.61"/><polygon class="cls-18" points="1561.4 372.96 1699.28 373.17 1700.45 380.99 1559.76 380.99 1561.4 372.96"/><polygon class="cls-18" points="1599.99 307.96 1599.99 313.95 1663.31 313.17 1663.31 308.48 1599.99 307.96"/><path class="cls-11" d="M1609.63,273.68l.56,17.08,6-.35L1616,274c0-2.53-.49-7.09-2.91-7.09-2,0-3.16,3.26-3.42,6.75" transform="translate(0 0)"/><path class="cls-11" d="M1646.37,273.68l.56,17.08,6-.35L1652.7,274c0-2.53-.49-7.09-2.91-7.09-2,0-3.16,3.26-3.42,6.75" transform="translate(0 0)"/><polygon class="cls-17" points="1580.32 257.28 1568.46 265.75 1590.87 266.01 1580.32 257.28"/><path class="cls-11" d="M1609.63,273.68l.56,17.08,6-.35L1616,274c0-2.53-.49-7.09-2.91-7.09-2,0-3.16,3.26-3.42,6.75" transform="translate(0 0)"/><polygon class="cls-13" points="1672.43 265.75 1673.47 298.58 1688.06 298.84 1688.58 266.01 1672.43 265.75"/><path class="cls-13" d="M1672.43,331.55l1.45,28.92,14.07-.19.89-28.14c0-4.29-1.28-12-7.55-12-5.26,0-8.86,4.11-8.86,11.42" transform="translate(0 0)"/><polygon class="cls-17" points="1681.16 257.28 1669.3 265.75 1691.71 266.01 1681.16 257.28"/><polygon class="cls-10" points="1661.35 166.8 1659.92 166.8 1659.66 173.42 1655.84 173.42 1655.3 166.41 1654.19 166.41 1653.58 173.25 1649.69 173.12 1649.15 166.22 1647.5 166.04 1647.48 172.99 1643.16 173.51 1642.81 166.56 1640.38 165.87 1640.64 173.51 1636.21 173.42 1635.95 166.39 1634.13 166.13 1633.6 173.42 1629.43 173.16 1628.91 166.13 1627.26 166.22 1627.09 173.16 1621.62 172.99 1621.79 166.04 1619.66 165.82 1619.45 173.6 1615.02 173.42 1614.15 165.78 1612.41 165.43 1612.85 173.86 1608.07 173.25 1607.55 166.13 1606.12 165.76 1605.98 173.31 1600.71 173.31 1600.77 165.87 1597.99 165.43 1597.91 173.51 1594.19 173.18 1594 165.26 1592.17 165.26 1592.26 174.55 1661.31 175.77 1661.48 173.6 1661.35 166.8"/></g></g></g><g id="Westminster_Abbey" data-name="Westminster Abbey"><g class="cls-19"><polygon class="cls-20" points="460.2 377.58 245.82 376.9 242.56 178.71 458.47 179.42 460.2 377.58"/><g class="cls-19"><path class="cls-21" d="M374,297.46H324.18V231.77c0-10.17,19.26-33.2,24-33.2,5.7,0,25.87,19.47,25.87,33.2Z" transform="translate(0 0)"/><polygon class="cls-20" points="339.35 287.99 341.88 287.55 341.12 198.82 338.19 199.69 339.35 287.99"/><polygon class="cls-20" points="357.07 287.5 359.38 287.83 359.38 201.64 356.27 200.66 357.07 287.5"/><path class="cls-20" d="M367.94,211.89c-2.85,1.62-7.88,7.8-11.2,16.16l2.75.11s3-10.13,10.17-14.76c0,0-1.49-1.64-1.72-1.51" transform="translate(0 0)"/><path class="cls-20" d="M330,211.89c2.85,1.62,7.87,7.8,11.2,16.16l-2.75.11s-3-10.13-10.18-14.76c0,0,1.5-1.64,1.73-1.51" transform="translate(0 0)"/><polygon class="cls-20" points="376.84 229.32 323.71 229.62 323.71 228.28 376.84 228.08 376.84 229.32"/><polygon class="cls-20" points="376.46 252.22 323.21 251.65 323.21 253.19 376.46 253.59 376.46 252.22"/><polygon class="cls-20" points="376.84 270.21 323.71 270.5 323.71 269.18 376.84 268.98 376.84 270.21"/><polygon class="cls-20" points="376.84 233.65 323.71 233.95 323.71 232.61 376.84 232.41 376.84 233.65"/><path class="cls-13" d="M266.41,149.75a17.44,17.44,0,1,1,17.44,17.44,17.44,17.44,0,0,1-17.44-17.44" transform="translate(0 0)"/><polygon class="cls-20" points="350.96 118.07 350.05 118.07 350.05 105.14 350.86 104.83 350.96 118.07"/><polygon class="cls-20" points="352.73 107.4 348.12 107.63 348.11 106.59 352.8 106.71 352.73 107.4"/><path class="cls-20" d="M348,113.52A2.49,2.49,0,1,1,350.5,116a2.49,2.49,0,0,1-2.49-2.49" transform="translate(0 0)"/><rect class="cls-20" x="251.55" y="46.48" width="64.86" height="328.1"/><polygon class="cls-22" points="310.34 296.97 386.73 294.44 387.75 286.69 310.34 285.63 310.34 296.97"/><polygon class="cls-20" points="350.49 116.69 320.29 159.98 382.21 159.98 350.49 116.69"/><polygon class="cls-23" points="387.81 378.02 310.27 378.02 310.27 291.3 388.04 291.86 387.81 378.02"/><path class="cls-24" d="M357.88,164.69H344.24V147.61c0-5.59,5.09-13.11,6.38-13.11,1.56,0,7.26,7.2,7.26,13.11Z" transform="translate(0 0)"/><polygon class="cls-20" points="259.28 48.3 313.93 48.3 312.01 30.49 259.15 31.3 259.28 48.3"/><polygon class="cls-25" points="262.12 41.1 307.21 40.77 307.63 33.55 262.12 33.39 262.12 41.1"/><polygon class="cls-20" points="265.77 41.43 264.87 41.31 264.37 32.24 265.77 32.24 265.77 41.43"/><polygon class="cls-20" points="283.27 41.43 281.87 41.43 282.38 32.44 283.27 32.24 283.27 41.43"/><polygon class="cls-20" points="274.52 41.49 273.12 41.49 273.12 32.29 274.01 32.24 274.52 41.49"/><polygon class="cls-20" points="287.64 41.43 286.24 41.43 286.24 32.24 287.29 32.24 287.64 41.43"/><polygon class="cls-20" points="292.01 41.43 291.1 41.27 290.62 32.24 292.01 32.24 292.01 41.43"/><polygon class="cls-20" points="270.15 41.43 268.75 41.43 268.75 32.24 269.51 32.37 270.15 41.43"/><polygon class="cls-20" points="278.89 41.43 277.49 41.43 278.11 32.4 278.89 32.24 278.89 41.43"/><polygon class="cls-20" points="296.39 41.43 295.48 41.31 294.99 32.24 296.39 32.24 296.39 41.43"/><polygon class="cls-20" points="305.13 41.49 303.74 41.49 303.74 32.29 304.63 32.24 305.13 41.49"/><polygon class="cls-20" points="300.76 41.43 299.36 41.43 299.36 32.24 300.12 32.37 300.76 41.43"/><polygon class="cls-20" points="318.65 184.53 388.54 184.53 386.09 161.76 319.1 160.68 318.65 184.53"/><polygon class="cls-22" points="320.46 190.77 305.09 190.77 305.09 45.88 323.19 46.41 320.46 190.77"/><polygon class="cls-22" points="264.03 190.77 248.65 190.77 244.79 46.41 264.03 45.88 264.03 190.77"/><path class="cls-26" d="M367.39,377.35H330.82V339.16c0-11.55,14-19.3,18.66-19.3,4.19,0,17.91,7.75,17.91,19.3Z" transform="translate(0 0)"/><polygon class="cls-27" points="321.55 313.34 381.59 312.69 381.79 296.52 321.55 296.16 321.55 313.34"/><path class="cls-28" d="M357,378H341.2V348.68c0-8,5.27-14.82,7.6-14.82,1.81,0,8.21,5.14,8.21,14.82Z" transform="translate(0 0)"/><rect class="cls-22" x="301.47" y="193.68" width="17.75" height="182.27"/><path class="cls-29" d="M296.73,230H273.09V209.64c0-4.84,8.82-11.57,11.06-11.57,2.7,0,12.16,5.8,12.58,11.57Z" transform="translate(0 0)"/><path class="cls-24" d="M280.83,228.43h-5.54V212.69c0-3.73,2.21-6.12,2.74-6.12s2.8,1.84,2.8,6.12Z" transform="translate(0 0)"/><path class="cls-24" d="M288.06,228.43h-5.54V212.69c0-3.73,2.21-6.12,2.74-6.12s2.8,1.84,2.8,6.12Z" transform="translate(0 0)"/><path class="cls-24" d="M295.29,228.43h-5.54V212.69c0-3.73,2.21-6.12,2.74-6.12s2.8,1.84,2.8,6.12Z" transform="translate(0 0)"/><path class="cls-29" d="M296.73,345.28l-24.55.52.91-37.11c0-8.69,8.09-20.78,10.33-20.78,2.7,0,13.31,10.83,13.31,20.78Z" transform="translate(0 0)"/><path class="cls-24" d="M284.27,341.87H275.7V314.24c0-6.56,3.32-7.43,4.13-7.43,1,0,4.44.51,4.44,7.43Z" transform="translate(0 0)"/><path class="cls-24" d="M294.17,341.87H285.6V314.24c0-6.56,3.61-7.43,4.42-7.43,1,0,4.15.7,4.15,7.43Z" transform="translate(0 0)"/><path class="cls-24" d="M278.1,300.37c0-3.17,2.89-5.74,6.46-5.74s6.46,2.57,6.46,5.74-2.89,5.74-6.46,5.74-6.46-2.57-6.46-5.74" transform="translate(0 0)"/><path class="cls-29" d="M296.73,117.57H273.09V81c0-8.69,8.47-19.89,11.91-19.89,2.7,0,11.73,9.94,11.73,19.89Z" transform="translate(0 0)"/><path class="cls-24" d="M284.27,114.17H275.7V86.53c0-6.56,3.32-7.43,4.13-7.43,1,0,4.44.51,4.44,7.43Z" transform="translate(0 0)"/><path class="cls-24" d="M294.17,114.17H285.6V86.53c0-6.56,3.61-7.43,4.42-7.43,1,0,4.15.7,4.15,7.43Z" transform="translate(0 0)"/><path class="cls-24" d="M278.64,72.56c0-3.17,2.89-5.74,6.46-5.74s6.46,2.57,6.46,5.74-2.89,5.74-6.46,5.74-6.46-2.57-6.46-5.74" transform="translate(0 0)"/><path class="cls-29" d="M296.73,275.58H273.09V255.21c0-4.84,8.82-11.57,11.06-11.57,2.7,0,12.58,6,12.58,11.57Z" transform="translate(0 0)"/><path class="cls-24" d="M280.83,274h-5.54V258.26c0-3.74,2.16-6.12,2.68-6.12s2.86,1.84,2.86,6.12Z" transform="translate(0 0)"/><path class="cls-24" d="M288.06,274h-5.54V258.26c0-3.74,2.16-6.12,2.68-6.12s2.86,1.84,2.86,6.12Z" transform="translate(0 0)"/><path class="cls-24" d="M295.29,274h-5.54V258.26c0-3.74,2.16-6.12,2.68-6.12s2.86,1.84,2.86,6.12Z" transform="translate(0 0)"/><path class="cls-30" d="M269.7,148.17a16.11,16.11,0,0,1,15.83-16.37c8.74,0,15.82,7.33,15.82,16.37s-7.08,16.37-15.82,16.37a16.11,16.11,0,0,1-15.83-16.37" transform="translate(0 0)"/><polygon class="cls-22" points="267.96 375.95 243.91 377.31 240.05 190.62 267.96 193.68 267.96 375.95"/><polygon class="cls-22" points="313.08 0 304.66 44.75 322.76 45.28 313.08 0"/><polygon class="cls-22" points="253.62 0.38 245.85 43.89 263.96 44.42 253.62 0.38"/><polygon class="cls-20" points="256.42 372.42 262.88 372.42 262.88 196.66 256.42 196.01 256.42 372.42"/><polygon class="cls-20" points="248.42 372.52 253.62 372.2 253.62 196.44 247.16 196.44 248.42 372.52"/><polygon class="cls-20" points="306.82 372.42 313.29 372.42 313.29 196.66 305.1 196.22 306.82 372.42"/><polygon class="cls-20" points="309.62 187.38 316.08 187.38 318.67 52.56 309.62 52.88 309.62 187.38"/><polygon class="cls-20" points="254.27 184.81 259.65 188.04 259.65 53.54 250.61 52.99 254.27 184.81"/><polygon class="cls-25" points="323.85 53.52 244.59 53.42 243.51 45.13 324.35 45.33 323.85 53.52"/><polygon class="cls-22" points="245.19 236.65 244.86 238.84 265.64 239.26 264.89 236.36 245.19 236.65"/><polygon class="cls-22" points="304.36 236.65 304.15 238.84 317.88 239.26 317.38 236.36 304.36 236.65"/><polygon class="cls-22" points="245.19 282.49 244.86 284.68 265.64 285.1 264.89 282.2 245.19 282.49"/><polygon class="cls-22" points="304.36 282.49 304.15 284.68 317.88 285.1 317.38 282.2 304.36 282.49"/><polygon class="cls-22" points="245.19 328.34 244.86 330.53 265.64 330.94 264.89 328.05 245.19 328.34"/><polygon class="cls-22" points="304.36 328.34 304.15 330.53 317.88 330.94 317.38 328.05 304.36 328.34"/><polygon class="cls-22" points="248.01 90.64 247.77 92.83 263.31 93.25 262.75 90.35 248.01 90.64"/><polygon class="cls-22" points="307.27 90.64 307.06 92.83 320.79 93.25 320.29 90.35 307.27 90.64"/><polygon class="cls-22" points="248.01 136.49 247.77 138.68 263.31 139.09 262.75 136.19 248.01 136.49"/><polygon class="cls-22" points="307.27 136.49 307.06 138.68 320.79 139.09 320.29 136.19 307.27 136.49"/><polygon class="cls-23" points="329.39 319.4 327.72 319.07 326.8 292.92 329.39 292.92 329.39 319.4"/><polygon class="cls-23" points="361.23 319.48 358.64 319.48 359.59 293.58 361.23 293 361.23 319.48"/><polygon class="cls-23" points="344.81 319.48 342.22 319.48 342.22 293 343.87 292.83 344.81 319.48"/><polygon class="cls-23" points="369 320.06 366.42 320.06 366.42 293.58 368.35 293.58 369 320.06"/><polygon class="cls-23" points="375.82 319.48 374.13 319 373.24 293 375.82 293 375.82 319.48"/><polygon class="cls-23" points="336.65 319.48 334.06 319.48 334.06 293 335.47 293.37 336.65 319.48"/><polygon class="cls-23" points="352.96 319.48 350.38 319.48 351.52 293.47 352.96 293 352.96 319.48"/><path class="cls-31" d="M285.21,137.28a9.75,9.75,0,0,1,2.43.31c.23-1.34.47-2.68.71-4a13.56,13.56,0,0,0-3.14-.36,13.39,13.39,0,0,0-3.12.36c.14,1.35.32,2.7.53,4a9.58,9.58,0,0,1,2.59-.35" transform="translate(0 0)"/><path class="cls-31" d="M279.94,138.8c-.51-1.26-1-2.52-1.58-3.77a14.39,14.39,0,0,0-5.31,5.31c1.16.68,2.28,1.4,3.38,2.14a10.24,10.24,0,0,1,3.51-3.68" transform="translate(0 0)"/><path class="cls-31" d="M275.37,150a10.51,10.51,0,0,1-.28-2.4,10.32,10.32,0,0,1,.24-2.24c-1.28-.37-2.55-.76-3.82-1.16a15,15,0,0,0,0,6.66l3.89-.86" transform="translate(0 0)"/><path class="cls-31" d="M276.57,153c-1.16.66-2.34,1.29-3.53,1.89a14.43,14.43,0,0,0,4.77,5c.59-1.22,1.2-2.43,1.82-3.63a10.34,10.34,0,0,1-3.06-3.25" transform="translate(0 0)"/><path class="cls-31" d="M285.21,158a10,10,0,0,1-2-.2c-.31,1.32-.63,2.64-1,3.95a13.63,13.63,0,0,0,6.09-.05c-.21-1.34-.41-2.68-.63-4a10,10,0,0,1-2.52.32" transform="translate(0 0)"/><path class="cls-31" d="M291.78,134.88c-.7,1.16-1.4,2.31-2.09,3.47a10.33,10.33,0,0,1,4.3,4.14c.64-.36,1.29-.73,1.94-1.08l1.55-.86a14.33,14.33,0,0,0-5.7-5.67" transform="translate(0 0)"/><path class="cls-31" d="M293.74,153.18a10.28,10.28,0,0,1-3.55,3.45c.59,1.22,1.2,2.42,1.8,3.63a14.29,14.29,0,0,0,5.18-5c-1.14-.71-2.27-1.4-3.43-2.07" transform="translate(0 0)"/><path class="cls-31" d="M295.22,146.15a10.74,10.74,0,0,1-.29,4.33c1.28.35,2.56.7,3.84,1.07a14.9,14.9,0,0,0,.53-3.92,14.62,14.62,0,0,0-.15-2.1c-1.31.2-2.62.4-3.93.62" transform="translate(0 0)"/><polygon class="cls-27" points="327.44 322.3 321.91 321.8 321.99 372.63 327.37 373.13 327.44 322.3"/><polygon class="cls-27" points="382.85 321.15 377.38 321.15 377.63 372.77 383.01 372.92 382.85 321.15"/><polygon class="cls-23" points="328.15 336.34 321.36 336.34 321.36 334.61 328.07 334.15 328.15 336.34"/><polygon class="cls-23" points="327.61 356.48 320.97 357.19 321.04 354.43 327.61 354.43 327.61 356.48"/><polygon class="cls-23" points="384.36 336.34 376.76 336.34 376.76 334.61 384.28 334.15 384.36 336.34"/><polygon class="cls-23" points="383.76 356.48 376.32 357.19 376.4 354.43 383.76 354.43 383.76 356.48"/><polygon class="cls-25" points="322.27 175.32 379.95 174.91 380.49 165.66 322.27 165.47 322.27 175.32"/><polygon class="cls-20" points="326.95 175.75 325.79 175.6 325.16 163.99 326.95 163.99 326.95 175.75"/><polygon class="cls-20" points="349.33 175.75 347.54 175.75 348.19 164.25 349.33 163.99 349.33 175.75"/><polygon class="cls-20" points="338.14 175.82 336.35 175.82 336.35 164.06 337.49 163.99 338.14 175.82"/><polygon class="cls-20" points="354.92 175.75 353.13 175.75 353.13 163.99 354.47 163.99 354.92 175.75"/><polygon class="cls-20" points="360.51 175.75 359.34 175.54 358.72 163.99 360.51 163.99 360.51 175.75"/><polygon class="cls-20" points="332.55 175.75 330.76 175.75 330.76 163.99 331.73 164.16 332.55 175.75"/><polygon class="cls-20" points="343.73 175.75 341.94 175.75 342.73 164.2 343.73 163.99 343.73 175.75"/><polygon class="cls-20" points="366.11 175.75 364.95 175.6 364.31 163.99 366.11 163.99 366.11 175.75"/><polygon class="cls-20" points="377.29 175.82 375.5 175.82 375.5 164.06 376.64 163.99 377.29 175.82"/><polygon class="cls-20" points="371.7 175.75 369.91 175.75 369.91 163.99 370.88 164.16 371.7 175.75"/><path class="cls-32" d="M278.24,147.3a7.67,7.67,0,1,1,7.67,7.89,7.78,7.78,0,0,1-7.67-7.89" transform="translate(0 0)"/><path class="cls-33" d="M286.94,146.75a1.06,1.06,0,1,1-1.09-1,1.06,1.06,0,0,1,1.09,1" transform="translate(0 0)"/><polygon class="cls-33" points="283.71 148.05 282.54 148.59 282.48 150.36 284.29 150.15 284.93 149.02 295.69 136.51 283.71 148.05"/><polygon class="cls-33" points="283.25 144.66 283.41 143.95 286.95 148.99 287.83 149.56 287.92 148.61 283.85 143.71 284.33 143.5 282.01 141.92 283.25 144.66"/><path class="cls-22" d="M284.75,123.74c-16.59,0-22.19,13.47-22.19,13.47l.11,3.44s7.75-14.43,22-14.43c15.72,0,22.18,13.57,22.18,13.57l.45-3.31s-5.76-12.74-22.52-12.74" transform="translate(0 0)"/><polygon class="cls-22" points="325.7 52.23 242.84 52.23 242 54.71 326.44 55.68 325.7 52.23"/><polygon class="cls-22" points="326.76 42.86 241.79 43.62 242.8 46.53 325.74 46.53 326.76 42.86"/><rect class="cls-22" x="320.53" y="158.75" width="68.17" height="4.52"/><path class="cls-13" d="M437.27,149.75a17.44,17.44,0,1,0-17.44,17.44,17.44,17.44,0,0,0,17.44-17.44" transform="translate(0 0)"/><rect class="cls-20" x="387.27" y="46.48" width="64.86" height="328.1"/><polygon class="cls-20" points="444.4 48.3 389.75 48.3 391.67 30.49 444.53 31.3 444.4 48.3"/><polygon class="cls-25" points="441.56 41.1 396.47 40.77 396.05 33.55 441.56 33.39 441.56 41.1"/><polygon class="cls-20" points="437.91 41.43 438.81 41.31 439.31 32.24 437.91 32.24 437.91 41.43"/><polygon class="cls-20" points="420.41 41.43 421.81 41.43 421.3 32.44 420.41 32.24 420.41 41.43"/><polygon class="cls-20" points="429.16 41.49 430.56 41.49 430.56 32.29 429.67 32.24 429.16 41.49"/><polygon class="cls-20" points="416.04 41.43 417.44 41.43 417.44 32.24 416.39 32.24 416.04 41.43"/><polygon class="cls-20" points="411.67 41.43 412.58 41.27 413.06 32.24 411.67 32.24 411.67 41.43"/><polygon class="cls-20" points="433.53 41.43 434.93 41.43 434.93 32.24 434.17 32.37 433.53 41.43"/><polygon class="cls-20" points="424.79 41.43 426.19 41.43 425.57 32.4 424.79 32.24 424.79 41.43"/><polygon class="cls-20" points="407.29 41.43 408.2 41.31 408.69 32.24 407.29 32.24 407.29 41.43"/><polygon class="cls-20" points="398.55 41.49 399.94 41.49 399.94 32.29 399.05 32.24 398.55 41.49"/><polygon class="cls-20" points="402.92 41.43 404.32 41.43 404.32 32.24 403.56 32.37 402.92 41.43"/><polygon class="cls-22" points="383.22 190.77 398.59 190.77 398.59 45.88 380.49 46.41 383.22 190.77"/><polygon class="cls-22" points="439.65 190.77 455.03 190.77 458.89 46.41 439.65 45.88 439.65 190.77"/><rect class="cls-22" x="384.46" y="193.68" width="17.75" height="182.27"/><path class="cls-29" d="M407,230h23.64V209.64c0-4.84-8.82-11.57-11.06-11.57-2.7,0-12.16,5.8-12.58,11.57Z" transform="translate(0 0)"/><path class="cls-24" d="M422.85,228.43h5.54V212.69c0-3.73-2.21-6.12-2.74-6.12s-2.8,1.84-2.8,6.12Z" transform="translate(0 0)"/><path class="cls-24" d="M415.62,228.43h5.54V212.69c0-3.73-2.21-6.12-2.74-6.12s-2.8,1.84-2.8,6.12Z" transform="translate(0 0)"/><path class="cls-24" d="M408.39,228.43h5.54V212.69c0-3.73-2.21-6.12-2.74-6.12s-2.8,1.84-2.8,6.12Z" transform="translate(0 0)"/><path class="cls-29" d="M407,345.28h23.64V308.69c0-8.69-8.09-20.78-10.33-20.78-2.7,0-13.31,10.83-13.31,20.78Z" transform="translate(0 0)"/><path class="cls-24" d="M419.41,341.87H428V314.24c0-6.56-3.32-7.43-4.13-7.43-1,0-4.44.51-4.44,7.43Z" transform="translate(0 0)"/><path class="cls-24" d="M409.51,341.87h8.57V314.24c0-6.56-3.61-7.43-4.42-7.43-1,0-4.15.7-4.15,7.43Z" transform="translate(0 0)"/><path class="cls-24" d="M425.58,300.37c0-3.17-2.89-5.74-6.46-5.74s-6.46,2.57-6.46,5.74,2.89,5.74,6.46,5.74,6.46-2.57,6.46-5.74" transform="translate(0 0)"/><path class="cls-29" d="M407,117.57h23.64V81c0-8.69-8.47-19.89-11.91-19.89C416,61.1,407,71,407,81Z" transform="translate(0 0)"/><path class="cls-24" d="M419.41,114.17H428V86.53c0-6.56-3.32-7.43-4.13-7.43-1,0-4.44.51-4.44,7.43Z" transform="translate(0 0)"/><path class="cls-24" d="M409.51,114.17h8.57V86.53c0-6.56-3.61-7.43-4.42-7.43-1,0-4.15.7-4.15,7.43Z" transform="translate(0 0)"/><path class="cls-24" d="M425,72.56c0-3.17-2.89-5.74-6.46-5.74s-6.46,2.57-6.46,5.74,2.89,5.74,6.46,5.74S425,75.73,425,72.56" transform="translate(0 0)"/><path class="cls-29" d="M407,275.58h23.64V255.21c0-4.84-8.82-11.57-11.06-11.57-2.7,0-12.58,6-12.58,11.57Z" transform="translate(0 0)"/><path class="cls-24" d="M422.85,274h5.54V258.26c0-3.74-2.16-6.12-2.68-6.12s-2.86,1.84-2.86,6.12Z" transform="translate(0 0)"/><path class="cls-24" d="M415.62,274h5.54V258.26c0-3.74-2.16-6.12-2.68-6.12s-2.86,1.84-2.86,6.12Z" transform="translate(0 0)"/><path class="cls-24" d="M408.39,274h5.54V258.26c0-3.74-2.16-6.12-2.68-6.12s-2.86,1.84-2.86,6.12Z" transform="translate(0 0)"/><path class="cls-22" d="M434.3,148.49a15.5,15.5,0,1,0-15.5,15.82,15.67,15.67,0,0,0,15.5-15.82" transform="translate(0 0)"/><polygon class="cls-22" points="438.01 376.94 461.49 376.29 463.63 190.62 435.72 193.68 438.01 376.94"/><polygon class="cls-22" points="390.6 0 399.02 44.75 380.92 45.28 390.6 0"/><polygon class="cls-22" points="450.06 0.38 457.83 43.89 439.72 44.42 450.06 0.38"/><polygon class="cls-20" points="448.12 372.42 441.66 372.42 441.66 196.66 448.35 197.19 448.12 372.42"/><polygon class="cls-20" points="456.09 371.77 450.92 372.2 450.83 197.3 457.61 197.19 456.09 371.77"/><polygon class="cls-20" points="396.86 372.42 390.39 372.42 390.39 196.66 398.58 196.22 396.86 372.42"/><polygon class="cls-20" points="394.06 187.38 387.6 187.38 385.01 52.56 394.06 52.88 394.06 187.38"/><polygon class="cls-20" points="449.41 184.81 444.03 188.04 444.03 53.54 453.07 52.99 449.41 184.81"/><polygon class="cls-25" points="379.83 53.52 459.09 53.42 460.17 45.13 379.33 45.33 379.83 53.52"/><polygon class="cls-22" points="458.49 236.65 458.82 238.84 438.04 239.26 438.79 236.36 458.49 236.65"/><polygon class="cls-22" points="399.32 236.65 399.53 238.84 385.8 239.26 386.3 236.36 399.32 236.65"/><polygon class="cls-22" points="458.49 282.49 458.82 284.68 438.04 285.1 438.79 282.2 458.49 282.49"/><polygon class="cls-22" points="399.32 282.49 399.53 284.68 385.8 285.1 386.3 282.2 399.32 282.49"/><polygon class="cls-22" points="458.49 328.34 458.82 330.53 438.04 330.94 438.79 328.05 458.49 328.34"/><polygon class="cls-22" points="399.32 328.34 399.53 330.53 385.8 330.94 386.3 328.05 399.32 328.34"/><polygon class="cls-22" points="455.67 90.64 455.91 92.83 440.37 93.25 440.93 90.35 455.67 90.64"/><polygon class="cls-22" points="396.41 90.64 396.63 92.83 382.89 93.25 383.39 90.35 396.41 90.64"/><polygon class="cls-22" points="455.67 136.49 455.91 138.68 440.37 139.09 440.93 136.19 455.67 136.49"/><polygon class="cls-22" points="396.41 136.49 396.63 138.68 382.89 139.09 383.39 136.19 396.41 136.49"/><path class="cls-20" d="M428.79,147.19a10.1,10.1,0,1,0-10.1,10.32,10.21,10.21,0,0,0,10.1-10.32" transform="translate(0 0)"/><path class="cls-22" d="M418.94,123.74c16.58,0,22.18,13.47,22.18,13.47l-.11,3.44s-7.75-14.43-22-14.43c-15.72,0-22.18,13.57-22.18,13.57l-.45-3.31s5.76-12.74,22.53-12.74" transform="translate(0 0)"/><polygon class="cls-22" points="377.98 52.23 460.84 52.23 460.74 54.82 377.24 55.68 377.98 52.23"/><polygon class="cls-22" points="376.92 42.86 461.06 43.4 460.88 46.53 377.94 46.53 376.92 42.86"/><polygon class="cls-25" points="464.07 193.1 238.66 194.07 239.73 176.6 464.18 178.67 464.07 193.1"/><polygon class="cls-22" points="465.15 181.15 238.15 180.93 237.24 176.6 466.33 176.84 465.15 181.15"/><polygon class="cls-22" points="466.12 195.15 236.83 195.24 237.54 192.35 465.47 191.81 466.12 195.15"/><polygon class="cls-22" points="385.95 318.83 316.75 318.24 316.85 315.66 385.95 315.28 385.95 318.83"/><polygon class="cls-34" points="468.17 374.57 240.85 375.64 241.14 380.89 466.66 380.81 468.17 374.57"/><path class="cls-29" d="M426.18,147.62a7.6,7.6,0,1,0-7.59,7.76,7.67,7.67,0,0,0,7.59-7.76" transform="translate(0 0)"/><path class="cls-20" d="M425,147.46a6.1,6.1,0,1,0-6.1,6.12,6.1,6.1,0,0,0,6.1-6.12" transform="translate(0 0)"/></g></g></g><g id="London_Bus" data-name="London Bus"><g class="cls-35"><g class="cls-35"><path class="cls-36" d="M1286.13,361.55l-20.07.37h0c.68-3.19,1.6-7.89,4.1-10.61a87,87,0,0,1,11.46,0Z" transform="translate(0 0)"/><path class="cls-37" d="M1261.53,372.91s.55-6.39,1-9.13c.19-1.29,1.78-1.94,3.58-1.86h0l20.07-.37-5.3-10.13-10.63-.11a6.33,6.33,0,0,1,4.37-2.14c6.57-.42,54.13-14.6,56-6.07,1.36,6.33.48,11.55.13,20.34-.1,2.65-.66,10.59-.66,10.59l-7.53-.12s-2.1-4.72-5.44-4.72c-4.48,0-5,4.55-5,4.55l-32.62-.53a5.28,5.28,0,0,0-5.45-4.64c-4.38,0-4.18,4.48-4.18,4.48Z" transform="translate(0 0)"/><path class="cls-37" d="M1264.7,359.36c.4,0,.4,2.93.4,2.93l-.38.24s-1.29-3.08,0-3.17" transform="translate(0 0)"/><polygon class="cls-32" points="1331.28 372.55 1331.1 374.22 1321.85 374.08 1318.11 368.77 1312.25 373.94 1279.43 373.44 1277.58 371.22 1271.39 370.19 1269.97 373.26 1260.91 373.17 1260 370.77 1269.9 371.04 1274.04 368.83 1278.84 371.27 1312.45 372.09 1316.92 368.93 1321.78 372.32 1331.28 372.55"/><path class="cls-37" d="M1267.1,332.79c1-2.28,2.69-2.85,7.89-3.17,6.68-.4,43.21,1.05,51,1.49a6.73,6.73,0,0,1,5.34,2.81c-5.17-.37-55.43-2.22-64.24-1.13" transform="translate(0 0)"/><path class="cls-37" d="M1331.28,350.76h-64.94a94.14,94.14,0,0,1,.55-10.81l65,.78c-.2,2.56-.66,10-.66,10" transform="translate(0 0)"/><path class="cls-36" d="M1268.49,332.61c8.67-1.09,51.4.45,62.3,1.31a11.49,11.49,0,0,1,1.15,6.76v.06l-65-.78a36.16,36.16,0,0,1,1.09-5.84c.17-.58.34-1.08.51-1.51" transform="translate(0 0)"/><path class="cls-38" d="M1278.05,372.32a4,4,0,0,1-2.37,5.12,4.09,4.09,0,0,1-4.85-3,4,4,0,0,1,2.37-5.12,4.09,4.09,0,0,1,4.85,3" transform="translate(0 0)"/><path class="cls-33" d="M1276.45,372.55a2.51,2.51,0,0,1-1.5,3.25,2.6,2.6,0,0,1-3.08-1.92,2.53,2.53,0,0,1,1.51-3.25,2.6,2.6,0,0,1,3.07,1.92" transform="translate(0 0)"/><path class="cls-39" d="M1275.84,372.63a2,2,0,0,1-1,2.55,2,2,0,0,1-2.26-1.6,1.94,1.94,0,0,1,1-2.55,2,2,0,0,1,2.27,1.6" transform="translate(0 0)"/><path class="cls-38" d="M1320.43,372.32a4,4,0,0,1-2.36,5.12,4.1,4.1,0,0,1-4.86-3,4,4,0,0,1,2.37-5.12,4.09,4.09,0,0,1,4.85,3" transform="translate(0 0)"/><path class="cls-33" d="M1318.84,372.55a2.52,2.52,0,0,1-1.51,3.25,2.59,2.59,0,0,1-3.07-1.92,2.51,2.51,0,0,1,1.5-3.25,2.61,2.61,0,0,1,3.08,1.92" transform="translate(0 0)"/><path class="cls-39" d="M1318.22,372.63a2,2,0,0,1-1,2.55,2,2,0,0,1-2.26-1.6,2,2,0,0,1,1-2.55,2,2,0,0,1,2.26,1.6" transform="translate(0 0)"/><path class="cls-40" d="M1322.76,374.31c-.15,0-1.58-.09-1.58-.09s-.86-4.2-4.39-4.35c-4.25-.19-3.67,4.54-3.67,4.54l-1.57-.1s-.31-6.13,4.84-6.13c5.45,0,6.37,6.13,6.37,6.13" transform="translate(0 0)"/><path class="cls-40" d="M1280.22,373.59c-.14,0-1.57-.09-1.57-.09a4.51,4.51,0,0,0-4.15-3.67,3.48,3.48,0,0,0-3.91,3.85l-1.58-.09s-.14-5.41,5-5.41c5.45,0,6.2,5.41,6.2,5.41" transform="translate(0 0)"/><path class="cls-41" d="M1262.49,361.88c.38-.46,1,.05,1,.05l-1.46,1.85a5,5,0,0,1,.5-1.9" transform="translate(0 0)"/><polygon class="cls-32" points="1263.33 361.75 1263.99 362.3 1262.61 364.17 1261.85 363.75 1263.33 361.75"/><polygon class="cls-36" points="1280.88 332.65 1295.39 354.12 1326.08 354.26 1326.08 361.69 1292.77 361.55 1274.94 334.95 1280.88 332.65"/><polygon class="cls-42" points="1324.84 344 1324.84 350.61 1297.05 349.94 1293.32 344 1324.84 344"/></g></g></g><rect class="cls-43" x="548" y="366" width="455" height="389"/></g></g></svg>