<svg xmlns="http://www.w3.org/2000/svg" xmlns:xlink="http://www.w3.org/1999/xlink" viewBox="0 0 1920 864"><defs><style>.cls-1{fill:none;}.cls-2{fill:#242A43;}.cls-3{clip-path:url(#clip-path);}.cls-4{fill:#ffb500;}.cls-5{fill:#373737;}.cls-6{fill:#ff7a36;}.cls-7{fill:#547d7a;}.cls-8{fill:#456d6a;}.cls-9{fill:#2e535b;}.cls-10{fill:#312c2c;}.cls-11{fill:#faa079;}.cls-12{fill:#fffce7;}.cls-13{fill:#4e3736;}.cls-14{fill:#3b3d3d;}.cls-15{fill:#cecfc3;}.cls-16{fill:#ffe364;}.cls-17{fill:#bcbcad;}.cls-18{fill:#584d47;}.cls-19{fill:#29abe2;}.cls-20{clip-path:url(#clip-path-3);}.cls-21{fill:#b39d89;}.cls-22{fill:#8f7b6d;}.cls-23{fill:#c78657;}.cls-24{fill:#df9f6b;}.cls-25{fill:#48464b;}.cls-26{fill:#715c52;}.cls-27{fill:#c98b5d;}.cls-28{fill:#e49f6f;}.cls-29{fill:#edad78;}.cls-30{fill:#c28051;}.cls-31{fill:#ffbc67;}.cls-32{fill:#f9efde;}.cls-33{fill:#715d53;}.cls-34{fill:#80a6a3;}.cls-35{fill:#704634;}.cls-36{fill:#a9714b;}.cls-37{fill:#b27447;}.cls-38{fill:#7e4c3a;}.cls-39{fill:#996248;}.cls-40{fill:#e7aa80;}.cls-41{fill:#533f3f;}.cls-42{fill:#6d6e72;}.cls-43{clip-path:url(#clip-path-5);}.cls-44{fill:#e03339;}.cls-45{fill:#1f191a;}.cls-46{fill:#333237;}.cls-47{fill:#0d0406;}.cls-48{fill:#3f3e40;}.cls-49{fill:#fc0;}.cls-50{fill:#cc1003;}.cls-51{fill:#ffa900;}.cls-52{fill:#ec2e26;}.cls-53{fill:#462c29;}.cls-54{fill:#a0a99e;}.cls-55{fill:#5f665b;}.cls-56{fill:#436b80;}.cls-57{fill:#e6ba8d;}.cls-58{fill:#9f7f6e;}.cls-59{fill:#745a4b;}.cls-60{fill:#ff7e5d;}.cls-61{fill:#6e8988;}.cls-62{fill:#b2ddcf;}.cls-63{fill:#cca180;}.cls-64{fill:#ffcf8f;}.cls-65{fill:#5e4940;}</style><clipPath id="clip-path" transform="translate(0 0)"><rect class="cls-1" x="1369" y="437" width="90.13" height="47.66"/></clipPath><clipPath id="clip-path-3" transform="translate(0 0)"><rect class="cls-1" x="1682" width="103.55" height="487.46"/></clipPath><clipPath id="clip-path-5" transform="translate(0 0)"><rect class="cls-1" x="76" y="397.76" width="143" height="88.53"/></clipPath></defs><g id="Layer_2" data-name="Layer 2"><g id="Layer_3" data-name="Layer 3"><rect class="cls-2" y="477" width="1920" height="387"/><g id="London_Cab" data-name="London Cab"><g class="cls-3"><polygon class="cls-4" points="1423.59 437.26 1415.35 438.58 1415.18 440.76 1424.21 440.85 1423.59 437.26"/><g class="cls-3"><path class="cls-5" d="M1413.51,438.66l2.45,2a13.4,13.4,0,0,0,3.35-1.61c1.22-1.3,4.86-1.42,4.86-1.42l-.12-.65Z" transform="translate(0 0)"/><path class="cls-6" d="M1457.27,463.22c-.3-1.19-1.77-.52-1.77-.52l.5,2.36s1.59-.56,1.27-1.84" transform="translate(0 0)"/><path class="cls-7" d="M1378.46,457.19l48.69-3.53s-2.66-10.62-6.85-12.13-36.5,2.73-38.81,4.55-3,11.11-3,11.11" transform="translate(0 0)"/><path class="cls-8" d="M1380.77,458.46s.51-5.24-1-6.28-1.6-.23-1.6-.23l.23,7.05Z" transform="translate(0 0)"/><path class="cls-8" d="M1396.31,457.08s.51-5.24-1-6.29-1.6-.23-1.6-.23l.23,7.05Z" transform="translate(0 0)"/><path class="cls-9" d="M1412.29,455.68s.51-5.24-1-6.28-1.6-.23-1.6-.23l.22,7.05Z" transform="translate(0 0)"/><path class="cls-10" d="M1420.25,458c.49-.46,1-.8.35-1.66-.52-.64-1.11-.75-2.12-1.57s-3.34-2.7-4-3.27a1.2,1.2,0,0,0-1.76.44,2.29,2.29,0,0,0,.88,2.84c1.14.83,2.23,7.33,6.61,3.22" transform="translate(0 0)"/><path class="cls-9" d="M1428,454.63c0-.11-.92-2.58-2.27-1.53s-2.44,2.59-.78,3.46a2,2,0,0,0,3-1.93" transform="translate(0 0)"/><path class="cls-11" d="M1411.51,448.45a7.22,7.22,0,0,1,.17,3.28l2.77.32s-.43-.95-.55-1.34-.4-1.54.25-2.07c.49-.4-3-.93-2.64-.19" transform="translate(0 0)"/><path class="cls-10" d="M1411.64,451a9.76,9.76,0,0,0-.08,2.93c.24,1.39.42,4.4.42,4.4l0,4.26a16.81,16.81,0,0,0,3.86-.93c.7-.28,1.65-.58,2-1.3l-.52-1.53s-.59-3.83-.95-4.86a6,6,0,0,0-1-1.81,6.84,6.84,0,0,0-1.08-.89,4,4,0,0,0-1-.26,5.14,5.14,0,0,0-1.75,0" transform="translate(0 0)"/><path class="cls-11" d="M1424.72,453.36c-.31,0-.69,1.2-.83,1.23l-.5.1c.08.31.15.62.23.93l.6-.25s.72-.45.86-.86.08-1.2-.36-1.15" transform="translate(0 0)"/><path class="cls-11" d="M1425.54,453.07a1.66,1.66,0,0,0-.89.31c-.07.06-.1.48-.1.48a3.1,3.1,0,0,1,.93-.34c.07,0,1.33.56,1.21.22a5.29,5.29,0,0,0-1.15-.67" transform="translate(0 0)"/><path class="cls-11" d="M1425.73,453.13a6.38,6.38,0,0,0-1.19.53l.18.27.92-.44a7.61,7.61,0,0,0,1,.25.22.22,0,0,0,.22-.2s-1-.37-1.13-.41" transform="translate(0 0)"/><path class="cls-12" d="M1415.67,448.33s0,.22,0,.27a1.31,1.31,0,0,1-.61.06,2.61,2.61,0,0,1-1-.32Z" transform="translate(0 0)"/><path class="cls-11" d="M1413.09,449.39a3.75,3.75,0,0,0,2.63.7,1.89,1.89,0,0,0-.1-.52.51.51,0,0,1,0-.38c.14-.22.07-.26.07-.26-.66-.05-1.07-.34-1-.4a2.24,2.24,0,0,0,1.1-.09s0-.15-.08-.26-.05-.13-.05-.13l.36-.15c.25-.14.22-.25.22-.25a4,4,0,0,1-.94-.82,9.73,9.73,0,0,0-.33-1.59c-.27-.65-.56-1-1-.91a6.7,6.7,0,0,0-2.85,1.35c-.44.56.77,2.78,2.06,3.71" transform="translate(0 0)"/><path class="cls-13" d="M1414.44,446.93c0-.12,0-.24.09-.26s.18.06.21.18,0,.24-.08.26-.18-.05-.22-.18" transform="translate(0 0)"/><path class="cls-13" d="M1414.06,446.49l.79-.37.17.24s-.84.29-1,.13" transform="translate(0 0)"/><path class="cls-10" d="M1424.4,456.6l-.25-1.05s-4.55.62-6-.31c-.41-.26-2-1.74-3.58-3.13-.54-.46-1.31-.92-1.75-.32a2.12,2.12,0,0,0,.37,2.63c.86,1.11,4.78,5.47,11.22,2.18" transform="translate(0 0)"/><path class="cls-13" d="M1413.41,445.37c.43-.48,1-.43,1.62-.56-.23-.58-1-1.81-3.22-1.2s-2.34,1.93-1.92,2.92a5.62,5.62,0,0,0,1.42,2c.21.33.44.62.44.62a3.46,3.46,0,0,0,.43-1.29,11,11,0,0,1,1.23-2.51" transform="translate(0 0)"/><path class="cls-11" d="M1412.84,447.81s-.27-1-.72-1c-.74,0,0,1.94.55,1.86s.17-.84.17-.84" transform="translate(0 0)"/><path class="cls-13" d="M1415.19,443.55a1.92,1.92,0,0,0-.91-.43,3,3,0,0,0-1.71.19,4.27,4.27,0,0,0-1.43,1,3.89,3.89,0,0,0-.79,1.14,2.56,2.56,0,0,0-.15,1.37c.07.46,1.26,1.39,1.37,1.6s.21-.53.23-.73a.45.45,0,0,1,.62-.31,1.67,1.67,0,0,1,.28.18,2.29,2.29,0,0,0,.73.37,2.66,2.66,0,0,1-.19-2.22,3.25,3.25,0,0,1,.45-.08c.47,0,1.06.07,1.46-.22a1.39,1.39,0,0,0,.46-1,1.22,1.22,0,0,0-.42-.89" transform="translate(0 0)"/><path class="cls-14" d="M1455.92,463s-.6-7.71-5.28-9.3c-4.18-1.41-20.32.24-20.32.24s-2.2-13.94-10.47-15.15-40.39,3.13-42.14,6.38-2.27,12.55-2.27,12.55a9.29,9.29,0,0,0-5.81,4.85c-1.67,3.84.5,13.09.5,13.09l6.21-.54s.12-4.52,8.05-4.35,8.22,6.79,8.22,6.79l37.79-1.28s1-8.57,7-9.28c8.24-1,9,7.84,9,7.84l11.31-.73Zm-61.77-6.93-.77-12.56c4.66-.7,10-1.36,14.69-1.78l.73,13.28Zm-15.69,1.14s.65-9.25,3-11.11c.79-.63,5.11-1.53,10.62-2.4l-.13,12.53Zm31.71-2.3-.53-13.32c5.16-.42,9.33-.52,10.66,0,4.19,1.51,6.85,12.13,6.85,12.13Z" transform="translate(0 0)"/><path class="cls-10" d="M1431.27,456c-4.4.7-8.72,1.81-13.21,2.68-7.62,1.46-14.71,2.31-22.38,1.68a12.29,12.29,0,0,1-5.93-2.57,126.67,126.67,0,0,1-16.67,1,8.49,8.49,0,0,0-3.45,3.81c-1.67,3.84.5,13.09.5,13.09l6.21-.54s.12-4.52,8.05-4.35,8.22,6.79,8.22,6.79l37.79-1.28s1-8.57,7-9.28c8.24-1,9,7.84,9,7.84l11.31-.73L1455.92,463s-.42-5.42-3.32-8.11a109,109,0,0,0-21.33,1.09" transform="translate(0 0)"/><polygon class="cls-15" points="1433.67 460.51 1454.74 458.58 1454.29 456.88 1388.92 463.91 1389.43 464.57 1433.67 460.51"/><path class="cls-16" d="M1456.83,456.41a2,2,0,0,0-2.75-1.3l1.7,4.67a2.82,2.82,0,0,0,1-3.37" transform="translate(0 0)"/><path class="cls-17" d="M1391.9,476.32v2.05l66.55-2.86.69-3.74s-66.72,4.53-67.23,4.55" transform="translate(0 0)"/><polygon class="cls-17" points="1453 455.17 1454.86 460.15 1455.78 459.78 1456.41 459.53 1454.83 454.73 1453 455.17"/><path class="cls-18" d="M1430.76,474.37c-1.2,4.46,1.26,8.8,5.48,9.7s8.62-2,9.81-6.43-1.26-8.79-5.48-9.69a8.61,8.61,0,0,0-9.81,6.42" transform="translate(0 0)"/><path class="cls-10" d="M1434.12,474.64a4.82,4.82,0,0,0,3.47,6.15,5.47,5.47,0,0,0,6.23-4.07,4.83,4.83,0,0,0-3.48-6.15,5.46,5.46,0,0,0-6.22,4.07" transform="translate(0 0)"/><path class="cls-17" d="M1435.45,474.61a3.31,3.31,0,0,0,2.53,4.14,3.74,3.74,0,0,0,4.36-2.67,3.31,3.31,0,0,0-2.53-4.14,3.75,3.75,0,0,0-4.36,2.67" transform="translate(0 0)"/><path class="cls-14" d="M1429.23,476.84l1.2,0s1.08-8.26,8.47-8.42c7.66-.17,7.53,8,7.53,8l2-.23s-1-10.44-9.71-9.8c-8.93.65-9.48,10.52-9.48,10.52" transform="translate(0 0)"/><path class="cls-18" d="M1376.24,474.8c-1.19,4.45,1.26,8.79,5.49,9.69s8.61-2,9.8-6.42-1.26-8.79-5.48-9.7-8.61,2-9.81,6.43" transform="translate(0 0)"/><path class="cls-10" d="M1379.6,475.07a4.82,4.82,0,0,0,3.48,6.15,5.46,5.46,0,0,0,6.22-4.08,4.83,4.83,0,0,0-3.48-6.15,5.47,5.47,0,0,0-6.22,4.08" transform="translate(0 0)"/><path class="cls-17" d="M1380.93,475a3.32,3.32,0,0,0,2.54,4.15,3.76,3.76,0,0,0,4.36-2.67,3.32,3.32,0,0,0-2.54-4.15,3.76,3.76,0,0,0-4.36,2.67" transform="translate(0 0)"/><polygon class="cls-17" points="1369.09 474.55 1370.22 477.7 1375.75 477.23 1376.07 475.37 1369.09 474.55"/><path class="cls-14" d="M1374.56,477.35l1.19-.12s1.9-7.66,8.73-7.84c8.17-.21,7.41,9,7.41,9l2.26-.16s-.56-11.82-9.64-11c-8.52.75-10,10.16-10,10.16" transform="translate(0 0)"/></g></g></g><rect class="cls-19" x="477" y="476" width="601" height="138"/><g id="Big_Ben" data-name="Big Ben"><g class="cls-20"><polygon class="cls-21" points="1758.08 73.63 1754.81 73.59 1754.84 73.03 1758.1 73.15 1758.08 73.63"/><g class="cls-20"><path class="cls-21" d="M1757.42,69.45a.91.91,0,1,1-.9-1.06,1,1,0,0,1,.9,1.06" transform="translate(0 0)"/><polygon class="cls-21" points="1756.68 69.27 1756.18 69.74 1755.82 93.38 1757.04 93.38 1756.68 69.27"/><polygon class="cls-21" points="1712.92 74.17 1709.66 74.14 1709.69 73.58 1712.94 73.69 1712.92 74.17"/><path class="cls-21" d="M1712.27,70a.92.92,0,1,1-.91-1.06,1,1,0,0,1,.91,1.06" transform="translate(0 0)"/><polygon class="cls-21" points="1711.53 69.81 1711.02 70.29 1710.66 93.92 1711.88 93.92 1711.53 69.81"/><polygon class="cls-21" points="1780.32 143 1778.21 143 1778.21 139.59 1780.13 139.97 1780.32 143"/><polygon class="cls-21" points="1781.73 147.56 1777.05 148.17 1777.05 145.38 1781.73 145.38 1781.73 147.56"/><polygon class="cls-21" points="1779.62 142.08 1778.75 142.38 1778.75 160.84 1780.04 160.84 1779.62 142.08"/><polygon class="cls-21" points="1689.34 143.61 1687.22 143.61 1687.22 140.2 1689.14 140.58 1689.34 143.61"/><polygon class="cls-21" points="1690.74 148.17 1686.07 148.79 1686.07 145.99 1690.74 145.99 1690.74 148.17"/><polygon class="cls-21" points="1688.63 142.62 1687.77 142.92 1687.77 161.11 1689.05 161.11 1688.63 142.62"/><polygon class="cls-22" points="1783.77 181.77 1782.66 181.91 1782.55 195.92 1783.77 195.92 1783.77 181.77"/><path class="cls-22" d="M1783.66,180.15a.57.57,0,0,0-.66-.21c-.19.06-.26.27-.32.46-.2.69.55,1.41.55,1.41a1.46,1.46,0,0,0,.43-1.66" transform="translate(0 0)"/><path class="cls-22" d="M1785.55,183.24a2.41,2.41,0,0,1-4.76,0,3,3,0,0,1,1.68-2.42,3.53,3.53,0,0,1,1.41,0,2.89,2.89,0,0,1,1.67,2.44" transform="translate(0 0)"/><path class="cls-22" d="M1785.17,185.16c0,.32-.84.58-1.87.58s-1.88-.26-1.88-.58.84-.58,1.88-.58,1.87.26,1.87.58" transform="translate(0 0)"/><path class="cls-22" d="M1784.78,186.13a1.49,1.49,0,1,1-1.48-1.33,1.4,1.4,0,0,1,1.48,1.33" transform="translate(0 0)"/><polygon class="cls-22" points="1685.06 180.99 1684.03 181.12 1683.92 195.13 1685.06 195.13 1685.06 180.99"/><path class="cls-22" d="M1684.86,179.36a.58.58,0,0,0-.66-.2c-.18.06-.26.27-.31.45-.2.69.55,1.42.55,1.42a1.47,1.47,0,0,0,.42-1.67" transform="translate(0 0)"/><path class="cls-22" d="M1686.76,182.45a2.41,2.41,0,0,1-4.76,0,3.06,3.06,0,0,1,1.68-2.42,3.72,3.72,0,0,1,1.41,0,2.91,2.91,0,0,1,1.67,2.43" transform="translate(0 0)"/><path class="cls-22" d="M1686.38,184.37c0,.32-.84.58-1.88.58s-1.87-.26-1.87-.58.84-.58,1.87-.58,1.88.26,1.88.58" transform="translate(0 0)"/><path class="cls-22" d="M1686,185.34a1.49,1.49,0,1,1-1.48-1.33,1.41,1.41,0,0,1,1.48,1.33" transform="translate(0 0)"/><polygon class="cls-23" points="1694.1 160.53 1698.12 485.39 1772.8 486.22 1776.01 162.19 1694.1 160.53"/><path class="cls-24" d="M1692.39,485.62l14.69-1.54L1704,222.79c-5.32.41-10.62.94-15.92,1.51Z" transform="translate(0 0)"/><path class="cls-24" d="M1692,165.25l.69,59.05c3.76-.57,7.53-1.1,11.3-1.51l-.51-60.08Z" transform="translate(0 0)"/><polygon class="cls-23" points="1753.86 128.4 1713.8 127.98 1713.51 93.46 1756.55 94.48 1753.86 128.4"/><path class="cls-24" d="M1763.2,485.69l14.72-.54,2.42-260.46q-9-.91-18-1.58Z" transform="translate(0 0)"/><path class="cls-24" d="M1762.11,162.17l.14,60.94q5.85.66,11.75,1.58l.37-61.57Z" transform="translate(0 0)"/><path class="cls-25" d="M1754.11,127.62l-40.31.36s-7,11.15-9.86,15c-3.3,4.37-14.9,17.8-14.9,17.8l89.84-.27s-11.57-13.47-14.22-17c-3.54-4.7-10.55-15.89-10.55-15.89" transform="translate(0 0)"/><polygon class="cls-26" points="1757.23 99.98 1710.56 99.81 1709.83 93.59 1757.58 92.12 1757.23 99.98"/><path class="cls-27" d="M1767.32,485.69l8.32-.54L1777,224.36q-5.1-.5-10.19-.9Z" transform="translate(0 0)"/><polygon class="cls-27" points="1765.61 167.21 1766.47 190.5 1771.2 189.82 1771.38 167.56 1765.61 167.21"/><path class="cls-24" d="M1771.14,485.69l1.55-.54L1773,224l-1.91-.17Z" transform="translate(0 0)"/><path class="cls-25" d="M1733.53,12.19s-3.2,17-8.45,36.64c-2.39,8.93-14.41,45.09-14.41,45.09l46.18-.68S1744,59.82,1741.6,50.47c-6.92-27.11-8.07-38.28-8.07-38.28" transform="translate(0 0)"/><path class="cls-27" d="M1693.8,485.62l10.28-1.54L1701.91,223c-3.72.31-7.44.67-11.15,1Z" transform="translate(0 0)"/><path class="cls-27" d="M1696.05,167.48l.49,22.21c1.45-.13,2.91-.26,4.37-.36l-.09-21.85Z" transform="translate(0 0)"/><path class="cls-24" d="M1696.35,485.62l2.29-1.54-.49-260.79-2.47.23Z" transform="translate(0 0)"/><polygon class="cls-28" points="1780.64 254.66 1686.92 253.57 1687.46 285.18 1781.05 284.09 1780.64 254.66"/><polygon class="cls-29" points="1682.83 190.91 1684.98 257.11 1784.19 257.93 1784.45 192.27 1682.83 190.91"/><polygon class="cls-30" points="1699.32 191.18 1701.02 257.18 1767.99 257.8 1768.38 191.87 1699.32 191.18"/><polygon class="cls-31" points="1702.84 193.92 1704.79 251.96 1764.17 253.28 1765.5 194.85 1702.84 193.92"/><path class="cls-32" d="M1732.69,198.18c-13.68,0-24.06,11.74-24.06,25.42s10.38,24.78,24.06,24.78a24.77,24.77,0,0,0,24.78-24.78c0-13.68-11.09-25.42-24.78-25.42" transform="translate(0 0)"/><path class="cls-33" d="M1730.82,223.57a2.21,2.21,0,1,1,2.21,2.21,2.21,2.21,0,0,1-2.21-2.21" transform="translate(0 0)"/><polygon class="cls-33" points="1733.97 219.39 1735.11 217.38 1731.1 217.48 1732.25 219.29 1732.75 247.97 1733.97 219.39"/><polygon class="cls-33" points="1739.88 222.99 1739.57 224.01 1729.22 221.83 1728.33 223.67 1739.5 225.24 1739.4 226.29 1743.59 225.15 1739.88 222.99"/><path class="cls-34" d="M1733.41,243.61c-10.63,0-19.28-8.9-19.28-19.85s8.65-19.85,19.28-19.85,19.29,8.9,19.29,19.85-8.65,19.85-19.29,19.85m0-38.07c-9.73,0-17.65,8.18-17.65,18.22s7.92,18.22,17.65,18.22,17.66-8.17,17.66-18.22-7.92-18.22-17.66-18.22" transform="translate(0 0)"/><path class="cls-34" d="M1733.41,239.72a16,16,0,1,1,15.51-16,15.76,15.76,0,0,1-15.51,16m0-30.6a14.65,14.65,0,1,0,14.19,14.64,14.43,14.43,0,0,0-14.19-14.64" transform="translate(0 0)"/><polygon class="cls-34" points="1731.87 197 1732.42 208.8 1733.14 208.66 1733.14 196.72 1731.87 197"/><path class="cls-34" d="M1747.49,222.51l1,1.25,10.09-.16v-1.45s-10.61.36-11.08.36" transform="translate(0 0)"/><polygon class="cls-34" points="1733.6 239.13 1732.6 239.13 1732.6 249.49 1734.14 249.06 1733.6 239.13"/><polygon class="cls-34" points="1718.71 224.6 1707.49 224.37 1707.83 225.39 1718.64 225.15 1718.71 224.6"/><polygon class="cls-34" points="1745.1 199.93 1739.66 210.42 1740.36 210.66 1746.34 200.33 1745.1 199.93"/><path class="cls-34" d="M1746.4,230.23l-.32,1.18,8.81,4.92.73-1.26s-8.81-4.6-9.22-4.84" transform="translate(0 0)"/><polygon class="cls-34" points="1725.5 237.26 1724.63 236.76 1719.45 245.72 1721 246.12 1725.5 237.26"/><polygon class="cls-34" points="1719.88 217.23 1710.29 211.41 1710.08 212.46 1719.55 217.66 1719.88 217.23"/><polygon class="cls-34" points="1754.75 208.57 1744.94 215.16 1745.44 215.71 1755.64 209.52 1754.75 208.57"/><path class="cls-34" d="M1741.68,236.14l-1.2.52,5.37,8.54,1.24-.75s-5.17-7.91-5.41-8.31" transform="translate(0 0)"/><polygon class="cls-34" points="1720.43 230.82 1720.02 230.14 1710.25 236.42 1711.3 237.27 1720.43 230.82"/><polygon class="cls-34" points="1724.32 211.63 1718.71 201.92 1718.01 202.74 1723.82 211.86 1724.32 211.63"/><path class="cls-33" d="M1732.69,195.82a27.79,27.79,0,1,0,27.79,27.78,27.79,27.79,0,0,0-27.79-27.78m0,52.56c-13.68,0-24.06-11.09-24.06-24.78s10.38-25.42,24.06-25.42,24.78,11.74,24.78,25.42a24.77,24.77,0,0,1-24.78,24.78" transform="translate(0 0)"/><path class="cls-35" d="M1757.48,186.6l-.8-15.26s0-3.5-2.48-3.5c-2.69,0-2.75,3.51-2.75,3.51l.37,15.55Z" transform="translate(0 0)"/><path class="cls-35" d="M1744.68,171.36l.17,15.84,5.38-.21,0-15.64s-.58-3.36-2.8-3.36-2.79,3.37-2.79,3.37" transform="translate(0 0)"/><path class="cls-35" d="M1737.75,171.37l.11,16.23,5.45-.31.2-15.93s-.57-3.44-3-3.44-2.81,3.45-2.81,3.45" transform="translate(0 0)"/><path class="cls-35" d="M1715.56,171.41l.19,17,5.48-.21-.37-16.82s-.24-3.71-2.51-3.71-2.79,3.72-2.79,3.72" transform="translate(0 0)"/><path class="cls-35" d="M1708.17,171.29l.28,17.31,4.91-.08-.28-17.11s-.41-3.47-2.58-3.57c-1.67-.08-2.33,3.45-2.33,3.45" transform="translate(0 0)"/><path class="cls-35" d="M1730.19,171.38l.53,16.43,5.23-.23-.23-16.21s-.53-3.3-2.79-3.3c-2.53,0-2.74,3.31-2.74,3.31" transform="translate(0 0)"/><path class="cls-35" d="M1723.24,171.4l.17,16.72,5.21-.22,0-16.51s-.6-3.4-2.68-3.4c-2.31,0-2.68,3.41-2.68,3.41" transform="translate(0 0)"/><path class="cls-36" d="M1736.62,291.92s0-5.31-2.77-5.31c-2.93,0-2.51,5.31-2.51,5.31l0,33.3h5.32Z" transform="translate(0 0)"/><path class="cls-36" d="M1757.76,291.92s.2-5.38-2.59-5.38-2.45,5.38-2.45,5.38l0,33.3h5.09Z" transform="translate(0 0)"/><path class="cls-36" d="M1714.71,291.92s-.07-5.59-3-5.59-2.72,5.59-2.72,5.59c0,1.43.06,14.66.23,33.3h5.85Z" transform="translate(0 0)"/><path class="cls-36" d="M1736.62,340.41s0-5.31-2.77-5.31c-2.93,0-2.51,5.31-2.51,5.31l0,33.31h5.32Z" transform="translate(0 0)"/><path class="cls-36" d="M1757.76,340.41s.2-5.38-2.59-5.38-2.45,5.38-2.45,5.38l0,33.31h5.09Z" transform="translate(0 0)"/><path class="cls-36" d="M1714.71,340.41s-.07-5.58-3-5.58-2.72,5.58-2.72,5.58c0,1.43.06,14.66.23,33.31h5.85Z" transform="translate(0 0)"/><path class="cls-36" d="M1736.62,389.32s0-5.32-2.77-5.32c-2.93,0-2.51,5.32-2.51,5.32l0,33.3h5.32Z" transform="translate(0 0)"/><path class="cls-36" d="M1757.76,389.32s.2-5.39-2.59-5.39-2.45,5.39-2.45,5.39l0,33.3h5.09Z" transform="translate(0 0)"/><path class="cls-36" d="M1714.71,389.32s-.07-5.59-3-5.59-2.72,5.59-2.72,5.59c0,1.42.06,14.65.23,33.3h5.85Z" transform="translate(0 0)"/><path class="cls-36" d="M1736.62,438.35s0-5.31-2.77-5.31c-2.93,0-2.51,5.31-2.51,5.31l0,33.31h5.32Z" transform="translate(0 0)"/><path class="cls-36" d="M1757.76,438.35s.2-5.38-2.59-5.38-2.45,5.38-2.45,5.38l0,33.31h5.09Z" transform="translate(0 0)"/><path class="cls-36" d="M1714.71,438.35s-.07-5.58-3-5.58-2.72,5.58-2.72,5.58c0,1.43.06,14.66.23,33.31h5.85Z" transform="translate(0 0)"/><polygon class="cls-23" points="1761.86 472.34 1707.72 470.91 1707.35 481.6 1762.11 481.6 1761.86 472.34"/><path class="cls-35" d="M1721.5,291.92s-.06-5.38-2.29-5.38c-2.66,0-2.1,5.38-2.1,5.38l.32,33.3h4.4Z" transform="translate(0 0)"/><path class="cls-35" d="M1744.26,291.92s0-5.25-2.85-5.25-2.58,5.25-2.58,5.25l.05,33.3h5.33Z" transform="translate(0 0)"/><path class="cls-35" d="M1751,291.92s.07-5.52-2.65-5.52c-2.32,0-2.32,5.52-2.32,5.52l0,33.3H1751Z" transform="translate(0 0)"/><path class="cls-35" d="M1729.17,291.92s.12-5.65-2.68-5.65c-3,0-2.6,5.65-2.6,5.65l.24,33.3h5.16Z" transform="translate(0 0)"/><path class="cls-35" d="M1721.5,340.41s-.06-5.38-2.29-5.38c-2.66,0-2.1,5.38-2.1,5.38l.32,33.31h4.4Z" transform="translate(0 0)"/><path class="cls-35" d="M1744.26,340.41s0-5.24-2.85-5.24-2.58,5.24-2.58,5.24l.05,33.31h5.33Z" transform="translate(0 0)"/><path class="cls-35" d="M1751,340.41s.07-5.51-2.65-5.51c-2.32,0-2.32,5.51-2.32,5.51l0,33.31H1751Z" transform="translate(0 0)"/><path class="cls-35" d="M1729.17,340.41s.12-5.65-2.68-5.65c-3,0-2.6,5.65-2.6,5.65l.24,33.31h5.16Z" transform="translate(0 0)"/><path class="cls-35" d="M1721.5,389.32s-.06-5.39-2.29-5.39c-2.66,0-2.1,5.39-2.1,5.39l.32,33.3h4.4Z" transform="translate(0 0)"/><path class="cls-35" d="M1744.26,389.32s0-5.25-2.85-5.25-2.58,5.25-2.58,5.25l.05,33.3h5.33Z" transform="translate(0 0)"/><path class="cls-35" d="M1751,389.32s.07-5.52-2.65-5.52c-2.32,0-2.32,5.52-2.32,5.52l0,33.3H1751Z" transform="translate(0 0)"/><path class="cls-35" d="M1729.17,389.32s.12-5.66-2.68-5.66c-3,0-2.6,5.66-2.6,5.66l.24,33.3h5.16Z" transform="translate(0 0)"/><path class="cls-35" d="M1721.5,438.35s-.06-5.38-2.29-5.38c-2.66,0-2.1,5.38-2.1,5.38l.32,33.31h4.4Z" transform="translate(0 0)"/><path class="cls-35" d="M1744.26,438.35s0-5.24-2.85-5.24-2.58,5.24-2.58,5.24l.05,33.31h5.33Z" transform="translate(0 0)"/><path class="cls-35" d="M1751,438.35s.07-5.51-2.65-5.51c-2.32,0-2.32,5.51-2.32,5.51l0,33.31H1751Z" transform="translate(0 0)"/><path class="cls-35" d="M1729.17,438.35s.12-5.65-2.68-5.65c-3,0-2.6,5.65-2.6,5.65l.24,33.31h5.16Z" transform="translate(0 0)"/><polygon class="cls-23" points="1762.11 373.72 1707.35 372.08 1707.35 382.98 1762.11 382.98 1762.11 373.72"/><polygon class="cls-23" points="1760.23 421.05 1707.11 421.67 1707.35 432.56 1762.11 432.56 1760.23 421.05"/><polygon class="cls-23" points="1708.83 371.4 1761.71 373.65 1761.71 382.92 1706.94 382.92 1708.83 371.4"/><polygon class="cls-23" points="1708.83 323.39 1760.75 323.59 1761.71 334.9 1706.94 334.9 1708.83 323.39"/><polygon class="cls-37" points="1779.21 380.73 1689.64 381.25 1689.46 378.89 1779.69 378.01 1779.21 380.73"/><polygon class="cls-37" points="1780 331.88 1688.83 333.12 1688.35 330.26 1780.27 330.13 1780 331.88"/><polygon class="cls-37" points="1779.82 430.93 1690.46 431.95 1690.19 428.41 1779.37 427.3 1779.82 430.93"/><polygon class="cls-26" points="1780.22 160.49 1687.58 160.76 1688.44 165.25 1779.1 165.2 1780.22 160.49"/><path class="cls-35" d="M1745.06,106.94l.09,18,4.81-.35.18-17.69s-.5-3.83-2.6-3.83-2.48,3.84-2.48,3.84" transform="translate(0 0)"/><path class="cls-35" d="M1725.45,107l.17,18.9,4.84-.23-.33-18.68s-.21-4.12-2.21-4.12-2.47,4.13-2.47,4.13" transform="translate(0 0)"/><path class="cls-35" d="M1718.93,106.84l.24,19.23,4.34-.08-.24-19s-.37-3.86-2.29-4c-1.47-.09-2,3.82-2,3.82" transform="translate(0 0)"/><path class="cls-35" d="M1738.38,107l.46,18.25,4.63-.25-.21-18s-.47-3.67-2.47-3.67c-2.23,0-2.41,3.68-2.41,3.68" transform="translate(0 0)"/><path class="cls-35" d="M1732.24,107l.15,18.58,4.6-.25V107s-.54-3.77-2.38-3.77c-2,0-2.36,3.78-2.36,3.78" transform="translate(0 0)"/><path class="cls-38" d="M1759.25,279.32l-.83-13.58s0-3.11-2.59-3.11c-2.8,0-2.86,3.12-2.86,3.12l.39,13.83Z" transform="translate(0 0)"/><path class="cls-39" d="M1745.92,265.76l.18,14.09,5.61-.19,0-13.91s-.6-3-2.92-3-2.9,3-2.9,3" transform="translate(0 0)"/><path class="cls-38" d="M1738.71,265.77l.11,14.43,5.67-.27.21-14.17s-.59-3.06-3.07-3.06-2.92,3.07-2.92,3.07" transform="translate(0 0)"/><path class="cls-39" d="M1715.59,265.81l.2,15.13,5.71-.19-.39-14.95s-.25-3.3-2.61-3.3-2.91,3.31-2.91,3.31" transform="translate(0 0)"/><path class="cls-38" d="M1707.9,265.7l.28,15.39,5.12-.07-.29-15.21s-.42-3.09-2.69-3.18c-1.73-.07-2.42,3.07-2.42,3.07" transform="translate(0 0)"/><path class="cls-39" d="M1730.83,265.78l.55,14.61,5.45-.2-.24-14.42s-.55-2.93-2.91-2.93c-2.63,0-2.85,2.94-2.85,2.94" transform="translate(0 0)"/><path class="cls-38" d="M1723.6,265.8l.17,14.87,5.43-.2,0-14.68s-.63-3-2.8-3c-2.4,0-2.78,3-2.78,3" transform="translate(0 0)"/><polygon class="cls-40" points="1780.1 327.68 1688.42 327.68 1688.35 330.26 1780.27 330.13 1780.1 327.68"/><polygon class="cls-40" points="1779.52 376.4 1689.46 376.4 1689.4 378.99 1779.69 378.85 1779.52 376.4"/><polygon class="cls-40" points="1779.42 425.71 1689.71 425.71 1690.14 429.3 1779.58 428.16 1779.42 425.71"/><polyline class="cls-41" points="1784.45 487.32 1778.46 475.88 1691.28 475.88 1687.49 487.46"/><polygon class="cls-25" points="1733.66 2.25 1733.02 2.45 1733.05 23.23 1734.17 20.06 1733.66 2.25"/><path class="cls-42" d="M1735.22,15.13a1.82,1.82,0,0,1-3.55,0,1.82,1.82,0,0,1,3.55,0" transform="translate(0 0)"/><path class="cls-42" d="M1734,.78a.69.69,0,1,1-1.36,0,.69.69,0,1,1,1.36,0" transform="translate(0 0)"/><path class="cls-42" d="M1734.43,2.26a1.1,1.1,0,1,1-2.18,0,1.1,1.1,0,1,1,2.18,0" transform="translate(0 0)"/><path class="cls-25" d="M1730.74,8.6s.56-.93,1.32-.85a6.36,6.36,0,0,1,1.33.26,3.7,3.7,0,0,1,1.37-.37,1.28,1.28,0,0,1,1.32,1s-.38-2.63-2.44-2.67c-1.83,0-2.47.74-2.9,2.67" transform="translate(0 0)"/><polygon class="cls-27" points="1697.55 193.09 1684.88 192.82 1686.51 254.53 1699.05 254.53 1697.55 193.09"/><polygon class="cls-27" points="1770.56 194.04 1770.7 254.53 1782 255.21 1782.14 194.45 1770.56 194.04"/><polygon class="cls-23" points="1707.08 185.46 1706.13 189.41 1760.21 189 1760.07 185.6 1707.08 185.46"/><polygon class="cls-27" points="1694.59 260.93 1689.24 260.93 1689.87 281.91 1695.53 281.91 1694.59 260.93"/><polygon class="cls-27" points="1702.46 261.06 1697.11 260.93 1697.42 281.91 1703.4 281.77 1702.46 261.06"/><polygon class="cls-27" points="1768.75 260.31 1763.61 260.31 1764.22 281.29 1769.66 281.29 1768.75 260.31"/><polygon class="cls-27" points="1776.6 260.45 1771.46 260.31 1771.77 281.29 1777.51 281.16 1776.6 260.45"/></g></g></g><g id="London_Bus_2" data-name="London Bus 2"><g class="cls-43"><g class="cls-43"><path class="cls-44" d="M78.68,477.69s1-11.78,1.68-16.83c.33-2.41,3.18-3.61,6.36-3.44,1.28-6.29,3-15.78,8.16-20.55H87.14s-.27-19.47,2.88-30.7c1.89-6.7,3.2-7.6,13.9-8.28,11.55-.74,74.68,1.93,88.17,2.74,6.41.39,27.16.79,26.91,14.93-.09,4.65-3.4,64.36-3.4,64.36l-29.85-.39s-3.69-8.71-9.55-8.71c-7.88,0-8.72,8.4-8.72,8.4l-57.3-1s-.86-8.54-9.58-8.54c-7.71,0-7.34,8.25-7.34,8.25Z" transform="translate(0 0)"/><path class="cls-45" d="M98.47,440.55c7.87-2.09,96.2-1.22,96.2-1.22l-.8,18.43L90.18,458.89s1.34-16.49,8.29-18.34" transform="translate(0 0)"/><polygon class="cls-44" points="111.13 437.56 113.72 436.45 114.26 459.86 111.05 459.74 111.13 437.56"/><polygon class="cls-44" points="132.05 437.58 135.16 436.59 134.12 460.15 132 460.01 132.05 437.58"/><polygon class="cls-44" points="153.63 437.4 156.03 436.91 156.22 460.1 153.5 459.84 153.63 437.4"/><polygon class="cls-44" points="175.02 437.8 177.59 437.47 177.51 459.56 174.37 460.12 175.02 437.8"/><polygon class="cls-45" points="133.4 438.56 154.35 438.09 153.91 479.27 133.93 478.76 133.4 438.56"/><path class="cls-44" d="M84.25,452.7c.71-.05.71,5.41.71,5.41l-.67.43s-2.26-5.67,0-5.84" transform="translate(0 0)"/><path class="cls-45" d="M97.8,403.39c10.45-3,102,1.37,109.38,2.39,3.53.49,6.59,3.45,7.76,7.1a25.24,25.24,0,0,1,.57,10.33l-123.24-1s-1.13-16.86,5.53-18.79" transform="translate(0 0)"/><path class="cls-46" d="M107.71,476.59c1.21,4.15-.65,8.38-4.15,9.45s-7.33-1.42-8.53-5.57.65-8.38,4.16-9.45,7.32,1.43,8.52,5.57" transform="translate(0 0)"/><path class="cls-47" d="M104.91,477c.76,2.63-.42,5.32-2.64,6s-4.64-.9-5.41-3.53.42-5.31,2.64-6,4.64.9,5.41,3.53" transform="translate(0 0)"/><path class="cls-48" d="M103.82,477.17c.62,2.12-.17,4.22-1.75,4.71s-3.35-.84-4-3,.17-4.22,1.75-4.7,3.36.84,4,2.95" transform="translate(0 0)"/><path class="cls-46" d="M182.17,476.59c1.21,4.15-.65,8.38-4.16,9.45s-7.32-1.42-8.52-5.57.65-8.38,4.16-9.45,7.32,1.43,8.52,5.57" transform="translate(0 0)"/><path class="cls-47" d="M179.37,477c.76,2.63-.42,5.32-2.64,6s-4.65-.9-5.41-3.53.42-5.31,2.64-6,4.64.9,5.41,3.53" transform="translate(0 0)"/><path class="cls-48" d="M178.28,477.17c.61,2.12-.17,4.22-1.75,4.71s-3.36-.84-4-3,.17-4.22,1.75-4.7,3.35.84,4,2.95" transform="translate(0 0)"/><polygon class="cls-44" points="112.98 400.81 115.58 399.7 116.12 423.11 112.91 422.99 112.98 400.81"/><polygon class="cls-44" points="133.91 400.83 137.02 399.84 135.97 423.4 133.86 423.26 133.91 400.83"/><polygon class="cls-44" points="155.49 400.65 157.89 400.16 158.07 423.35 155.35 423.1 155.49 400.65"/><polygon class="cls-44" points="176.87 401.06 179.45 400.72 179.37 422.81 176.22 423.38 176.87 401.06"/><path class="cls-49" d="M80.38,457.36c.67-.86,1.67.09,1.67.09l-2.55,3.41s.21-2.64.88-3.5" transform="translate(0 0)"/><polygon class="cls-50" points="81.84 457.1 83.02 458.13 80.59 461.57 79.25 460.8 81.84 457.1"/><path class="cls-51" d="M218.32,432.39c0,.75-.08,1.45-.12,2.09l-131-.76c0-.91,0-2,.06-3.2Z" transform="translate(0 0)"/><polygon class="cls-45" points="197.87 438.93 217.81 439.19 215.6 479.92 198.38 479.13 197.87 438.93"/><polygon class="cls-44" points="194.81 403.67 197.38 403.34 197.3 425.43 194.15 425.99 194.81 403.67"/><polygon class="cls-50" points="216.83 477.55 216.37 481.28 184.66 479.84 180.4 472.94 173.65 471.02 169.89 473.19 167.8 479.58 110.14 478.67 107.64 473.94 103.19 470.58 96.01 472.67 93.51 478.33 77.59 478.15 76 473.74 93.4 474.23 100.66 470.16 105.13 470.58 109.09 474.67 168.15 476.17 173.43 470.08 180.17 471.95 184.54 476.59 216.83 477.55"/><path class="cls-52" d="M186.25,480.27c-.25-.09-2.76-.17-2.76-.17s-1.52-7.74-7.72-8c-7.46-.34-6.44,8.37-6.44,8.37l-2.77-.17S166,469,175.07,469c9.57,0,11.18,11.3,11.18,11.3" transform="translate(0 0)"/><path class="cls-52" d="M111.52,478.94c-.25-.09-2.76-.18-2.76-.18s-1.08-6.46-7.28-6.75c-7.46-.34-6.88,7.1-6.88,7.1l-2.77-.17s-.25-10,8.8-10c9.57,0,10.89,10,10.89,10" transform="translate(0 0)"/><polygon class="cls-53" points="210.78 442.07 210.12 474.88 200.7 474.32 200.01 441.83 210.78 442.07"/><polygon class="cls-53" points="213.4 442.57 216.6 442.82 215.11 474.81 212.37 474.44 213.4 442.57"/><polygon class="cls-53" points="152.19 440.95 151.61 473.56 135.85 473.07 135.05 440.83 152.19 440.95"/><polygon class="cls-45" points="143.16 439.95 144.42 440.33 144.53 474.19 142.82 474.31 143.16 439.95"/></g></g></g><polygon class="cls-54" points="1094.09 455.69 1101.95 455.69 1102.18 438.28 1095.27 438.56 1094.09 455.69"/><path class="cls-55" d="M1099.75,436.22c54,0,107.55-37.9,107.55-37.9l.76,2.3s-57.35,38.67-108.27,38.67c-45.88,0-120.39-72-129.91-95.13,0,0-.91-9.16-.13-7.47C988.62,377.83,1063.64,436.22,1099.75,436.22Z" transform="translate(0 0)"/><path class="cls-55" d="M1099.75,445.2c70.42,0,105.63-44.83,105.63-44.83l.76,2.3s-34.44,45.58-106.65,45.58c-73,0-120.09-75.28-129.61-98.45,0,0-.91-9.17-.13-7.47C988.62,383.47,1034.45,445.2,1099.75,445.2Z" transform="translate(0 0)"/><polygon class="cls-55" points="994.63 388.52 994.36 450.71 991.69 451.15 992.05 385.28 994.63 388.52"/><polygon class="cls-55" points="1017.51 411.93 1017.21 453.07 1015.1 453.26 1014.52 410.25 1017.51 411.93"/><path class="cls-55" d="M1036.63,428.6l2.45.64-.25,23.34a4.8,4.8,0,0,0-1.8,0Z" transform="translate(0 0)"/><polygon class="cls-55" points="1177.88 424.31 1178.18 453.32 1180.3 453.45 1180.87 423.12 1177.88 424.31"/><path class="cls-55" d="M1158.76,434.81l-2.44.48.25,17.49a6.11,6.11,0,0,1,1.79,0Z" transform="translate(0 0)"/><path class="cls-55" d="M1073.89,444.28l2.3,1v9.6h-2.3S1073.5,444.67,1073.89,444.28Z" transform="translate(0 0)"/><path class="cls-55" d="M1139.73,441.64l-2.3,1.07v10h2.3S1140.12,442,1139.73,441.64Z" transform="translate(0 0)"/><path class="cls-55" d="M1121.51,444.48l-2.31,1v9.6h2.31S1121.89,444.86,1121.51,444.48Z" transform="translate(0 0)"/><path class="cls-54" d="M1203.15,449.79l-293.17.8c0,1.94,0,3.88.1,5.82l293.31-.6Z" transform="translate(0 0)"/><path class="cls-55" d="M1203.33,455l-295.87.25.09,1.82,296-.19Z" transform="translate(0 0)"/><path class="cls-55" d="M1055.66,437l2.31,1.49v14h-2.31S1055.28,437.59,1055.66,437Z" transform="translate(0 0)"/><path class="cls-56" d="M1218.47,353.31c0,1.27,12.55,50,12.55,50l-28.32-.56Z" transform="translate(0 0)"/><polygon class="cls-57" points="1228.73 476.04 1202.69 476.04 1201.45 403.35 1231.02 403.27 1228.73 476.04"/><polygon class="cls-58" points="1200.21 404.72 1232.59 405.19 1232.9 402.16 1200.21 401.99 1200.21 404.72"/><path class="cls-56" d="M1218.12,353.94a2.51,2.51,0,0,0-2.41,2.68,2.64,2.64,0,0,0,2.94,2.21,2.52,2.52,0,0,0,2.41-2.68A2.64,2.64,0,0,0,1218.12,353.94Z" transform="translate(0 0)"/><polygon class="cls-56" points="1217.38 339.04 1219.08 339.68 1219.12 357.36 1217.42 357.45 1217.38 339.04"/><polygon class="cls-56" points="1214.7 343.63 1221.38 343.46 1221.53 345.21 1214.61 344.97 1214.7 343.63"/><polygon class="cls-57" points="1201.15 430.04 1230.68 429.76 1230.68 422.86 1201.15 422.44 1201.15 430.04"/><polygon class="cls-58" points="1200.72 423.5 1231.19 423.54 1231.43 421.37 1200.06 421.43 1200.72 423.5"/><polygon class="cls-58" points="1200.32 430.65 1231.43 430.9 1231.49 429.18 1200.76 429.39 1200.32 430.65"/><path class="cls-59" d="M1216.45,436.51c7.58-.15,4.87,14.59,4.87,14.59l-11.27.51S1208.88,436.65,1216.45,436.51Z" transform="translate(0 0)"/><polygon class="cls-1" points="1220.46 404.86 1220.41 407.35 1212.95 406.84 1212.93 405.6 1220.46 404.86"/><polygon class="cls-59" points="1225.48 407.7 1225.32 419.68 1221.45 419.68 1221.63 407.44 1225.48 407.7"/><polygon class="cls-59" points="1207.42 419.68 1207.99 406.5 1211.45 406.74 1211.4 419.68 1207.42 419.68"/><polygon class="cls-59" points="1220.41 407.35 1220.18 419.68 1213.15 419.68 1212.95 406.84 1220.41 407.35"/><polygon class="cls-17" points="1193.05 487.36 1234.38 487.53 1236.06 450.5 1193.83 449.66 1193.05 487.36"/><polygon class="cls-54" points="1235.76 483.35 1235.46 488.48 1192.16 488.94 1192.19 483.35 1235.76 483.35"/><polygon class="cls-54" points="470.83 455.69 462.97 455.69 462.74 438.28 469.66 438.56 470.83 455.69"/><path class="cls-55" d="M465.18,436.22c-54,0-107.55-37.9-107.55-37.9l-.77,2.3s57.36,38.67,108.28,38.67c45.87,0,120.39-72,129.9-95.13,0,0,.91-9.16.13-7.47C576.31,377.83,501.28,436.22,465.18,436.22Z" transform="translate(0 0)"/><path class="cls-55" d="M465.18,445.2c-70.42,0-105.63-44.83-105.63-44.83l-.77,2.3s34.44,45.58,106.65,45.58c73,0,120.1-75.28,129.61-98.45,0,0,.91-9.17.13-7.47C576.31,383.47,530.47,445.2,465.18,445.2Z" transform="translate(0 0)"/><polygon class="cls-55" points="570.29 388.52 570.57 450.71 573.24 451.15 572.87 385.28 570.29 388.52"/><polygon class="cls-55" points="547.41 411.93 547.72 453.07 549.83 453.26 550.4 410.25 547.41 411.93"/><path class="cls-55" d="M528.3,428.6l-2.45.64.25,23.34a4.74,4.74,0,0,1,1.79,0Z" transform="translate(0 0)"/><polygon class="cls-55" points="387.04 424.31 386.74 453.32 384.63 453.45 384.05 423.12 387.04 424.31"/><path class="cls-55" d="M406.16,434.81l2.45.48-.25,17.49a6.17,6.17,0,0,0-1.8,0Z" transform="translate(0 0)"/><path class="cls-55" d="M491,444.28l-2.31,1v9.6H491S491.42,444.67,491,444.28Z" transform="translate(0 0)"/><path class="cls-55" d="M425.19,441.64l2.31,1.07v10h-2.31S424.81,442,425.19,441.64Z" transform="translate(0 0)"/><path class="cls-55" d="M443.42,444.48l2.3,1v9.6h-2.3S443,444.86,443.42,444.48Z" transform="translate(0 0)"/><polygon class="cls-34" points="673.09 467.07 671.58 466.85 674.66 454.55 688.2 464.19 693.63 454.82 703.37 463.32 708.67 454.47 719.6 461.31 724.55 454.26 735.6 460 740.62 453.65 750.65 459.67 758.51 454.2 768.27 458.16 775.22 453.79 781.97 457.19 788.22 454.59 788.95 455.63 781.89 458.57 775.32 455.25 768.45 459.57 758.74 455.63 750.73 461.22 741.04 455.4 736.07 461.68 725.1 455.97 720.07 463.13 709.23 456.35 703.78 465.46 694.06 456.99 688.73 466.18 675.64 456.86 673.09 467.07"/><polygon class="cls-34" points="908.87 467.53 906.31 457.32 893.83 468.87 887.9 457.45 878.18 465.92 872.72 456.81 861.88 463.59 856.85 456.43 845.88 462.14 840.91 455.86 831.23 461.68 823.21 456.09 813.5 460.03 806.63 455.71 800.06 459.03 793 456.1 793.73 455.05 799.99 457.65 806.73 454.25 813.69 458.62 823.44 454.66 831.3 460.13 841.33 454.11 846.35 460.46 857.4 454.72 862.35 461.77 873.29 454.93 878.58 463.78 888.33 455.28 894.51 466.96 907.3 455.01 910.37 467.31 908.87 467.53"/><polygon class="cls-54" points="361.77 449.79 361.54 455.81 927.19 456.96 927.76 451.33 361.77 449.79"/><path class="cls-34" d="M657.48,468.54l-.13,2.66S756.5,459.85,797,459.85c52.23,0,106.65,14.91,106.65,14.91l2.43-4.05S836.73,456.5,794.73,456.5C761,456.5,657.48,468.54,657.48,468.54Z" transform="translate(0 0)"/><polygon class="cls-55" points="361.59 454.95 361.36 456.83 927.01 457.19 927.58 455.43 361.59 454.95"/><path class="cls-55" d="M509.26,437l-2.3,1.49v14h2.3S509.65,437.59,509.26,437Z" transform="translate(0 0)"/><path class="cls-60" d="M753,308.45c1.13.38,2.5.35,3.44.91a3.67,3.67,0,0,1,.72.61c.41.42,0,2.82,0,2.82s-.07,0-.07,0a5.73,5.73,0,0,0-1.56-1.3,4.3,4.3,0,0,0-2.32-.39,4.21,4.21,0,0,1-2.32-.39c-.34-.22-.4-.8-.51-1.06a11.92,11.92,0,0,1,.16-2.64C751,307.09,752.32,308.23,753,308.45Z" transform="translate(0 0)"/><polygon class="cls-54" points="749.9 330.68 750.61 329.52 750.67 306.61 749.83 306.78 749.9 330.68"/><polygon class="cls-61" points="948.37 341.35 653.9 341.35 653.9 322.26 949.39 324.35 948.37 341.35"/><path class="cls-60" d="M830.45,308.45c1.13.38,2.49.35,3.43.91a3.4,3.4,0,0,1,.72.61c.42.42,0,2.82,0,2.82a.07.07,0,0,1-.07,0,5.73,5.73,0,0,0-1.56-1.3,4.28,4.28,0,0,0-2.32-.39,4.22,4.22,0,0,1-2.32-.39c-.34-.22-.4-.8-.51-1.06A11.83,11.83,0,0,1,828,307C828.47,307.09,829.79,308.23,830.45,308.45Z" transform="translate(0 0)"/><polygon class="cls-54" points="827.37 330.68 828.08 329.52 828.14 306.61 827.3 306.78 827.37 330.68"/><polygon class="cls-34" points="685.99 340.35 676.1 325.7 666.56 339.31 654.38 325.38 655.34 324.54 666.45 337.24 676.12 323.44 685.95 337.99 694.35 324.5 705.25 337.84 714.72 323.9 726 337.35 735.24 324.13 745.62 337.84 755.45 324.44 766.25 337.01 772.59 324.92 773.73 325.51 766.5 339.28 755.53 326.5 745.64 339.98 735.28 326.3 726.09 339.45 714.83 326.02 705.35 339.98 694.49 326.69 685.99 340.35"/><polygon class="cls-34" points="696.17 340.35 686.28 325.7 676.74 339.31 664.55 325.38 665.52 324.54 676.63 337.24 686.3 323.44 696.13 337.99 704.53 324.5 715.43 337.84 724.9 323.9 736.17 337.35 745.42 324.13 755.8 337.84 765.63 324.44 776.42 337.01 782.77 324.92 783.9 325.51 776.68 339.28 765.71 326.5 755.82 339.98 745.46 326.3 736.27 339.45 725.01 326.02 715.53 339.98 704.67 326.69 696.17 340.35"/><polygon class="cls-34" points="776.48 325.08 774.89 325.72 780.52 331.23 781.8 330.38 776.48 325.08"/><polygon class="cls-56" points="729.77 341.6 722.28 341.09 722.09 323 729.37 322.87 729.77 341.6"/><polygon class="cls-34" points="891.9 340.35 901.79 325.7 911.33 339.31 923.52 325.38 922.55 324.54 911.44 337.24 901.77 323.44 891.95 337.99 883.54 324.5 872.64 337.84 863.17 323.9 851.89 337.35 842.65 324.13 832.27 337.84 822.44 324.44 811.65 337.01 805.3 324.92 804.17 325.51 811.39 339.28 822.36 326.5 832.25 339.98 842.61 326.3 851.8 339.45 863.06 326.02 872.54 339.98 883.4 326.69 891.9 340.35"/><polygon class="cls-34" points="881.72 340.35 891.61 325.7 901.15 339.31 913.34 325.38 912.38 324.54 901.26 337.24 891.59 323.44 881.77 337.99 873.37 324.5 862.46 337.84 852.99 323.9 841.72 337.35 832.47 324.13 822.09 337.84 812.26 324.44 801.47 337.01 795.12 324.92 793.99 325.51 801.21 339.28 812.18 326.5 822.07 339.98 832.43 326.3 841.63 339.45 852.88 326.02 862.36 339.98 873.22 326.69 881.72 340.35"/><polygon class="cls-34" points="801.41 325.08 803 325.72 797.37 331.23 796.09 330.38 801.41 325.08"/><polygon class="cls-56" points="848.12 341.6 855.61 341.09 855.8 323 848.52 322.87 848.12 341.6"/><polygon class="cls-56" points="948.95 326.24 654.47 326.24 653.9 322.26 949.39 322.7 948.95 326.24"/><polygon class="cls-61" points="796.95 323.76 780.73 323.81 780.73 339.43 797.21 339.45 796.95 323.76"/><polygon class="cls-57" points="789.6 319.72 787.86 319.61 787.74 319.88 789.61 320.02 789.6 319.72"/><path class="cls-57" d="M789,317.64a.63.63,0,0,0-.39-.1.25.25,0,0,0-.26.19l0,6,.54.18Z" transform="translate(0 0)"/><path class="cls-57" d="M791.05,322.33c-.17-.88-1.87-.27-2.21-.32-.55-.08-2.18-.6-2.53-.08-.76,1.14.75,3.8.75,3.8l2,1.83S791.46,324.46,791.05,322.33Z" transform="translate(0 0)"/><path class="cls-62" d="M796.48,327.83c0-1.73-3.78-1.28-5.67-2.19-1.44-.69-2.22-3.07-2.22-3.07-.58,3.13-2.45,3.49-5.35,3.77s-2.87,2.24-2.87,2.24l.22,9.67,15.82-.18S796.39,333.11,796.48,327.83Z" transform="translate(0 0)"/><path class="cls-34" d="M796.48,329.63c0-1.74-3.78-1.29-5.67-2.2a4.74,4.74,0,0,1-2-2.69c-.6,2.18-2.66,3.11-5.56,3.39s-2.87,2.24-2.87,2.24l.22,9.68,15.82-.19S796.39,334.9,796.48,329.63Z" transform="translate(0 0)"/><polygon class="cls-62" points="781.24 340.26 779.02 339.07 778.9 321.76 781.16 321.62 781.24 340.26"/><polygon class="cls-62" points="798.27 340.44 796.12 340.84 795.84 321.71 798.1 321.8 798.27 340.44"/><polygon class="cls-56" points="948.95 337.57 654.47 337.57 654.47 341.07 949.97 340.69 948.95 337.57"/><polygon class="cls-54" points="949.14 342.97 654.66 342.97 654.66 339.73 950.16 340.08 949.14 342.97"/><rect class="cls-9" x="605.88" y="281.46" width="51.21" height="37.9"/><polygon class="cls-56" points="630.85 230.05 609.17 301.97 651.99 299.09 630.85 230.05"/><polygon class="cls-63" points="653.14 457.52 606.23 458.81 606.78 297.46 651.99 296.98 653.14 457.52"/><path class="cls-56" d="M602.45,264.33c0,.77-6.92,30.34-6.92,30.34l15.6-.34Z" transform="translate(0 0)"/><path class="cls-56" d="M658.46,264.14c0,.77,6.91,30.34,6.91,30.34l-15.6-.35Z" transform="translate(0 0)"/><polygon class="cls-57" points="666.39 458.29 653.14 457.52 649.09 294.65 665.37 294.48 666.39 458.29"/><polygon class="cls-58" points="648.69 296.89 666.02 295.86 667.13 293.13 647.84 293.13 648.69 296.89"/><path class="cls-56" d="M630.68,229.35a1.75,1.75,0,1,0,1.89,1.58A1.74,1.74,0,0,0,630.68,229.35Z" transform="translate(0 0)"/><polygon class="cls-56" points="631.19 211.62 630.44 212.26 630.41 231.8 631.51 231.85 631.19 211.62"/><polygon class="cls-56" points="632.55 213.22 628.76 213.11 628.88 214.06 632.6 214.13 632.55 213.22"/><path class="cls-56" d="M658.27,264.52a1.49,1.49,0,1,0,1.62,1.34A1.48,1.48,0,0,0,658.27,264.52Z" transform="translate(0 0)"/><polygon class="cls-56" points="659 258.11 658.07 258.41 658.04 266.61 658.98 266.65 659 258.11"/><polygon class="cls-56" points="660.09 259.84 656.97 259.74 657.06 260.63 660.13 260.7 660.09 259.84"/><polygon class="cls-57" points="596.79 459.23 611.13 459.23 611.82 294.84 595.53 294.67 596.79 459.23"/><polygon class="cls-58" points="612.5 296.12 594.67 296.59 592.78 293.47 612.5 293.39 612.5 296.12"/><ellipse class="cls-56" cx="602.49" cy="266.2" rx="1.49" ry="1.48" transform="translate(278.88 839.9) rotate(-84.41)"/><polygon class="cls-56" points="603.04 258.31 602.11 258.6 602.09 266.8 603.02 266.84 603.04 258.31"/><polygon class="cls-56" points="604.52 260.43 600.84 260.36 600.76 261.17 604.57 261.06 604.52 260.43"/><polygon class="cls-57" points="666.01 347.84 595.48 347.57 595.48 340.67 666.01 340.25 666.01 347.84"/><polygon class="cls-58" points="666.7 341.02 595.04 341.23 595.17 339.22 666.66 338.84 666.7 341.02"/><polygon class="cls-58" points="666.7 348.36 595.13 348.57 595.04 346.69 666.61 346.9 666.7 348.36"/><polygon class="cls-64" points="595.77 378.19 596.15 388.05 599.74 380.24 603.71 388.17 606.27 380.36 611.64 389.71 611.39 377.29 595.77 378.19"/><rect class="cls-64" x="610.7" y="378.21" width="40.33" height="4.22"/><polygon class="cls-57" points="666.1 408.75 596.11 408.66 596.02 402.17 666.12 401.81 666.1 408.75"/><polygon class="cls-58" points="666.36 402.48 595.43 402.81 595.21 400.72 666.32 401.04 666.36 402.48"/><polygon class="cls-58" points="666.66 409.47 595.17 409.73 595.68 407.55 666.44 407.88 666.66 409.47"/><polygon class="cls-59" points="615.89 354.97 616.51 367.94 643.74 368.42 643.93 356.7 615.89 354.97"/><polygon class="cls-59" points="614.35 315.22 615.31 331.54 645.46 331.16 645.96 315.07 614.35 315.22"/><polygon class="cls-63" points="638.93 311.38 622.27 312.51 622.03 329.24 624.28 329.58 623.55 313.53 636.63 313.3 637.01 330.39 639.32 330.97 638.93 311.38"/><polygon class="cls-63" points="621.84 353.05 622.99 370.14 627.26 369.48 627.01 353.86 632.9 353.99 633.03 368.97 639.51 369.57 638.36 350.36 621.84 353.05"/><path class="cls-64" d="M613,327.13c0,.87.77,7,.77,7l33,.53.57-7.49Z" transform="translate(0 0)"/><path class="cls-65" d="M645.27,412.36l-28-.16c-.19.49.58,22.28.58,22.28h28.81Z" transform="translate(0 0)"/><polygon class="cls-58" points="653.04 436.7 650.05 436.53 650.05 455.29 613.44 455.17 612.16 436.7 609.51 437.21 609.68 452.92 610.19 457.95 653.14 457.52 653.04 436.7"/><polygon class="cls-63" points="641.81 436.78 641.62 409.7 622.83 410.24 622.8 436.59 625.81 437.3 624.53 411.24 639.32 411.24 638.93 437.36 641.81 436.78"/><path class="cls-59" d="M632.13,439.77c-7.57-.14-4.86,14.6-4.86,14.6l11.26.51S639.7,439.92,632.13,439.77Z" transform="translate(0 0)"/><polygon class="cls-17" points="671.82 486.63 592.44 486.58 590.65 453.16 672.59 452.96 671.82 486.63"/><polygon class="cls-59" points="616.25 387.79 616.51 398.03 644.81 398.03 643.91 386.77 616.25 387.79"/><polygon class="cls-63" points="622.27 384.72 622.66 398.93 624.71 399.7 624.19 385.36 636.1 386 635.72 399.19 638.53 399.31 638.4 383.05 622.27 384.72"/><polygon class="cls-63" points="646.04 295.25 642.78 295.03 641.62 282.38 636.65 282.38 630 266.84 623.08 282.38 619.35 282.38 618.89 293.58 614.74 293.71 614.35 307.92 646.23 308.5 646.04 295.25"/><polygon class="cls-65" points="622.06 288.35 622.74 303.37 639.3 303.82 639.3 288.27 622.06 288.35"/><polygon class="cls-63" points="634.86 304.31 633.92 285.11 626.07 284.6 626.84 305.51 628.18 305.43 627.79 286.8 632.9 286.64 633.24 303.2 634.86 304.31"/><polygon class="cls-64" points="649.71 300.56 611.47 300.05 611.66 308.31 649.5 308.69 649.71 300.56"/><polygon class="cls-54" points="589.71 485.31 590.14 488.55 674.38 488.94 674.13 485.31 589.71 485.31"/><polygon class="cls-64" points="608.32 434.99 608.57 438.58 655.64 437.93 655.64 434.09 608.32 434.99"/><polygon class="cls-64" points="666.44 378.19 666.06 388.05 662.47 380.24 658.5 388.17 655.95 380.36 650.57 389.71 650.82 377.29 666.44 378.19"/><rect class="cls-57" x="595.48" y="371.46" width="71.2" height="6.24"/><polygon class="cls-58" points="666.93 371.79 595.01 371.57 594.83 370.51 667.13 369.67 666.93 371.79"/><polygon class="cls-58" points="666.93 378.76 594.75 378.49 594.57 376.44 666.93 376.84 666.93 378.76"/><polygon class="cls-58" points="595.17 307.56 595.34 310.04 665.82 311 665.82 308.5 595.17 307.56"/><rect class="cls-9" x="913.21" y="280.85" width="51.21" height="37.9"/><polygon class="cls-56" points="938.17 229.44 916.49 301.36 959.31 298.48 938.17 229.44"/><polygon class="cls-63" points="964.63 463.2 913.15 465.5 914.1 296.85 959.31 296.37 964.63 463.2"/><path class="cls-56" d="M909.77,263.72c0,.77-6.92,30.34-6.92,30.34l15.6-.34Z" transform="translate(0 0)"/><path class="cls-56" d="M965.78,263.53c0,.77,6.91,30.34,6.91,30.34l-15.6-.34Z" transform="translate(0 0)"/><polygon class="cls-57" points="973.72 457.68 960.47 456.91 956.41 294.04 972.69 293.87 973.72 457.68"/><polygon class="cls-58" points="956.01 296.28 973.34 295.25 974.45 292.52 955.16 292.52 956.01 296.28"/><path class="cls-56" d="M938,228.74a1.75,1.75,0,1,0,1.9,1.58A1.76,1.76,0,0,0,938,228.74Z" transform="translate(0 0)"/><polygon class="cls-56" points="938.51 211.01 937.76 211.65 937.73 231.19 938.83 231.24 938.51 211.01"/><polygon class="cls-56" points="939.87 212.61 936.08 212.5 936.2 213.45 939.92 213.52 939.87 212.61"/><path class="cls-56" d="M965.59,263.91a1.49,1.49,0,1,0,1.62,1.34A1.49,1.49,0,0,0,965.59,263.91Z" transform="translate(0 0)"/><polygon class="cls-56" points="966.32 257.5 965.39 257.8 965.36 266 966.3 266.04 966.32 257.5"/><polygon class="cls-56" points="967.41 259.23 964.29 259.13 964.38 260.02 967.45 260.09 967.41 259.23"/><polygon class="cls-57" points="904.12 458.62 918.45 458.62 919.14 294.23 902.85 294.06 904.12 458.62"/><polygon class="cls-58" points="919.82 295.51 901.99 295.98 900.1 292.86 919.82 292.78 919.82 295.51"/><path class="cls-56" d="M910,264.1a1.49,1.49,0,1,1-1.62,1.34A1.49,1.49,0,0,1,910,264.1Z" transform="translate(0 0)"/><polygon class="cls-56" points="910.37 257.7 909.43 257.99 909.41 266.19 910.35 266.23 910.37 257.7"/><polygon class="cls-56" points="911.84 259.82 908.16 259.75 908.08 260.56 911.89 260.45 911.84 259.82"/><polygon class="cls-57" points="973.33 347.24 902.8 346.96 902.8 340.06 973.33 339.64 973.33 347.24"/><polygon class="cls-58" points="974.02 340.41 902.37 340.62 902.5 338.61 973.98 338.23 974.02 340.41"/><polygon class="cls-58" points="974.02 347.75 902.45 347.96 902.37 346.08 973.93 346.3 974.02 347.75"/><polygon class="cls-64" points="903.09 377.58 903.48 387.44 907.06 379.63 911.03 387.56 913.59 379.75 918.97 389.1 918.71 376.68 903.09 377.58"/><rect class="cls-64" x="918.03" y="377.6" width="40.33" height="4.22"/><polygon class="cls-57" points="973.42 408.14 903.43 408.05 903.35 401.56 973.45 401.2 973.42 408.14"/><polygon class="cls-58" points="973.68 401.87 902.75 402.2 902.54 400.11 973.64 400.43 973.68 401.87"/><polygon class="cls-58" points="973.98 408.86 902.49 409.12 903 406.94 973.76 407.27 973.98 408.86"/><polygon class="cls-59" points="923.21 354.36 923.83 367.34 951.06 367.81 951.25 356.09 923.21 354.36"/><polygon class="cls-65" points="921.67 314.61 922.63 330.93 952.78 330.55 953.28 314.46 921.67 314.61"/><polygon class="cls-63" points="946.25 310.77 929.59 311.9 929.36 328.63 931.6 328.97 930.87 312.92 943.95 312.69 944.34 329.78 946.64 330.36 946.25 310.77"/><polygon class="cls-63" points="929.16 352.44 930.32 369.53 934.59 368.87 934.33 353.25 940.22 353.38 940.35 368.36 946.83 368.96 945.68 349.75 929.16 352.44"/><path class="cls-64" d="M920.33,326.52c0,.87.77,7,.77,7l33,.53.57-7.49Z" transform="translate(0 0)"/><path class="cls-65" d="M952.59,411.75l-28-.16c-.19.49.58,22.28.58,22.28h28.81Z" transform="translate(0 0)"/><polygon class="cls-58" points="960.36 436.09 957.38 435.92 956.31 454.27 922 453.5 919.48 436.09 916.83 436.6 917 452.31 917.52 457.34 960.47 456.91 960.36 436.09"/><polygon class="cls-63" points="949.14 436.17 948.94 409.09 930.15 409.63 930.12 435.98 933.14 436.69 931.85 410.63 946.64 410.63 946.25 436.75 949.14 436.17"/><path class="cls-59" d="M939.45,439.16c-7.57-.14-4.86,14.6-4.86,14.6l11.26.51S947,439.31,939.45,439.16Z" transform="translate(0 0)"/><polygon class="cls-17" points="981.45 487.87 899.76 488.03 898.82 450.69 979.91 451.71 981.45 487.87"/><polygon class="cls-59" points="923.58 387.18 923.83 397.42 952.13 397.42 951.23 386.16 923.58 387.18"/><polygon class="cls-63" points="929.59 384.11 929.98 398.32 932.03 399.09 931.51 384.75 943.42 385.39 943.04 398.58 945.85 398.7 945.73 382.44 929.59 384.11"/><polygon class="cls-63" points="953.36 294.64 950.11 294.42 948.94 281.77 943.98 281.77 937.32 266.23 930.4 281.77 926.67 281.77 926.21 292.97 922.06 293.1 921.67 307.31 953.55 307.89 953.36 294.64"/><polygon class="cls-59" points="929.38 287.74 930.06 302.76 946.62 303.22 946.62 287.66 929.38 287.74"/><polygon class="cls-63" points="942.18 303.7 941.24 284.5 933.39 283.99 934.16 304.9 935.5 304.82 935.12 286.19 940.22 286.04 940.56 302.59 942.18 303.7"/><polygon class="cls-64" points="957.03 299.95 918.79 299.44 918.99 307.7 956.82 308.08 957.03 299.95"/><polygon class="cls-54" points="897.03 484.01 897.63 488.94 982.68 487.87 983.15 484.01 897.03 484.01"/><polygon class="cls-64" points="915.64 434.38 915.89 437.97 962.96 437.32 962.96 433.48 915.64 434.38"/><polygon class="cls-64" points="973.76 377.58 973.38 387.44 969.8 379.63 965.83 387.56 963.27 379.75 957.89 389.1 958.14 376.68 973.76 377.58"/><rect class="cls-57" x="902.8" y="370.85" width="71.2" height="6.24"/><polygon class="cls-58" points="974.25 371.18 902.33 370.96 902.16 369.9 974.45 369.06 974.25 371.18"/><polygon class="cls-58" points="974.25 378.15 902.07 377.88 901.9 375.83 974.25 376.23 974.25 378.15"/><polygon class="cls-58" points="902.49 306.95 902.66 309.43 973.14 310.39 973.14 307.89 902.49 306.95"/><path class="cls-56" d="M346.46,353.31c0,1.27-12.56,50-12.56,50l28.33-.56Z" transform="translate(0 0)"/><polygon class="cls-57" points="336.19 476.04 362.23 476.04 363.47 403.35 333.9 403.27 336.19 476.04"/><polygon class="cls-58" points="364.71 404.72 332.34 405.19 332.02 402.16 364.71 401.99 364.71 404.72"/><path class="cls-56" d="M346.8,353.94a2.53,2.53,0,0,1,2.42,2.68,2.64,2.64,0,0,1-2.94,2.21,2.53,2.53,0,0,1-2.42-2.68A2.64,2.64,0,0,1,346.8,353.94Z" transform="translate(0 0)"/><polygon class="cls-56" points="347.54 339.04 345.85 339.68 345.8 357.36 347.5 357.45 347.54 339.04"/><polygon class="cls-56" points="350.23 343.63 343.54 343.46 343.4 345.21 350.32 344.97 350.23 343.63"/><polygon class="cls-57" points="363.77 430.04 334.24 429.76 334.24 422.86 363.77 422.44 363.77 430.04"/><polygon class="cls-58" points="364.2 423.5 333.73 423.54 333.49 421.37 364.86 421.43 364.2 423.5"/><polygon class="cls-58" points="364.61 430.65 333.49 430.9 333.43 429.18 364.16 429.39 364.61 430.65"/><path class="cls-59" d="M348.47,436.51c-7.57-.15-4.87,14.59-4.87,14.59l11.27.51S356,436.65,348.47,436.51Z" transform="translate(0 0)"/><polygon class="cls-1" points="344.46 404.86 344.51 407.35 351.97 406.84 351.99 405.6 344.46 404.86"/><polygon class="cls-59" points="339.44 407.7 339.6 419.68 343.47 419.68 343.3 407.44 339.44 407.7"/><polygon class="cls-59" points="357.5 419.68 356.93 406.5 353.47 406.74 353.52 419.68 357.5 419.68"/><polygon class="cls-59" points="344.51 407.35 344.75 419.68 351.77 419.68 351.97 406.84 344.51 407.35"/><polygon class="cls-17" points="371.87 487.36 330.55 487.53 328.86 450.5 371.1 449.66 371.87 487.36"/><polygon class="cls-54" points="329.17 483.35 329.47 488.48 372.77 488.94 372.74 483.35 329.17 483.35"/></g></g></svg>
