<svg xmlns="http://www.w3.org/2000/svg" viewBox="0 0 783.19 783.19"><defs><style>.cls-1{fill:gray;}</style></defs><g id="Layer_2" data-name="Layer 2"><g id="Capa_1" data-name="Capa 1"><path class="cls-1" d="M560,155.77H223.15a33.73,33.73,0,0,0-33.69,33.69V593.73a33.73,33.73,0,0,0,33.69,33.69H560a33.71,33.71,0,0,0,33.69-33.69V189.46A33.71,33.71,0,0,0,560,155.77ZM391.6,459H256.84V425.28H391.6ZM526.35,391.6H256.84V357.91H526.35Zm0-67.38H256.84V290.53H526.35Zm0-67.38H256.84V223.15H526.35ZM560,155.77H223.15a33.73,33.73,0,0,0-33.69,33.69V593.73a33.73,33.73,0,0,0,33.69,33.69H560a33.71,33.71,0,0,0,33.69-33.69V189.46A33.71,33.71,0,0,0,560,155.77ZM391.6,459H256.84V425.28H391.6ZM526.35,391.6H256.84V357.91H526.35Zm0-67.38H256.84V290.53H526.35Zm0-67.38H256.84V223.15H526.35ZM560,155.77H223.15a33.73,33.73,0,0,0-33.69,33.69V593.73a33.73,33.73,0,0,0,33.69,33.69H560a33.71,33.71,0,0,0,33.69-33.69V189.46A33.71,33.71,0,0,0,560,155.77ZM391.6,459H256.84V425.28H391.6ZM526.35,391.6H256.84V357.91H526.35Zm0-67.38H256.84V290.53H526.35Zm0-67.38H256.84V223.15H526.35ZM560,155.77H223.15a33.73,33.73,0,0,0-33.69,33.69V593.73a33.73,33.73,0,0,0,33.69,33.69H560a33.71,33.71,0,0,0,33.69-33.69V189.46A33.71,33.71,0,0,0,560,155.77ZM391.6,459H256.84V425.28H391.6ZM526.35,391.6H256.84V357.91H526.35Zm0-67.38H256.84V290.53H526.35Zm0-67.38H256.84V223.15H526.35ZM391.6,0C175.32,0,0,175.32,0,391.59s175.32,391.6,391.6,391.6,391.59-175.33,391.59-391.6S607.87,0,391.6,0ZM627.42,593.73A67.38,67.38,0,0,1,560,661.11H223.15a67.38,67.38,0,0,1-67.38-67.38V189.46a67.38,67.38,0,0,1,67.38-67.38H560a67.38,67.38,0,0,1,67.38,67.38ZM560,155.77H223.15a33.73,33.73,0,0,0-33.69,33.69V593.73a33.73,33.73,0,0,0,33.69,33.69H560a33.71,33.71,0,0,0,33.69-33.69V189.46A33.71,33.71,0,0,0,560,155.77ZM391.6,459H256.84V425.28H391.6ZM526.35,391.6H256.84V357.91H526.35Zm0-67.38H256.84V290.53H526.35Zm0-67.38H256.84V223.15H526.35ZM560,155.77H223.15a33.73,33.73,0,0,0-33.69,33.69V593.73a33.73,33.73,0,0,0,33.69,33.69H560a33.71,33.71,0,0,0,33.69-33.69V189.46A33.71,33.71,0,0,0,560,155.77ZM391.6,459H256.84V425.28H391.6ZM526.35,391.6H256.84V357.91H526.35Zm0-67.38H256.84V290.53H526.35Zm0-67.38H256.84V223.15H526.35ZM560,155.77H223.15a33.73,33.73,0,0,0-33.69,33.69V593.73a33.73,33.73,0,0,0,33.69,33.69H560a33.71,33.71,0,0,0,33.69-33.69V189.46A33.71,33.71,0,0,0,560,155.77ZM391.6,459H256.84V425.28H391.6ZM526.35,391.6H256.84V357.91H526.35Zm0-67.38H256.84V290.53H526.35Zm0-67.38H256.84V223.15H526.35Z"/></g></g></svg>