<svg id="Capa_1" data-name="Capa 1" xmlns="http://www.w3.org/2000/svg" viewBox="0 0 783.19 783.19"><defs><style>.cls-1{fill:gray;}</style></defs><polygon class="cls-1" points="186.8 249.7 306.26 196.61 306.26 534.72 186.8 587.81 186.8 249.7"/><polygon class="cls-1" points="340.4 196.61 459.86 249.7 459.86 587.81 340.4 534.72 340.4 196.61"/><polygon class="cls-1" points="494 249.16 596.4 197.96 596.4 535.26 494 586.46 494 249.16"/><path class="cls-1" d="M391.6,0C175.32,0,0,175.32,0,391.59s175.32,391.6,391.6,391.6,391.59-175.33,391.59-391.6S607.87,0,391.6,0ZM630.53,545.81a17.07,17.07,0,0,1-9.44,15.28L484.56,629.35c-.28.19-.58.07-.85.19a15.07,15.07,0,0,1-12.92.29c-.26-.15-.53-.05-.79-.15l-146.67-65.2-146.67,65.2a17.08,17.08,0,0,1-24-15.6V238.61A17.09,17.09,0,0,1,162.8,223l153.6-68.26c.24-.11.51-.12.77-.23a17.87,17.87,0,0,1,2-.61,18.1,18.1,0,0,1,2.07-.43,26.26,26.26,0,0,1,4.16,0,18.1,18.1,0,0,1,2.07.43,17.87,17.87,0,0,1,2,.61c.26.11.53.12.77.23l146.24,65,129.34-64.68a17.06,17.06,0,0,1,24.69,15.28Z"/></svg>